<?xml version="1.0" encoding="UTF-8"?>
<svg id="Layer_2" data-name="Layer 2" xmlns="http://www.w3.org/2000/svg" viewBox="0 0 106.67 160">
  <defs>
    <style>
      .cls-1 {
        fill: #83c040;
        stroke-width: 0px;
      }

      .cls-2 {
        fill: #fdfffd;
        stroke: #fff;
        stroke-miterlimit: 10;
      }
    </style>
  </defs>
  <g id="Layer_1-2" data-name="Layer 1">
    <g>
      <rect class="cls-1" x="0" y="0" width="106.67" height="160" rx="5" ry="5"/>
      <path class="cls-2" d="M10.82,23.9c0-.08.02-.12.06-.18l3.84-5.16c.55-.75.88-1.47.88-2.22,0-1.29-.88-2.19-2.17-2.19s-2,.79-2.19,2.01c-.01.08-.09.13-.19.11l-.11-.03c-.09-.03-.13-.08-.12-.17.18-1.26,1.1-2.34,2.61-2.34s2.62,1.07,2.62,2.61c0,.88-.39,1.65-1.05,2.55l-3.54,4.75h0s4.44.01,4.44.01c.09,0,.15.06.15.15v.12c0,.09-.06.15-.15.15h-4.93c-.09,0-.15-.06-.15-.15v-.03Z"/>
      <path class="cls-2" d="M90.62,145.9c0-.08.02-.12.06-.18l3.84-5.16c.55-.75.88-1.47.88-2.22,0-1.29-.88-2.19-2.17-2.19s-2,.79-2.19,2.01c-.01.08-.09.13-.19.11l-.11-.03c-.09-.03-.13-.08-.12-.17.18-1.26,1.1-2.34,2.61-2.34s2.62,1.07,2.62,2.61c0,.88-.39,1.65-1.05,2.55l-3.54,4.75h0s4.44.01,4.44.01c.09,0,.15.06.15.15v.12c0,.09-.06.15-.15.15h-4.93c-.09,0-.15-.06-.15-.15v-.03Z"/>
      <path class="cls-2" d="M44.81,95.87c0-.25.05-.39.2-.59l12.54-16.85c1.81-2.45,2.89-4.8,2.89-7.25,0-4.21-2.89-7.15-7.1-7.15s-6.52,2.6-7.15,6.57c-.05.25-.29.44-.64.34l-.34-.1c-.29-.1-.44-.25-.39-.54.59-4.12,3.58-7.64,8.53-7.64s8.57,3.48,8.57,8.53c0,2.89-1.27,5.39-3.43,8.33l-11.56,15.53v.05h14.5c.29,0,.49.2.49.49v.39c0,.29-.2.49-.49.49h-16.12c-.29,0-.49-.2-.49-.49v-.1Z"/>
    </g>
  </g>
</svg>