<?xml version="1.0" encoding="UTF-8"?>
<svg id="Layer_2" data-name="Layer 2" xmlns="http://www.w3.org/2000/svg" viewBox="0 0 106.67 160">
  <defs>
    <style>
      .cls-1 {
        fill: #fdfffd;
        stroke: #fff;
        stroke-miterlimit: 10;
      }

      .cls-2 {
        fill: #0078ba;
        stroke-width: 0px;
      }
    </style>
  </defs>
  <g id="Layer_1-2" data-name="Layer 1">
    <g>
      <rect class="cls-2" x="0" y="0" width="106.67" height="160" rx="5" ry="5"/>
      <path class="cls-1" d="M10.75,21.98l.14-.03c.1-.03.17.01.19.1.21.78.83,1.76,2.34,1.76,1.43,0,2.31-1.02,2.31-2.43s-.92-2.43-2.33-2.43h-.46c-.09,0-.15-.06-.15-.15v-.12c0-.09.06-.15.15-.15h.46c1.26,0,2.13-.92,2.13-2.21s-.83-2.17-2.17-2.17-1.98.86-2.14,1.68c-.02.09-.09.14-.17.12l-.15-.03c-.09-.02-.13-.09-.12-.18.17-.96,1-2.01,2.58-2.01s2.62,1.09,2.62,2.59c0,1.38-.86,2.08-1.47,2.38v.03c.72.3,1.67,1.11,1.67,2.64,0,1.65-1.1,2.85-2.76,2.85-1.75,0-2.55-1.17-2.77-2.07-.03-.09,0-.15.1-.18Z"/>
      <path class="cls-1" d="M90.55,143.98l.14-.03c.1-.03.17.01.19.1.21.78.83,1.76,2.34,1.76,1.43,0,2.31-1.02,2.31-2.43s-.92-2.43-2.33-2.43h-.46c-.09,0-.15-.06-.15-.15v-.12c0-.09.06-.15.15-.15h.46c1.26,0,2.13-.92,2.13-2.21s-.83-2.17-2.17-2.17-1.98.86-2.14,1.68c-.02.09-.09.14-.17.12l-.15-.03c-.09-.01-.13-.09-.12-.18.17-.96,1-2.01,2.58-2.01s2.62,1.09,2.62,2.59c0,1.38-.86,2.08-1.47,2.38v.03c.72.3,1.67,1.11,1.67,2.64,0,1.65-1.1,2.85-2.76,2.85-1.75,0-2.55-1.17-2.77-2.07-.03-.09,0-.15.1-.18Z"/>
      <path class="cls-1" d="M44.56,89.59l.44-.1c.34-.1.54.05.64.34.69,2.55,2.69,5.73,7.64,5.73,4.65,0,7.54-3.33,7.54-7.94s-2.99-7.94-7.59-7.94h-1.52c-.29,0-.49-.2-.49-.49v-.39c0-.29.2-.49.49-.49h1.52c4.12,0,6.96-2.99,6.96-7.2s-2.7-7.1-7.1-7.1-6.47,2.79-7.01,5.49c-.05.29-.29.44-.54.39l-.49-.1c-.29-.05-.44-.29-.39-.59.54-3.14,3.28-6.57,8.43-6.57s8.57,3.58,8.57,8.48c0,4.51-2.79,6.81-4.8,7.79v.1c2.35.98,5.44,3.63,5.44,8.62,0,5.39-3.58,9.31-9.01,9.31-5.73,0-8.33-3.82-9.06-6.76-.1-.29,0-.49.34-.59Z"/>
    </g>
  </g>
</svg>