<?xml version="1.0" encoding="UTF-8"?>
<svg id="Layer_2" data-name="Layer 2" xmlns="http://www.w3.org/2000/svg" viewBox="0 0 106.67 160">
  <defs>
    <style>
      .cls-1 {
        fill: #fdfffd;
        stroke: #fff;
        stroke-miterlimit: 10;
      }

      .cls-2 {
        fill: #0078ba;
        stroke-width: 0px;
      }
    </style>
  </defs>
  <g id="Layer_1-2" data-name="Layer 1">
    <g>
      <rect class="cls-2" x="0" y="0" width="106.67" height="160" rx="5" ry="5"/>
      <path class="cls-1" d="M10.43,21.65v-.09c0-.06.01-.11.03-.15l3.33-7.41c.05-.09.09-.12.2-.12h.18c.11,0,.12.06.09.13l-3.29,7.35h0s3.5.01,3.5.01c.06,0,.09-.03.09-.09v-2.91c0-.09.06-.15.15-.15h.15c.09,0,.15.06.15.15v2.91c0,.06.03.09.09.09h1.27c.09,0,.15.06.15.15v.12c0,.09-.06.15-.15.15h-1.27c-.06,0-.09.03-.09.09v2.04c0,.09-.06.15-.15.15h-.15c-.09,0-.15-.06-.15-.15v-2.04c0-.06-.03-.09-.09-.09h-3.88c-.09,0-.15-.06-.15-.15Z"/>
      <path class="cls-1" d="M90.23,143.65v-.09c0-.06.01-.11.03-.15l3.33-7.41c.05-.09.09-.12.2-.12h.18c.11,0,.12.06.09.13l-3.29,7.35h0s3.5.01,3.5.01c.06,0,.09-.03.09-.09v-2.91c0-.09.06-.15.15-.15h.15c.09,0,.15.06.15.15v2.91c0,.06.03.09.09.09h1.27c.09,0,.15.06.15.15v.12c0,.09-.06.15-.15.15h-1.27c-.06,0-.09.03-.09.09v2.04c0,.09-.06.15-.15.15h-.15c-.09,0-.15-.06-.15-.15v-2.04c0-.06-.03-.09-.09-.09h-3.88c-.09,0-.15-.06-.15-.15Z"/>
      <path class="cls-1" d="M43.53,88.52v-.29c0-.2.05-.34.1-.49l10.88-24.2c.15-.29.29-.39.64-.39h.59c.34,0,.39.2.29.44l-10.73,24.01v.05h11.42c.2,0,.29-.1.29-.29v-9.5c0-.29.2-.49.49-.49h.49c.29,0,.49.2.49.49v9.5c0,.2.1.29.29.29h4.17c.29,0,.49.2.49.49v.39c0,.29-.2.49-.49.49h-4.17c-.2,0-.29.1-.29.29v6.66c0,.29-.2.49-.49.49h-.49c-.29,0-.49-.2-.49-.49v-6.66c0-.2-.1-.29-.29-.29h-12.69c-.29,0-.49-.2-.49-.49Z"/>
    </g>
  </g>
</svg>