<?xml version="1.0" encoding="UTF-8"?>
<svg id="Layer_2" data-name="Layer 2" xmlns="http://www.w3.org/2000/svg" viewBox="0 0 106.67 160">
  <defs>
    <style>
      .cls-1 {
        fill: #fdfffd;
        stroke: #fff;
        stroke-miterlimit: 10;
      }

      .cls-2 {
        fill: #ffd136;
        stroke-width: 0px;
      }
    </style>
  </defs>
  <g id="Layer_1-2" data-name="Layer 1">
    <g>
      <rect class="cls-2" x="0" y="0" width="106.67" height="160" rx="5" ry="5"/>
      <path class="cls-1" d="M11.23,18.91l2.47-4.9c.04-.09.09-.12.2-.12h.18c.11,0,.12.07.09.13l-2.31,4.59h.03c.3-.27.85-.46,1.54-.46,1.69,0,2.86,1.23,2.86,3.04s-1.17,3.04-2.86,3.04-2.87-1.23-2.87-3.04c0-.81.3-1.58.66-2.28ZM13.43,23.81c1.42,0,2.42-1.08,2.42-2.62s-.99-2.62-2.42-2.62-2.42,1.08-2.42,2.62.99,2.62,2.42,2.62Z"/>
      <path class="cls-1" d="M91.03,140.91l2.47-4.91c.04-.09.09-.12.2-.12h.18c.11,0,.12.07.09.13l-2.31,4.59h.03c.3-.27.85-.46,1.54-.46,1.69,0,2.86,1.23,2.86,3.04s-1.17,3.04-2.86,3.04-2.87-1.23-2.87-3.04c0-.81.3-1.58.66-2.28ZM93.23,145.81c1.42,0,2.42-1.08,2.42-2.62s-.99-2.62-2.42-2.62-2.42,1.08-2.42,2.62.99,2.62,2.42,2.62Z"/>
      <path class="cls-1" d="M46.13,79.55l8.08-16.02c.15-.29.29-.39.64-.39h.59c.34,0,.39.25.29.44l-7.54,14.99.1.05c.98-.93,2.79-1.57,5.05-1.57,5.54,0,9.36,4.02,9.36,9.95s-3.82,9.95-9.36,9.95-9.36-4.02-9.36-9.95c0-2.65.98-5.14,2.16-7.45ZM53.33,95.57c4.65,0,7.89-3.53,7.89-8.57s-3.23-8.57-7.89-8.57-7.89,3.53-7.89,8.57,3.23,8.57,7.89,8.57Z"/>
    </g>
  </g>
</svg>