<?xml version="1.0" encoding="UTF-8"?>
<svg id="Layer_2" data-name="Layer 2" xmlns="http://www.w3.org/2000/svg" viewBox="0 0 161.28 185.79">
  <defs>
    <style>
      .cls-1, .cls-2, .cls-3, .cls-4, .cls-5, .cls-6 {
        stroke-width: 0px;
      }

      .cls-2 {
        fill: #83c040;
      }

      .cls-7 {
        fill: #fdfffd;
        stroke: #fff;
        stroke-miterlimit: 10;
      }

      .cls-3 {
        fill: #da3e25;
      }

      .cls-4 {
        fill: #fff;
      }

      .cls-5 {
        fill: #0078ba;
      }

      .cls-6 {
        fill: #ffd136;
      }
    </style>
  </defs>
  <g id="Layer_1-2" data-name="Layer 1">
    <g>
      <g>
        <rect class="cls-3" x="23.21" y="12.18" width="106.67" height="160" rx="5" ry="5" transform="translate(-27.44 32.65) rotate(-20.51)"/>
        <g>
          <path class="cls-7" d="M14.36,51.62c-.02-.06-.06-.07-.12-.05l-2.26.85c-.08.03-.16,0-.19-.09l-.04-.11c-.03-.08,0-.16.09-.19l2.26-.85c.06-.02.07-.06.05-.12l-.85-2.28c-.03-.08,0-.16.09-.19l.14-.05c.08-.03.16,0,.19.09l.85,2.28c.02.06.06.07.12.05l2.26-.85c.08-.03.16,0,.19.09l.04.11c.03.08,0,.16-.09.19l-2.26.85c-.06.02-.07.06-.05.12l.85,2.28c.03.08,0,.16-.09.19l-.14.05c-.08.03-.16,0-.19-.09l-.85-2.28Z"/>
          <path class="cls-7" d="M20.82,53.11c-.03-.07-.03-.12,0-.19l1.79-6.18c.26-.9.31-1.69.05-2.39-.45-1.21-1.59-1.74-2.8-1.29-1.18.44-1.59,1.44-1.35,2.65.01.08-.04.16-.15.17h-.11c-.1.01-.15-.02-.17-.1-.27-1.24.21-2.58,1.62-3.11,1.45-.54,2.83.08,3.37,1.53.31.83.21,1.68-.09,2.76l-1.65,5.69h0s4.16-1.54,4.16-1.54c.08-.03.16,0,.19.09l.04.11c.03.08,0,.16-.09.19l-4.62,1.73c-.08.03-.16,0-.19-.09v-.03Z"/>
        </g>
        <g>
          <path class="cls-7" d="M131.85,137.93c-.02-.06-.06-.07-.12-.05l-2.26.85c-.08.03-.16,0-.19-.09l-.04-.11c-.03-.08,0-.16.09-.19l2.26-.85c.06-.02.07-.06.05-.12l-.85-2.28c-.03-.08,0-.16.09-.19l.14-.05c.08-.03.16,0,.19.09l.85,2.28c.02.06.06.07.12.05l2.26-.85c.08-.03.16,0,.19.09l.04.11c.03.08,0,.16-.09.19l-2.26.85c-.06.02-.07.06-.05.12l.85,2.28c.03.08,0,.16-.09.19l-.14.05c-.08.03-.16,0-.19-.09l-.85-2.28Z"/>
          <path class="cls-7" d="M138.3,139.42c-.03-.07-.03-.12,0-.19l1.79-6.18c.26-.9.31-1.69.05-2.39-.45-1.21-1.6-1.74-2.8-1.29-1.18.44-1.59,1.44-1.35,2.65.01.08-.04.16-.14.17h-.11c-.09.01-.15-.01-.17-.1-.27-1.24.21-2.58,1.63-3.11,1.45-.54,2.83.08,3.37,1.53.31.83.21,1.68-.09,2.75l-1.65,5.69h0s4.16-1.54,4.16-1.54c.08-.03.16,0,.19.09l.04.11c.03.09,0,.16-.09.19l-4.62,1.73c-.08.03-.16,0-.2-.09v-.03Z"/>
        </g>
        <g>
          <path class="cls-4" d="M75.91,95.06c-.35,0-.7-.08-1.03-.22-.61-.28-1.07-.77-1.3-1.39l-7.19-19.22c-.48-1.29.18-2.73,1.46-3.21l11.16-4.17c.62-.23,1.3-.21,1.91.07.61.28,1.07.77,1.3,1.39l7.19,19.22c.23.62.21,1.3-.07,1.91-.28.61-.77,1.07-1.39,1.3l-11.16,4.17c-.28.11-.58.16-.87.16ZM79.89,68.19c-.12,0-.23.02-.35.06l-11.16,4.17c-.51.19-.77.76-.58,1.28l7.19,19.22c.19.51.77.77,1.28.58l11.16-4.17c.25-.09.44-.28.55-.52.11-.24.12-.51.03-.76l-7.19-19.22c-.09-.25-.28-.44-.52-.55-.13-.06-.27-.09-.41-.09Z"/>
          <path class="cls-4" d="M73.19,117.64c-.35,0-.7-.08-1.03-.22-.61-.28-1.07-.77-1.3-1.4l-7.19-19.22c-.23-.62-.21-1.3.07-1.91.28-.61.77-1.07,1.39-1.3l11.16-4.17c.62-.23,1.3-.21,1.91.07.61.28,1.07.77,1.3,1.4l7.19,19.22c.23.62.21,1.3-.07,1.91-.28.61-.77,1.07-1.39,1.3l-11.16,4.17c-.28.11-.58.16-.87.16ZM77.16,90.76c-.12,0-.23.02-.35.06l-11.16,4.17c-.25.09-.44.28-.55.52-.11.24-.12.51-.03.76l7.19,19.22c.09.25.28.44.52.55.24.11.51.12.76.03l11.16-4.17c.25-.09.44-.28.55-.52.11-.24.12-.51.03-.76l-7.19-19.22c-.09-.25-.28-.45-.52-.55-.13-.06-.27-.09-.41-.09Z"/>
        </g>
      </g>
      <g>
        <rect class="cls-5" x="39.53" y="17.58" width="106.67" height="160" rx="5" ry="5" transform="translate(-15.88 18.08) rotate(-10.25)"/>
        <path class="cls-7" d="M44.38,44.69h-.03c-.24.32-.76.62-1.44.74-1.67.3-3.04-.7-3.36-2.49-.32-1.79.61-3.21,2.28-3.51s3.04.7,3.36,2.49c.14.8-.01,1.6-.24,2.36l-1.56,5.27c-.03.1-.07.13-.17.15l-.18.03c-.1.02-.13-.05-.11-.12l1.46-4.93ZM44.75,42c-.28-1.52-1.44-2.41-2.84-2.15-1.4.25-2.18,1.49-1.91,3.01.27,1.52,1.44,2.41,2.84,2.15,1.4-.25,2.18-1.49,1.91-3.01Z"/>
        <path class="cls-7" d="M144.62,150.54h-.03c-.24.32-.76.62-1.43.74-1.67.3-3.04-.7-3.36-2.49-.32-1.79.61-3.21,2.28-3.51s3.04.7,3.36,2.49c.14.8-.01,1.6-.24,2.36l-1.56,5.27c-.03.1-.07.13-.17.15l-.18.03c-.1.02-.13-.05-.11-.12l1.46-4.93ZM144.99,147.85c-.27-1.52-1.44-2.41-2.84-2.15-1.4.25-2.18,1.49-1.91,3.01.27,1.52,1.44,2.41,2.84,2.15,1.4-.25,2.19-1.49,1.91-3.01Z"/>
        <path class="cls-7" d="M98.13,97.64l-.1-.03c-.8,1.09-2.47,2.04-4.69,2.44-5.45.99-9.92-2.29-10.98-8.12-1.05-5.83,1.99-10.47,7.44-11.45,5.45-.98,9.92,2.29,10.98,8.12.47,2.6-.05,5.24-.8,7.71l-5.1,17.21c-.09.32-.22.44-.56.5l-.58.1c-.34.06-.43-.17-.37-.38l4.76-16.09ZM99.33,88.85c-.9-4.96-4.71-7.86-9.29-7.03s-7.14,4.88-6.24,9.84c.9,4.97,4.71,7.86,9.29,7.03s7.14-4.87,6.24-9.84Z"/>
      </g>
      <rect class="cls-1" x="54.61" y="25.79" width="106.67" height="160" rx="5" ry="5"/>
      <g>
        <path class="cls-6" d="M68.86,105.79h-1.5c0-22.37,18.21-40.57,40.59-40.57v1.5c-21.55,0-39.09,17.53-39.09,39.07Z"/>
        <path class="cls-2" d="M148.52,105.79h-1.5c0-21.54-17.53-39.07-39.07-39.07v-1.5c22.37,0,40.57,18.2,40.57,40.57Z"/>
        <path class="cls-3" d="M107.95,146.36v-1.5c21.54,0,39.07-17.53,39.07-39.07h1.5c0,22.37-18.2,40.57-40.57,40.57Z"/>
        <path class="cls-5" d="M107.95,146.36c-22.38,0-40.59-18.2-40.59-40.57h1.5c0,21.54,17.54,39.07,39.09,39.07v1.5Z"/>
      </g>
      <g>
        <path class="cls-7" d="M91.62,117.15c-.13.03-.21-.02-.28-.16l-6.59-12.14h-.04s-.77,13.81-.77,13.81c0,.16-.06.24-.19.27l-.3.07c-.13.03-.23-.04-.28-.16l-6.6-13.38c-.08-.14-.03-.24.12-.28l.24-.05c.19-.04.27-.01.35.15l6.07,12.41h.04s.67-13.94.67-13.94c0-.16.06-.24.21-.27l.28-.06c.15-.03.23.02.31.16l6.63,12.29h.04s.11-13.82.11-13.82c0-.18.06-.24.25-.28l.24-.05c.15-.03.23.04.22.2l-.22,14.91c0,.13-.06.24-.19.27l-.3.07Z"/>
        <path class="cls-7" d="M104.39,114.27c-.13.03-.23-.04-.26-.17l-.28-1.22h-.02c-.16,1.01-1.13,2-2.91,2.4-2.12.48-3.65-.28-4.08-2.19-.44-1.93.67-3.22,3.12-3.77l2.81-.63c.09-.02.12-.07.1-.16l-.3-1.31c-.44-1.93-1.21-2.55-3.44-2.04-1.37.31-2.06.78-2.48,1.42-.08.13-.19.16-.29.11l-.18-.09c-.15-.08-.16-.19-.09-.3.48-.79,1.42-1.4,2.9-1.74,2.45-.55,3.65-.01,4.22,2.5l1.55,6.89c.03.13-.04.23-.17.26l-.21.05ZM103.5,111.31l-.44-1.93c-.02-.09-.07-.12-.16-.1l-2.77.62c-2.23.5-3,1.49-2.66,3.04.34,1.5,1.56,2.13,3.39,1.72,1.89-.43,2.97-1.82,2.63-3.34Z"/>
        <path class="cls-7" d="M112.75,97.74v-.06s-6.05,1.36-6.05,1.36c-.09.02-.12.07-.1.16l.49,2.17c.03.13-.04.23-.17.26l-.22.05c-.13.03-.23-.04-.26-.17l-.6-2.68c-.03-.13.04-.23.17-.26l7.06-1.59c.13-.03.23.04.26.17l.07.3c.02.09.01.16,0,.23l-2.33,14.89c-.03.17-.06.22-.24.26l-.26.06c-.13.03-.19-.05-.16-.21l2.32-14.91Z"/>
        <path class="cls-7" d="M119.41,108.36c-.33-.56-.59-1.22-.91-2.64-.31-1.4-.37-2.15-.31-2.77.18-1.82,1.29-3,3.03-3.39s3.24.17,4.19,1.76c.32.54.58,1.18.87,2.46.03.13-.04.23-.19.27l-6.8,1.53c-.09.02-.12.09-.1.18.26,1.14.48,1.72.78,2.24.86,1.43,2.13,1.87,3.64,1.53,1.42-.32,2.31-1.17,2.74-2.17.06-.13.17-.17.29-.11l.15.08c.13.06.15.17.09.3-.48,1.17-1.52,2.15-3.13,2.51-1.89.43-3.37-.16-4.32-1.78ZM125.41,103.58c.09-.02.12-.07.1-.16-.17-.73-.38-1.27-.64-1.73-.81-1.37-2.04-1.86-3.53-1.53-1.48.33-2.39,1.3-2.53,2.89-.04.53,0,1.11.17,1.84.02.09.07.12.16.1l6.27-1.41Z"/>
        <path class="cls-7" d="M137.65,106.77c-.13.03-.23-.04-.26-.17l-.33-1.48h-.02c-.25,1.21-.99,2.23-2.81,2.65s-3.12-.15-4-1.65c-.47-.79-.78-1.76-1.01-2.79s-.37-2.04-.28-2.96c.15-1.73,1.08-2.79,2.91-3.2s2.93.2,3.67,1.18h.02s-1.33-5.91-1.33-5.91c-.03-.13.04-.23.17-.26l.21-.05c.13-.03.23.04.26.17l3.19,14.17c.03.13-.04.23-.17.26l-.21.05ZM136.61,104.46c.06-.64-.05-1.52-.32-2.72-.27-1.2-.55-2.04-.88-2.6-.76-1.27-1.98-1.69-3.4-1.38-1.48.33-2.3,1.29-2.44,2.69-.07.78.07,1.83.28,2.73s.52,1.91.92,2.59c.73,1.21,1.88,1.72,3.36,1.39,1.42-.32,2.34-1.23,2.48-2.7Z"/>
      </g>
    </g>
  </g>
</svg>