<?xml version="1.0" encoding="UTF-8"?>
<svg id="Layer_2" data-name="Layer 2" xmlns="http://www.w3.org/2000/svg" viewBox="0 0 106.67 160">
  <defs>
    <style>
      .cls-1, .cls-2, .cls-3, .cls-4, .cls-5 {
        stroke-width: 0px;
      }

      .cls-2 {
        fill: #83c040;
      }

      .cls-6 {
        fill: #fdfffd;
        stroke: #fff;
        stroke-miterlimit: 10;
      }

      .cls-3 {
        fill: #da3e25;
      }

      .cls-4 {
        fill: #0078ba;
      }

      .cls-5 {
        fill: #ffd136;
      }
    </style>
  </defs>
  <g id="Layer_1-2" data-name="Layer 1">
    <g>
      <rect class="cls-1" x="0" y="0" width="106.67" height="160" rx="5" ry="5"/>
      <g>
        <path class="cls-5" d="M14.25,80h-1.5c0-22.37,18.21-40.57,40.59-40.57v1.5c-21.55,0-39.09,17.53-39.09,39.07Z"/>
        <path class="cls-2" d="M93.91,80h-1.5c0-21.54-17.53-39.07-39.07-39.07v-1.5c22.37,0,40.57,18.2,40.57,40.57Z"/>
        <path class="cls-3" d="M53.34,120.57v-1.5c21.54,0,39.07-17.53,39.07-39.07h1.5c0,22.37-18.2,40.57-40.57,40.57Z"/>
        <path class="cls-4" d="M53.34,120.57c-22.38,0-40.59-18.2-40.59-40.57h1.5c0,21.54,17.54,39.07,39.09,39.07v1.5Z"/>
      </g>
      <g>
        <path class="cls-6" d="M37.01,91.35c-.13.03-.21-.02-.28-.16l-6.59-12.14h-.04s-.77,13.81-.77,13.81c0,.16-.06.24-.19.27l-.3.07c-.13.03-.23-.04-.28-.16l-6.6-13.38c-.08-.14-.03-.24.12-.28l.24-.05c.19-.04.27-.01.35.15l6.07,12.41h.04s.67-13.94.67-13.94c0-.16.06-.24.21-.27l.28-.06c.15-.03.23.02.31.16l6.63,12.29h.04s.11-13.82.11-13.82c0-.18.06-.24.25-.28l.24-.05c.15-.03.23.04.22.2l-.22,14.91c0,.13-.06.24-.19.27l-.3.07Z"/>
        <path class="cls-6" d="M49.78,88.48c-.13.03-.23-.04-.26-.17l-.28-1.22h-.02c-.16,1.01-1.13,2-2.91,2.4-2.12.48-3.65-.28-4.08-2.19-.44-1.93.67-3.22,3.12-3.77l2.81-.63c.09-.02.12-.07.1-.16l-.3-1.31c-.44-1.93-1.21-2.55-3.44-2.04-1.37.31-2.06.78-2.48,1.42-.08.13-.19.16-.29.11l-.18-.09c-.15-.08-.16-.19-.09-.3.48-.79,1.42-1.4,2.9-1.74,2.45-.55,3.65-.01,4.22,2.5l1.55,6.89c.03.13-.04.23-.17.26l-.21.05ZM48.89,85.52l-.44-1.93c-.02-.09-.07-.12-.16-.1l-2.77.62c-2.23.5-3,1.49-2.66,3.04.34,1.5,1.56,2.13,3.39,1.72,1.89-.43,2.97-1.82,2.63-3.34Z"/>
        <path class="cls-6" d="M58.14,71.95v-.06s-6.05,1.36-6.05,1.36c-.09.02-.12.07-.1.16l.49,2.17c.03.13-.04.23-.17.26l-.22.05c-.13.03-.23-.04-.26-.17l-.6-2.68c-.03-.13.04-.23.17-.26l7.06-1.59c.13-.03.23.04.26.17l.07.3c.02.09.01.16,0,.23l-2.33,14.89c-.03.17-.06.22-.24.26l-.26.06c-.13.03-.19-.05-.16-.21l2.32-14.91Z"/>
        <path class="cls-6" d="M64.79,82.57c-.33-.56-.59-1.22-.91-2.64-.31-1.4-.37-2.15-.31-2.77.18-1.82,1.29-3,3.03-3.39s3.24.17,4.19,1.76c.32.54.58,1.18.87,2.46.03.13-.04.23-.19.27l-6.8,1.53c-.09.02-.12.09-.1.18.26,1.14.48,1.72.78,2.24.86,1.43,2.13,1.87,3.64,1.53,1.42-.32,2.31-1.17,2.74-2.17.06-.13.17-.17.29-.11l.15.08c.13.06.15.17.09.3-.48,1.17-1.52,2.15-3.13,2.51-1.89.43-3.37-.16-4.32-1.78ZM70.8,77.78c.09-.02.12-.07.1-.16-.17-.73-.38-1.27-.64-1.73-.81-1.37-2.04-1.86-3.53-1.53-1.48.33-2.39,1.3-2.53,2.89-.04.53,0,1.11.17,1.84.02.09.07.12.16.1l6.27-1.41Z"/>
        <path class="cls-6" d="M83.04,80.98c-.13.03-.23-.04-.26-.17l-.33-1.48h-.02c-.25,1.21-.99,2.23-2.81,2.65s-3.12-.15-4-1.65c-.47-.79-.78-1.76-1.01-2.79s-.37-2.04-.28-2.96c.15-1.73,1.08-2.79,2.91-3.2s2.93.2,3.67,1.18h.02s-1.33-5.91-1.33-5.91c-.03-.13.04-.23.17-.26l.21-.05c.13-.03.23.04.26.17l3.19,14.17c.03.13-.04.23-.17.26l-.21.05ZM82,78.66c.06-.64-.05-1.52-.32-2.72-.27-1.2-.55-2.04-.88-2.6-.76-1.27-1.98-1.69-3.4-1.38-1.48.33-2.3,1.29-2.44,2.69-.07.78.07,1.83.28,2.73s.52,1.91.92,2.59c.73,1.21,1.88,1.72,3.36,1.39,1.42-.32,2.34-1.23,2.48-2.7Z"/>
      </g>
    </g>
  </g>
</svg>