<?xml version="1.0" encoding="UTF-8"?>
<svg id="Layer_2" xmlns="http://www.w3.org/2000/svg" viewBox="0 0 106.67 160">
  <defs>
    <style>
      .cls-1 {
        fill: #ffd136;
      }

      .cls-2 {
        fill: #fff;
      }

      .cls-3 {
        fill: #fdfffd;
        stroke: #fff;
        stroke-miterlimit: 10;
      }

      .cls-4 {
        fill: #0078ba;
      }

      .cls-5 {
        fill: #da3e25;
      }

      .cls-6 {
        fill: #83c040;
      }
    </style>
  </defs>
  <g id="Layer_1-2" data-name="Layer_1">
    <g>
      <rect class="cls-1" x="0" y="0" width="106.67" height="160" rx="5" ry="5"/>
      <g>
        <path class="cls-3" d="M9.25,20.26c0-.06-.03-.09-.09-.09h-2.42c-.09,0-.15-.06-.15-.15v-.12c0-.09.06-.15.15-.15h2.42c.06,0,.09-.03.09-.09v-2.43c0-.09.06-.15.15-.15h.15c.09,0,.15.06.15.15v2.43c0,.06.03.09.09.09h2.42c.09,0,.15.06.15.15v.12c0,.09-.06.15-.15.15h-2.42c-.06,0-.09.03-.09.09v2.43c0,.09-.06.15-.15.15h-.15c-.09,0-.15-.06-.15-.15v-2.43Z"/>
        <path class="cls-3" d="M14.38,21.67v-.09c0-.06.01-.11.03-.15l3.33-7.41c.05-.09.09-.12.2-.12h.18c.11,0,.12.06.09.13l-3.29,7.35h0s3.5.01,3.5.01c.06,0,.09-.03.09-.09v-2.91c0-.09.06-.15.15-.15h.15c.09,0,.15.06.15.15v2.91c0,.06.03.09.09.09h1.27c.09,0,.15.06.15.15v.12c0,.09-.06.15-.15.15h-1.27c-.06,0-.09.03-.09.09v2.04c0,.09-.06.15-.15.15h-.15c-.09,0-.15-.06-.15-.15v-2.04c0-.06-.03-.09-.09-.09h-3.88c-.09,0-.15-.06-.15-.15Z"/>
      </g>
      <g>
        <path class="cls-3" d="M89.05,142.26c0-.06-.03-.09-.09-.09h-2.42c-.09,0-.15-.06-.15-.15v-.12c0-.09.06-.15.15-.15h2.42c.06,0,.09-.03.09-.09v-2.43c0-.09.06-.15.15-.15h.15c.09,0,.15.06.15.15v2.43c0,.06.03.09.09.09h2.42c.09,0,.15.06.15.15v.12c0,.09-.06.15-.15.15h-2.42c-.06,0-.09.03-.09.09v2.43c0,.09-.06.15-.15.15h-.15c-.09,0-.15-.06-.15-.15v-2.43Z"/>
        <path class="cls-3" d="M94.18,143.67v-.09c0-.06.01-.11.03-.15l3.33-7.41c.04-.09.09-.12.2-.12h.18c.11,0,.12.06.09.13l-3.29,7.35h0s3.5.01,3.5.01c.06,0,.09-.03.09-.09v-2.91c0-.09.06-.15.15-.15h.15c.09,0,.15.06.15.15v2.91c0,.06.03.09.09.09h1.27c.09,0,.15.06.15.15v.12c0,.09-.06.15-.15.15h-1.27c-.06,0-.09.03-.09.09v2.04c0,.09-.06.15-.15.15h-.15c-.09,0-.15-.06-.15-.15v-2.04c0-.06-.03-.09-.09-.09h-3.88c-.09,0-.15-.06-.15-.15Z"/>
      </g>
      <g>
        <path class="cls-2" d="M43.6,107.89h-11.92c-1.37,0-2.49-1.12-2.49-2.49v-20.52c0-.59.21-1.14.59-1.59.42-.55,1.14-.9,1.9-.9h11.92c1.37,0,2.49,1.12,2.49,2.49v20.52c0,.59-.21,1.14-.59,1.59-.42.55-1.14.9-1.9.9ZM31.68,83.89c-.29,0-.57.13-.74.35-.18.21-.25.42-.25.64v20.52c0,.55.44.99.99.99h11.92c.29,0,.57-.13.74-.35.18-.21.25-.42.25-.64v-20.52c0-.55-.44-.99-.99-.99h-11.92Z"/>
        <path class="cls-5" d="M54.06,87.7h-11.92c-1.37,0-2.49-1.12-2.49-2.49v-20.52c0-.59.21-1.14.59-1.59.42-.55,1.14-.9,1.9-.9h11.92c1.37,0,2.49,1.12,2.49,2.49v20.52c0,.59-.21,1.14-.59,1.59-.42.55-1.14.9-1.9.9ZM42.14,63.7c-.29,0-.57.13-.74.35-.18.21-.25.42-.25.64v20.52c0,.55.44.99.99.99h11.92c.29,0,.57-.13.74-.35.18-.21.25-.42.25-.64v-20.52c0-.55-.44-.99-.99-.99h-11.92Z"/>
        <path class="cls-6" d="M64.52,97.8h-11.92c-1.37,0-2.49-1.12-2.49-2.49v-20.52c0-.58.21-1.15.59-1.59.42-.55,1.14-.9,1.9-.9h11.92c1.37,0,2.49,1.12,2.49,2.49v20.52c0,.59-.21,1.14-.59,1.59-.42.55-1.14.9-1.9.9ZM52.6,73.8c-.29,0-.57.13-.74.35-.18.21-.25.42-.25.64v20.52c0,.55.44.99.99.99h11.92c.29,0,.57-.13.74-.35.18-.21.25-.42.25-.64v-20.52c0-.55-.44-.99-.99-.99h-11.92Z"/>
        <path class="cls-4" d="M74.98,77.61h-11.92c-1.37,0-2.49-1.12-2.49-2.49v-20.52c0-.58.21-1.15.59-1.59.42-.55,1.14-.9,1.9-.9h11.92c1.37,0,2.49,1.12,2.49,2.49v20.52c0,.59-.21,1.14-.59,1.59-.42.55-1.14.9-1.9.9ZM63.06,53.61c-.29,0-.57.13-.74.35-.18.21-.25.42-.25.64v20.52c0,.55.44.99.99.99h11.92c.29,0,.57-.13.74-.35.18-.21.25-.42.25-.64v-20.52c0-.55-.44-.99-.99-.99h-11.92Z"/>
      </g>
    </g>
  </g>
</svg>