<?xml version="1.0" encoding="UTF-8"?>
<svg id="Layer_2" data-name="Layer 2" xmlns="http://www.w3.org/2000/svg" viewBox="0 0 106.67 160">
  <defs>
    <style>
      .cls-1 {
        fill: #83c040;
      }

      .cls-1, .cls-2 {
        stroke-width: 0px;
      }

      .cls-2 {
        fill: #fff;
      }
    </style>
  </defs>
  <g id="Layer_1-2" data-name="Layer 1">
    <g>
      <rect class="cls-1" x="0" y="0" width="106.67" height="160" rx="5" ry="5"/>
      <g>
        <path class="cls-2" d="M53.33,101.83c-12.04,0-21.83-9.79-21.83-21.83s9.79-21.83,21.83-21.83,21.83,9.79,21.83,21.83-9.79,21.83-21.83,21.83ZM53.33,59.67c-11.21,0-20.33,9.12-20.33,20.33s9.12,20.33,20.33,20.33,20.33-9.12,20.33-20.33-9.12-20.33-20.33-20.33Z"/>
        <rect class="cls-2" x="32.25" y="79.25" width="42.16" height="1.5" transform="translate(-40.95 61.14) rotate(-45)"/>
      </g>
      <g>
        <path class="cls-2" d="M13.43,27.4c-4.64,0-8.42-3.78-8.42-8.42s3.78-8.42,8.42-8.42,8.42,3.78,8.42,8.42-3.78,8.42-8.42,8.42ZM13.43,11.56c-4.09,0-7.42,3.33-7.42,7.42s3.33,7.42,7.42,7.42,7.42-3.33,7.42-7.42-3.33-7.42-7.42-7.42Z"/>
        <rect class="cls-2" x="5.51" y="18.48" width="15.84" height="1" transform="translate(-9.49 15.06) rotate(-45)"/>
      </g>
      <g>
        <path class="cls-2" d="M93.23,149.44c-4.64,0-8.42-3.78-8.42-8.42s3.78-8.42,8.42-8.42,8.42,3.78,8.42,8.42-3.78,8.42-8.42,8.42ZM93.23,133.6c-4.09,0-7.42,3.33-7.42,7.42s3.33,7.42,7.42,7.42,7.42-3.33,7.42-7.42-3.33-7.42-7.42-7.42Z"/>
        <rect class="cls-2" x="85.31" y="140.52" width="15.84" height="1" transform="translate(-72.41 107.23) rotate(-45)"/>
      </g>
    </g>
  </g>
</svg>