<?xml version="1.0" encoding="UTF-8"?>
<svg id="Layer_2" xmlns="http://www.w3.org/2000/svg" viewBox="0 0 106.67 160">
  <defs>
    <style>
      .cls-1 {
        fill: #ffd136;
      }

      .cls-2 {
        fill: #fff;
      }

      .cls-3 {
        fill: #0078ba;
      }

      .cls-4 {
        fill: #da3e25;
      }

      .cls-5 {
        fill: #83c040;
      }
    </style>
  </defs>
  <g id="Layer_1-2" data-name="Layer_1">
    <g>
      <rect class="cls-1" x="0" y="0" width="106.67" height="160" rx="5" ry="5"/>
      <g>
        <g>
          <path class="cls-4" d="M53.11,94c-.12,0-.24-.03-.35-.08l-14.75-7.67c-.25-.13-.41-.39-.4-.67s.16-.54.42-.67l5.9-2.95c.37-.19.82-.04,1.01.34.19.37.04.82-.34,1.01l-4.58,2.29,13.09,6.81,13.09-6.81-4.58-2.29c-.37-.19-.52-.64-.34-1.01.19-.37.64-.52,1.01-.34l5.9,2.95c.25.13.41.38.42.67s-.15.54-.4.67l-14.75,7.67c-.11.06-.23.08-.35.08Z"/>
          <path class="cls-5" d="M53.11,105.67c-.12,0-.24-.03-.35-.08l-14.75-7.67c-.37-.19-.51-.64-.32-1.01.19-.37.64-.51,1.01-.32l14.4,7.49,14.4-7.49c.37-.19.82-.05,1.01.32.19.37.05.82-.32,1.01l-14.75,7.67c-.11.06-.23.08-.35.08Z"/>
          <path class="cls-2" d="M53.11,100.03c-.12,0-.24-.03-.35-.08l-14.75-7.67c-.37-.19-.51-.64-.32-1.01.19-.37.64-.51,1.01-.32l14.4,7.49,14.4-7.49c.37-.19.82-.05,1.01.32.19.37.05.82-.32,1.01l-14.75,7.67c-.11.06-.23.08-.35.08Z"/>
          <path class="cls-3" d="M53.11,80.02c-.12,0-.24-.03-.35-.08l-14.75-7.67c-.25-.13-.41-.39-.4-.67s.16-.54.42-.67l5.9-2.95c.37-.19.82-.04,1.01.34.19.37.04.82-.34,1.01l-4.58,2.29,13.09,6.81,13.09-6.81-4.58-2.29c-.37-.19-.52-.64-.34-1.01.19-.37.64-.52,1.01-.34l5.9,2.95c.25.13.41.38.42.67s-.15.54-.4.67l-14.75,7.67c-.11.06-.23.08-.35.08Z"/>
        </g>
        <rect class="cls-2" x="52.36" y="56.86" width="1.5" height="15.33"/>
        <polygon class="cls-2" points="57.92 62.14 53.11 57.86 48.3 62.14 47.31 61.02 53.11 55.85 58.92 61.02 57.92 62.14"/>
      </g>
      <g>
        <g>
          <path class="cls-4" d="M13.43,25.35c-.08,0-.16-.02-.23-.06l-7.07-3.68c-.17-.09-.27-.26-.27-.45,0-.19.11-.36.28-.44l2.83-1.41c.25-.12.55-.02.67.22.12.25.02.55-.22.67l-1.95.97,5.97,3.1,5.97-3.1-1.95-.97c-.25-.12-.35-.42-.22-.67.12-.25.42-.35.67-.22l2.83,1.41c.17.08.27.25.28.44,0,.19-.1.36-.27.45l-7.07,3.68c-.07.04-.15.06-.23.06Z"/>
          <path class="cls-5" d="M13.43,30.95c-.08,0-.16-.02-.23-.06l-7.07-3.68c-.25-.13-.34-.43-.21-.67.13-.25.43-.34.67-.21l6.84,3.56,6.84-3.56c.24-.13.55-.03.67.21.13.25.03.55-.21.67l-7.07,3.68c-.07.04-.15.06-.23.06Z"/>
          <path class="cls-2" d="M13.43,28.24c-.08,0-.16-.02-.23-.06l-7.07-3.67c-.25-.13-.34-.43-.21-.67.13-.25.43-.34.67-.21l6.84,3.55,6.84-3.55c.24-.13.55-.03.67.21.13.25.03.55-.21.67l-7.07,3.67c-.07.04-.15.06-.23.06Z"/>
          <path class="cls-3" d="M13.43,18.65c-.08,0-.16-.02-.23-.06l-7.07-3.67c-.17-.09-.27-.26-.27-.45,0-.19.11-.36.28-.44l2.83-1.41c.25-.12.55-.02.67.22.12.25.02.55-.22.67l-1.95.98,5.97,3.1,5.97-3.1-1.95-.98c-.25-.12-.35-.42-.22-.67.12-.25.43-.35.67-.22l2.83,1.41c.17.08.27.26.28.44,0,.19-.1.36-.27.45l-7.07,3.67c-.07.04-.15.06-.23.06Z"/>
        </g>
        <rect class="cls-2" x="12.93" y="7.41" width="1" height="7.35"/>
        <polygon class="cls-2" points="11.22 10.05 10.55 9.3 13.43 6.74 16.31 9.3 15.64 10.05 13.43 8.08 11.22 10.05"/>
      </g>
      <g>
        <g>
          <path class="cls-4" d="M93.24,147.42c-.08,0-.16-.02-.23-.06l-7.07-3.68c-.17-.09-.27-.26-.27-.45,0-.19.11-.36.28-.44l2.83-1.41c.25-.12.55-.02.67.22.12.25.02.55-.22.67l-1.95.97,5.97,3.1,5.97-3.1-1.95-.97c-.25-.12-.35-.42-.22-.67.12-.25.42-.35.67-.22l2.83,1.41c.17.08.27.25.28.44,0,.19-.1.36-.27.45l-7.07,3.68c-.07.04-.15.06-.23.06Z"/>
          <path class="cls-5" d="M93.24,153.02c-.08,0-.16-.02-.23-.06l-7.07-3.68c-.25-.13-.34-.43-.21-.67.13-.25.43-.34.67-.21l6.84,3.56,6.84-3.56c.24-.12.55-.03.67.21.13.25.03.55-.21.67l-7.07,3.68c-.07.04-.15.06-.23.06Z"/>
          <path class="cls-2" d="M93.24,150.31c-.08,0-.16-.02-.23-.06l-7.07-3.68c-.25-.13-.34-.43-.21-.67.13-.25.43-.34.67-.21l6.84,3.56,6.84-3.56c.24-.13.55-.03.67.21.13.25.03.55-.21.67l-7.07,3.68c-.07.04-.15.06-.23.06Z"/>
          <path class="cls-3" d="M93.24,140.72c-.08,0-.16-.02-.23-.06l-7.07-3.67c-.17-.09-.27-.26-.27-.45,0-.19.11-.36.28-.44l2.83-1.41c.24-.12.55-.02.67.22.12.25.02.55-.22.67l-1.95.98,5.97,3.1,5.97-3.1-1.95-.98c-.25-.12-.35-.42-.22-.67.12-.25.42-.35.67-.22l2.83,1.41c.17.08.27.26.28.44,0,.19-.1.36-.27.45l-7.07,3.67c-.07.04-.15.06-.23.06Z"/>
        </g>
        <rect class="cls-2" x="92.74" y="129.48" width="1" height="7.35"/>
        <polygon class="cls-2" points="91.02 132.11 90.36 131.37 93.24 128.81 96.11 131.37 95.45 132.11 93.24 130.15 91.02 132.11"/>
      </g>
    </g>
  </g>
</svg>