<?xml version="1.0" encoding="UTF-8"?>
<svg id="Layer_2" data-name="Layer 2" xmlns="http://www.w3.org/2000/svg" viewBox="0 0 106.67 160">
  <defs>
    <style>
      .cls-1 {
        fill: #1e1e1e;
        font-family: Montserrat-SemiBold, Montserrat;
        font-size: 15.67px;
        font-variation-settings: 'wght' 600;
        font-weight: 600;
        opacity: .98;
      }

      .cls-2 {
        stroke: #1e1e1e;
        stroke-linecap: round;
        stroke-linejoin: round;
        stroke-width: 1.5px;
      }

      .cls-2, .cls-3, .cls-4 {
        fill: none;
      }

      .cls-5 {
        fill: #428bca;
        stroke: #428bca;
      }

      .cls-5, .cls-3, .cls-4, .cls-6, .cls-7, .cls-8, .cls-9 {
        stroke-miterlimit: 10;
      }

      .cls-3, .cls-9 {
        stroke: #000;
      }

      .cls-10 {
        fill: #fff;
        stroke-width: 0px;
      }

      .cls-4 {
        stroke: #fff;
        stroke-width: 2.2px;
      }

      .cls-6 {
        fill: #ebc968;
        stroke: #ebc968;
      }

      .cls-7 {
        fill: #cb666a;
        stroke: #cb666a;
      }

      .cls-8 {
        fill: #acc77e;
        stroke: #acc77e;
      }

      .cls-9 {
        fill: #282828;
      }
    </style>
  </defs>
  <g id="Layer_1-2" data-name="Layer 1">
    <g>
      <g>
        <g>
          <rect class="cls-10" x="0" y="0" width="106.67" height="160" rx="5" ry="5"/>
          <path class="cls-9" d="M103.33,8.5v113.78l-36.72,32.72H6.83c-1.92,0-3.5-1.58-3.5-3.5V37.71L40.04,5h59.79c1.93,0,3.5,1.57,3.5,3.5Z"/>
          <g>
            <path class="cls-3" d="M103.34,122.29v29.22c0,1.92-1.57,3.5-3.5,3.5h-33.22l36.72-32.72Z"/>
            <path class="cls-3" d="M6.84,5.01h33.21L3.34,37.72V8.51c0-1.93,1.58-3.5,3.5-3.5Z"/>
          </g>
          <ellipse class="cls-4" cx="53.33" cy="80" rx="74.17" ry="42.62" transform="translate(-42.06 92.03) rotate(-63.5)"/>
        </g>
        <g>
          <path class="cls-8" d="M85.33,14.4l-31.99,65.6H8.27c1.91-6.18,4.42-12.48,7.53-18.72C33.62,25.53,64.61,4.73,85.33,14.4Z"/>
          <path class="cls-5" d="M53.34,80.01l-31.99,65.59c-.2-.09-.38-.18-.58-.28C3.62,136.78-.86,109.57,8.27,80.01h45.06Z"/>
          <path class="cls-6" d="M98.38,80.01h-45.04L85.33,14.4c.2.09.38.18.57.28,17.14,8.54,21.63,35.75,12.48,65.33Z"/>
          <path class="cls-7" d="M98.38,80.01c-1.9,6.18-4.41,12.47-7.52,18.71-17.81,35.74-48.78,56.56-69.52,46.88l31.99-65.59h45.04Z"/>
        </g>
      </g>
      <g>
        <text class="cls-1" transform="translate(11.66 18.59) scale(1.1 1)"><tspan x="0" y="0">2</tspan></text>
        <path class="cls-2" d="M8.52,10.28v6.11M11.58,13.33h-6.11"/>
      </g>
      <g>
        <text class="cls-1" transform="translate(91.06 151.5) scale(1.1 1)"><tspan x="0" y="0">2</tspan></text>
        <path class="cls-2" d="M87.92,143.19v6.11M90.98,146.24h-6.11"/>
      </g>
      <g>
        <path class="cls-10" d="M52.56,104.35h-10.84c-2.36,0-4.27-1.92-4.27-4.27v-21.44c0-2.36,1.92-4.27,4.27-4.27h10.84c2.36,0,4.27,1.92,4.27,4.27v21.44c0,2.36-1.92,4.27-4.27,4.27ZM41.72,75.88c-1.52,0-2.75,1.23-2.75,2.75v21.44c0,1.52,1.23,2.75,2.75,2.75h10.84c1.52,0,2.75-1.23,2.75-2.75v-21.44c0-1.52-1.23-2.75-2.75-2.75h-10.84Z"/>
        <path class="cls-10" d="M64.95,81.64h-10.84c-2.36,0-4.27-1.92-4.27-4.27v-21.44c0-2.36,1.92-4.27,4.27-4.27h10.84c2.36,0,4.27,1.92,4.27,4.27v21.44c0,2.36-1.92,4.27-4.27,4.27ZM54.11,53.18c-1.52,0-2.75,1.23-2.75,2.75v21.44c0,1.52,1.23,2.75,2.75,2.75h10.84c1.52,0,2.75-1.23,2.75-2.75v-21.44c0-1.52-1.23-2.75-2.75-2.75h-10.84Z"/>
      </g>
    </g>
  </g>
</svg>