<?xml version="1.0" encoding="UTF-8"?>
<svg id="Layer_2" data-name="Layer 2" xmlns="http://www.w3.org/2000/svg" xmlns:xlink="http://www.w3.org/1999/xlink" viewBox="0 0 636.69 636.69">
  <defs>
    <style>
      .cls-1 {
        fill: #fffdbd;
        filter: url(#drop-shadow-5);
      }

      .cls-1, .cls-2, .cls-3, .cls-4, .cls-5, .cls-6, .cls-7 {
        stroke-width: 0px;
      }

      .cls-2 {
        filter: url(#drop-shadow-2);
      }

      .cls-2, .cls-4 {
        fill: #fff;
      }

      .cls-3 {
        fill: #e1e1e1;
      }

      .cls-4 {
        filter: url(#drop-shadow-1);
      }

      .cls-5 {
        filter: url(#drop-shadow-3);
      }

      .cls-5, .cls-6 {
        fill: #a3a3a3;
      }

      .cls-6 {
        filter: url(#drop-shadow-4);
      }

      .cls-7 {
        fill: none;
      }
    </style>
    <filter id="drop-shadow-1" filterUnits="userSpaceOnUse">
      <feOffset dx="7" dy="7"/>
      <feGaussianBlur result="blur" stdDeviation="7"/>
      <feFlood flood-color="#000" flood-opacity=".45"/>
      <feComposite in2="blur" operator="in"/>
      <feComposite in="SourceGraphic"/>
    </filter>
    <filter id="drop-shadow-2" filterUnits="userSpaceOnUse">
      <feOffset dx="7" dy="7"/>
      <feGaussianBlur result="blur-2" stdDeviation="7"/>
      <feFlood flood-color="#000" flood-opacity=".45"/>
      <feComposite in2="blur-2" operator="in"/>
      <feComposite in="SourceGraphic"/>
    </filter>
    <filter id="drop-shadow-3" filterUnits="userSpaceOnUse">
      <feOffset dx="7" dy="7"/>
      <feGaussianBlur result="blur-3" stdDeviation="5"/>
      <feFlood flood-color="#000" flood-opacity=".6"/>
      <feComposite in2="blur-3" operator="in"/>
      <feComposite in="SourceGraphic"/>
    </filter>
    <filter id="drop-shadow-4" filterUnits="userSpaceOnUse">
      <feOffset dx="7" dy="7"/>
      <feGaussianBlur result="blur-4" stdDeviation="8"/>
      <feFlood flood-color="#000" flood-opacity=".4"/>
      <feComposite in2="blur-4" operator="in"/>
      <feComposite in="SourceGraphic"/>
    </filter>
    <filter id="drop-shadow-5" filterUnits="userSpaceOnUse">
      <feOffset dx="7" dy="7"/>
      <feGaussianBlur result="blur-5" stdDeviation="5"/>
      <feFlood flood-color="#000" flood-opacity=".53"/>
      <feComposite in2="blur-5" operator="in"/>
      <feComposite in="SourceGraphic"/>
    </filter>
  </defs>
  <g id="Layer_1-2" data-name="Layer 1">
    <g>
      <path class="cls-3" d="M512.85,318.35c0,68.01-34.91,127.87-87.78,162.63-30.64,20.15-67.31,31.87-106.72,31.87s-76.08-11.72-106.72-31.87c-52.87-34.76-87.78-94.62-87.78-162.63,0-107.42,87.08-194.5,194.5-194.5s194.5,87.08,194.5,194.5Z"/>
      <path class="cls-4" d="M190.36,442.6c-1.41.88-2.21,2.48-2.03,4.14.86,8.06,2.28,29.68-10.86,44.55-9.98,11.29-26.46,16.27-29.16,12.96-1.09-1.34.82-3.43,3.24-9.72,5.27-13.7,10.83-28.3,9.72-38.87-.65-6.14-3.91-13.07-6.48-12.96-3.09.14-4.36,10.5-6.48,19.44-6.29,26.56-24.37,58.74-45.35,61.55-4.72.63-11.48.04-12.96-3.24-1.3-2.89,2.35-7.36,9.72-16.2,1.7-2.04,4.16-5.06,6.86-8.4,10.85-13.42,18.11-29.39,21.06-46.38,1.74-10.05.82-18.9,3.2-32.21,7.79-43.6,20.22-54.44,36.9-65.26,14.29-9.27,31.44-9.63,35.63-9.72,5.29-.11,13.24-.2,22.68,3.24,14.52,5.3,22.7,15.37,25.92,19.44,14,17.71,18.42,42.18,12.96,45.35-3.46,2.01-9.14-5.51-12.96-3.24-5.44,3.24,4.39,19.56-3.24,32.39-4.58,7.71-13.92,11.58-16.2,9.72-1.79-1.45,1.55-5.77,0-12.96-.92-4.28-3.61-9.73-6.48-9.72-3.51.02-6.01,8.2-6.48,9.72-4.13,13.51,2.8,19.85,0,29.16-3.61,11.99-27.31,22.06-25.59,15.87,2.04-7.31,6.99-25.12,3.18-34.8-.64-1.63-.88-3.38-2.46-4.15h0c-1.35-.66-2.94-.57-4.22.22l-.14.09Z"/>
      <path class="cls-2" d="M446.33,442.6c1.41.88,2.21,2.48,2.03,4.14-.86,8.06-2.28,29.68,10.86,44.55,9.98,11.29,26.46,16.27,29.16,12.96,1.09-1.34-.82-3.43-3.24-9.72-5.27-13.7-10.83-28.3-9.72-38.87.65-6.14,3.91-13.07,6.48-12.96,3.09.14,4.36,10.5,6.48,19.44,6.29,26.56,24.37,58.74,45.35,61.55,4.72.63,11.48.04,12.96-3.24,1.3-2.89-2.35-7.36-9.72-16.2-1.7-2.04-4.16-5.06-6.86-8.4-10.85-13.42-18.11-29.39-21.06-46.38-1.74-10.05-.82-18.9-3.2-32.21-7.79-43.6-20.22-54.44-36.9-65.26-14.29-9.27-31.44-9.63-35.63-9.72-5.29-.11-13.24-.2-22.68,3.24-14.52,5.3-22.7,15.37-25.92,19.44-14,17.71-18.42,42.18-12.96,45.35,3.46,2.01,9.14-5.51,12.96-3.24,5.44,3.24-4.39,19.56,3.24,32.39,4.58,7.71,13.92,11.58,16.2,9.72,1.79-1.45-1.55-5.77,0-12.96.92-4.28,3.61-9.73,6.48-9.72,3.51.02,6.01,8.2,6.48,9.72,4.13,13.51-2.8,19.85,0,29.16,3.61,11.99,27.31,22.06,25.59,15.87-2.04-7.31-6.99-25.12-3.18-34.8.64-1.63.88-3.38,2.46-4.15h0c1.35-.66,2.94-.57,4.22.22l.14.09Z"/>
      <path class="cls-5" d="M425.07,480.98c-30.64,20.15-67.31,31.87-106.72,31.87s-76.08-11.72-106.72-31.87c26.72-28.4,64.65-46.13,106.72-46.13s80,17.73,106.72,46.13Z"/>
      <circle class="cls-7" cx="318.35" cy="318.35" r="318.35"/>
      <circle class="cls-6" cx="318.35" cy="318.35" r="89"/>
      <path class="cls-1" d="M318.35,188.35c-49.15,0-89,8.28-89,18.5s39.85,18.5,89,18.5,89-8.28,89-18.5-39.85-18.5-89-18.5ZM318.35,222.23c-40.87,0-74-6.88-74-15.38s33.13-15.38,74-15.38,74,6.88,74,15.38-33.13,15.38-74,15.38Z"/>
    </g>
  </g>
</svg>