<?xml version="1.0" encoding="UTF-8"?>
<svg id="Layer_2" xmlns="http://www.w3.org/2000/svg" xmlns:xlink="http://www.w3.org/1999/xlink" viewBox="0 0 636.69 636.69">
  <defs>
    <style>
      .cls-1, .cls-2 {
        stroke: #377985;
        stroke-miterlimit: 10;
        stroke-width: 2px;
      }

      .cls-1, .cls-3 {
        fill: #88cac8;
      }

      .cls-2, .cls-4, .cls-5 {
        fill: none;
      }

      .cls-6 {
        fill: #e1e1e1;
      }

      .cls-7 {
        fill: url(#radial-gradient);
      }

      .cls-8 {
        fill: #565455;
      }

      .cls-9 {
        fill: url(#radial-gradient-2);
      }

      .cls-10 {
        fill: #acb5be;
      }

      .cls-5 {
        stroke: #34d2d3;
        stroke-linecap: round;
        stroke-linejoin: round;
        stroke-width: 4px;
      }

      .cls-11 {
        fill: #22505f;
      }

      .cls-12 {
        fill: #faf4f4;
      }

      .cls-13 {
        fill: #353535;
      }

      .cls-14 {
        fill: #377985;
      }

      .cls-15 {
        fill: #34d2d3;
      }

      .cls-16 {
        fill: #d5527c;
      }
    </style>
    <radialGradient id="radial-gradient" cx="318.35" cy="318.35" fx="318.35" fy="318.35" r="89" gradientUnits="userSpaceOnUse">
      <stop offset="0" stop-color="#fff6ef"/>
      <stop offset="1" stop-color="#ffcecc"/>
    </radialGradient>
    <radialGradient id="radial-gradient-2" cx="318.35" cy="473.85" fx="318.35" fy="473.85" r="80.34" xlink:href="#radial-gradient"/>
  </defs>
  <g id="Layer_1-2" data-name="Layer_1">
    <g>
      <circle class="cls-4" cx="318.35" cy="318.35" r="318.35"/>
      <path class="cls-6" d="M512.85,318.35c0,68.01-34.91,127.87-87.78,162.63-30.64,20.15-67.31,31.87-106.72,31.87s-76.08-11.72-106.72-31.87c-52.87-34.76-87.78-94.62-87.78-162.63,0-107.42,87.08-194.5,194.5-194.5s194.5,87.08,194.5,194.5Z"/>
      <circle class="cls-7" cx="318.35" cy="318.35" r="89"/>
      <path class="cls-9" d="M425.07,480.98c-30.64,20.15-67.31,31.87-106.72,31.87s-76.08-11.72-106.72-31.87c26.72-28.4,64.65-46.13,106.72-46.13s80,17.73,106.72,46.13Z"/>
      <g>
        <path class="cls-14" d="M158.82,558.49s-.02.04-.04.06c-.24.36-.79.58-1.2.36-.07-.04-.14-.1-.21-.17-.05-.06-.1-.12-.15-.18,0,0,0,0,0,0h0c-1.7-2.03-3.19-4.25-4.31-6.61-1.01-2.13-1.7-4.35-1.96-6.64-.04-.42.28-.7.68-.81.09-.03.19-.04.29-.05.38-.02.74.14.79.55.42,3.79,2.1,7.44,4.42,10.67.52.72,1.06,1.42,1.64,2.1h0c.21.25.19.52.05.74Z"/>
        <path class="cls-14" d="M152.7,544.98c.14,2.31.18,4.63.2,6.96.04,3.2.05,6.4.24,9.59.02.32-.19.57-.46.72-.02.01-.04.02-.06.03-.33.16-.76.17-1.01-.01,0,0-.02-.02-.03-.03-.11-.09-.18-.21-.19-.38,0,0,0,0,0-.01-.12-2.14-.17-4.28-.2-6.43-.04-3.38-.04-6.76-.24-10.12-.02-.4.3-.69.68-.81.09-.03.19-.04.29-.05.39-.03.77.13.79.55Z"/>
        <path class="cls-14" d="M150.11,525.49s0,.08-.01.12c-.53,2.66-.89,5.33-1.08,8-.52,7.38.27,14.73,2.18,21.8.54,2,1.17,3.98,1.89,5.93.13.37-.08.7-.39.9-.02.01-.04.02-.06.03-.33.19-.76.22-1.01-.01,0,0-.02-.02-.03-.03-.05-.05-.09-.12-.13-.21-.02-.05-.04-.11-.06-.17,0,0,0,0,0-.01-.92-2.5-1.71-5.04-2.34-7.62-2.28-9.3-2.63-19.06-.72-28.68.17-.88,1.78-.87,1.78-.05Z"/>
        <path class="cls-14" d="M215.11,541.68s-.05.04-.08.05c-.34.17-.78.2-1.12-.07-.02-.02-.04-.04-.06-.05-2.07-1.69-3.95-3.53-5.62-5.5-3.25-3.84-5.78-8.15-7.46-12.7-1.42-3.82-2.23-7.81-2.39-11.87,0,0,0,0,0-.02h0c0-.46.42-.76.85-.83.02,0,.03,0,.04,0,.42-.07.84.09.86.54v.16c.11,2.38.44,4.73.98,7.05,1.74,7.29,5.61,14.18,11.36,19.73.89.87,1.83,1.7,2.82,2.5.04.03.06.06.09.08h0c.29.33.1.71-.27.92Z"/>
        <path class="cls-14" d="M208.73,550.69s-.02.03-.04.04c-.23.23-.61.36-.93.31-.02,0-.05-.02-.07-.02-.05-.02-.1-.03-.15-.05-.14-.05-.25-.15-.33-.31-.32-.62-.62-1.24-.92-1.86-.99-2.08-1.89-4.19-2.69-6.33-3.69-9.93-5.43-20.43-5.23-31.03,0-.03,0-.06,0-.09,0-.04,0-.08.01-.13.09-.37.46-.54.84-.53.02,0,.03,0,.04,0,.44.02.88.27.87.73-.06,2.95.04,5.89.3,8.81.09,1.06.2,2.12.34,3.17,1.14,9.2,3.78,18.2,8.07,26.57.14.27.06.51-.11.7Z"/>
        <path class="cls-14" d="M208.73,550.69s-.02.03-.04.04c-.19.25-.53.4-.93.31-.02,0-.05-.02-.07-.02-.05-.02-.1-.03-.15-.05-2.9-.9-5.18-2.62-7.06-4.57-1.87-1.94-3.47-4.09-4.99-6.23-1.12-1.59-2.17-3.22-3.13-4.89-.45-.78-.89-1.56-1.31-2.36-2.62-4.93-4.57-10.12-5.84-15.46-.1-.41.21-.7.59-.8.09-.03.19-.05.29-.05.39-.02.78.14.88.54.69,2.92,1.59,5.79,2.7,8.6,1.95,4.9,4.51,9.61,7.65,14.02,1.46,2.05,3,4.1,4.83,5.93,1.19,1.2,2.54,2.3,4.14,3.1.65.33,1.33.61,2.07.83.59.17.63.69.37,1.05Z"/>
        <path class="cls-14" d="M200.79,550.88c.09.32-.13.59-.46.74,0,0-.01,0-.01,0-.41.18-.96.15-1.23-.25-1.53-2.28-2.94-4.6-4.25-6.98-.02-.04-.04-.07-.05-.1-4.63-8.46-7.93-17.51-9.57-26.84-.07-.4.22-.68.59-.8.09-.03.19-.05.29-.05.4-.04.8.12.88.54.46,2.58,1.04,5.15,1.74,7.67.99,3.55,2.2,7.04,3.65,10.46,2.24,5.31,5.02,10.44,8.29,15.32.02.03.04.07.06.1.03.04.04.08.06.12,0,.02.01.05.02.07Z"/>
        <path class="cls-14" d="M200.79,550.88c.05.29-.16.58-.46.74,0,0-.01,0-.01,0-.34.18-.79.21-1.11-.09-1.99-1.85-3.82-3.81-5.51-5.86-3.17-3.86-5.82-7.99-8.11-12.27-1.55-2.9-2.93-5.86-4.19-8.87,0-.01-.01-.03-.02-.05-.38-.91-.75-1.81-1.11-2.72-.02-.04-.03-.08-.03-.13-.07-.38.23-.7.59-.86.06-.02.11-.04.17-.06.03,0,.05-.01.07-.02.04,0,.08-.01.11-.01.27-.03.52.05.66.28.02.03.04.07.06.11.38.97.78,1.94,1.18,2.9.58,1.36,1.17,2.71,1.79,4.05,2.66,5.68,5.85,11.22,9.91,16.26,1.76,2.19,3.69,4.28,5.81,6.25.02.02.04.04.06.06.06.07.1.14.12.21,0,.02.01.05.02.07Z"/>
        <path class="cls-14" d="M185.59,533.41c1.45,8.56.83,17.47-1.45,26.11-.09.33-.37.53-.69.61-.39.1-.82.02-1-.24,0,0-.01-.01-.02-.02-.08-.11-.11-.25-.06-.42t0-.01c.55-2.1,1.01-4.21,1.36-6.32.12-.71.22-1.42.32-2.14,1.18-8.96.47-18.05-2.66-26.45,0-.01-.01-.03-.02-.05-.34-.92-.71-1.83-1.11-2.72-.02-.04-.03-.08-.03-.13-.09-.39.21-.72.59-.86.06-.02.11-.04.17-.06.03,0,.05-.01.07-.02.04,0,.08-.01.11-.01.26-.02.51.06.66.28.02.03.04.07.06.11.42.96.82,1.92,1.18,2.9.65,1.72,1.2,3.47,1.64,5.24.35,1.38.64,2.78.88,4.18Z"/>
        <path class="cls-14" d="M183.74,553.13c.22,2.05.35,4.12.4,6.2.01.4-.32.69-.69.81-.39.13-.84.07-1-.24,0,0-.01-.01-.02-.02-.04-.07-.05-.14-.05-.23,0-.06,0-.12,0-.18t0-.01c-.06-2.33-.22-4.65-.5-6.96-.62-5.22-1.74-10.36-3.3-15.39-.96-3.12-2.09-6.2-3.36-9.23-.18-.44.16-.84.59-1,.4-.15.87-.1,1.04.31.94,2.25,1.8,4.52,2.58,6.81,2.12,6.21,3.62,12.62,4.31,19.13Z"/>
        <path class="cls-14" d="M178.38,534.9c.08.73.15,1.47.2,2.21.57,8.36-.89,16.92-4.14,25.08-.02.04-.03.08-.05.12-.01.03-.02.06-.04.09,0,0,0,.01,0,.01-.19.33-.57.44-.92.38,0,0-.01,0-.01,0-.47-.07-.87-.43-.67-.92.4-1.01.78-2.02,1.12-3.04.51-1.48.96-2.98,1.34-4.49,2.25-8.9,2.38-18.06-.05-26.65-.12-.44.23-.73.65-.81.45-.1.97.04,1.1.5.7,2.47,1.19,4.98,1.47,7.52Z"/>
        <path class="cls-14" d="M174.44,561.93c.02.09.01.18,0,.26-.02.04-.03.08-.05.12-.01.03-.02.06-.04.09,0,0,0,.01,0,.01-.19.25-.57.39-.92.38,0,0-.01,0-.01,0-.35-.02-.66-.18-.72-.54-.4-2.16-.8-4.32-1.19-6.48-.92-5.04-1.83-10.07-2.75-15.1-.5-2.74-1-5.47-1.51-8.2h0c-.09-.48.36-.79.83-.85.04,0,.07,0,.09-.01.38-.02.76.15.83.55.41,2.16.8,4.32,1.2,6.48,1.23,6.73,2.44,13.47,3.68,20.21.19,1.03.38,2.07.57,3.1Z"/>
        <path class="cls-14" d="M168.99,532.15c.2,2.65.15,5.33-.18,8-.02.17-.04.34-.07.51-1.23,9.25-5.46,18.36-11.69,26.42-.3.38-.78.41-1.13.25-.39-.18-.62-.6-.29-1.02,1.24-1.61,2.39-3.24,3.46-4.92.44-.69.86-1.39,1.27-2.09,4.89-8.46,7.57-17.77,6.88-26.83h0c-.03-.46.39-.77.83-.85.04,0,.07,0,.09-.01.41-.04.8.12.83.55Z"/>
        <path class="cls-14" d="M158.95,558.08c.19,1.09.27,2.19.15,3.3-.04.39-.1.77-.19,1.16-.34,1.5-1,2.95-1.74,4.37-.24.47-.82.56-1.24.42-.37-.12-.62-.44-.41-.86.68-1.3,1.31-2.63,1.62-4.01.31-1.33.29-2.63.07-3.93h0s0-.02,0-.03l-.02-.12c0-.06,0-.13,0-.19.08-.63,1.14-.88,1.58-.46h0c.09.09.15.2.18.34Z"/>
        <path class="cls-14" d="M260.04,254.87c-.05.18-.09.35-.15.53-1.06,3.9-2.13,7.8-3.19,11.7-1.98,7.24-3.95,14.47-5.93,21.71l-6.84,25.05c-1.95,7.13-3.89,14.26-5.84,21.4-.98,3.6-2,7.21-2.95,10.82-.99,3.75-1.69,7.56-2.48,11.33-1.3,6.19-2.54,12.38-3.74,18.57-2.49,12.95-4.78,25.92-6.91,38.89-2.05,12.58-3.96,25.16-5.66,37.75-1.42,10.52-2.72,21.06-3.68,31.59-.63,6.86-1.28,13.79-1.05,20.63,0,.12,0,.24,0,.35.04.8-1.3,1.15-1.66.6-.06-.08-.09-.17-.09-.29-.05-1.28-.06-2.57-.04-3.85.09-7.93.87-15.9,1.69-23.84,1.16-11.17,2.61-22.35,4.2-33.52,1.82-12.83,3.84-25.65,6.02-38.47,2.19-12.91,4.55-25.82,7.13-38.72,1.5-7.44,2.81-14.95,4.82-22.34,1.28-4.66,2.55-9.32,3.82-13.97,2.08-7.63,4.17-15.26,6.25-22.89,2.26-8.3,4.53-16.6,6.8-24.91,1.82-6.67,3.64-13.34,5.47-20.01.63-2.32,1.27-4.64,1.9-6.96-1.86.68-3.68,1.43-5.48,2.24-9.73,4.39-18.46,10.43-25.71,17.37-7.44,7.12-13,15.1-17.2,23.66-9.18,18.74-12.28,38.57-17.14,57.98-4.73,18.86-10.36,37.6-16.06,56.32-5.47,17.99-10.96,35.97-15.51,54.07-4.83,19.18-8.56,38.46-10.74,57.8,0,.04,0,.08-.01.12-.11.94-1.87.86-1.76-.07.28-2.5.59-5.01.92-7.52,2.55-19.36,6.67-38.63,11.75-57.8,4.86-18.35,10.56-36.59,16.09-54.85,5.79-19.13,11.35-38.3,15.87-57.59,4.52-19.29,8.32-39.22,19.53-57.24,9.75-15.66,26.52-29.42,46.32-36.35.57-.2,1.4.09,1.23.68Z"/>
        <path class="cls-14" d="M176.79,443.35c-2.81,8.24-5.3,16.53-7.46,24.87-3.84,14.87-6.65,29.87-8.38,44.89-1.73,15.01-2.41,30.04-1.99,44.98,0,.16-.04.29-.13.41,0,.02-.02.04-.04.06-.27.33-.82.48-1.2.36-.17-.05-.31-.17-.37-.35,0,0,0,0,0,0h0s0-.02,0-.03l-.02-.12c0-.06,0-.13,0-.19-.03-.85-.05-1.71-.06-2.56,0-.01,0-.03,0-.05-.14-7.53-.02-15.09.38-22.65.4-7.54,1.07-15.09,2-22.63.93-7.54,2.14-15.08,3.61-22.6,1.48-7.56,3.23-15.09,5.24-22.59,2-7.45,4.26-14.86,6.78-22.23.31-.91,1.95-.47,1.64.44Z"/>
        <path class="cls-14" d="M216.99,530.56h-.01c-.39.16-.87.1-1.06-.31-2.08-4.56-3.65-9.32-4.66-14.18-.71-3.38-1.14-6.81-1.28-10.27,0-.12-.01-.24-.02-.36-.03-.8,1.31-1.16,1.67-.6.06.07.08.17.09.29.3,8.42,2.3,16.71,5.83,24.44.02.03.03.05.03.08.13.41-.19.76-.58.91Z"/>
        <path class="cls-14" d="M216.99,530.56h-.01c-.39.13-.85.07-1.06-.31-2.84-5.18-5.26-10.52-7.23-16-.89-2.47-1.69-4.97-2.4-7.49,0-.01,0-.02-.01-.04-.03-.11-.03-.21,0-.3.15-.66,1.54-.8,1.76-.02,0,.01.01.03.01.05.91,3.25,2,6.46,3.22,9.62,1.78,4.61,3.88,9.11,6.28,13.5.02.03.03.05.03.08.17.41-.16.77-.58.91Z"/>
        <path class="cls-14" d="M215.11,541.68s-.05.04-.08.05c-.39.24-.94.26-1.19-.12-.02-.03-.04-.07-.05-.1-.46-1.1-.9-2.21-1.32-3.33-.53-1.39-1.01-2.78-1.46-4.18-2.8-8.82-4.25-17.99-4.73-27.22,0-.11-.02-.22-.02-.33,0-.1-.01-.21-.02-.31-.04-.92,1.71-1.24,1.75-.31,0,.22.02.43.04.65.13,2.42.32,4.84.59,7.24.02.19.04.37.06.55,1.05,9.06,3.12,18.02,6.69,26.5h0s.02.05.03.07c.15.34-.02.65-.3.85Z"/>
        <path class="cls-3" d="M257.95,256.04c-.63,2.32-1.27,4.64-1.9,6.96-1.82,6.67-3.64,13.34-5.47,20.01-2.26,8.3-4.53,16.6-6.8,24.91-2.08,7.63-4.17,15.26-6.25,22.89-1.27,4.65-2.54,9.31-3.82,13.97-2.02,7.39-3.33,14.9-4.82,22.34-2.58,12.89-4.94,25.8-7.13,38.72-2.18,12.82-4.2,25.64-6.02,38.47-1.59,11.17-3.04,22.34-4.2,33.52-.83,7.94-1.6,15.91-1.69,23.84-.02,1.28,0,2.57.04,3.85,0,.12.04.21.09.29.14,3.46.57,6.89,1.28,10.27-1.22-3.16-2.31-6.37-3.22-9.62-.01-.22-.03-.43-.04-.65-.05-.93-1.8-.61-1.75.31,0,.1.01.21.02.31-.03.09-.03.19,0,.3,0,.01,0,.02.01.04.49,9.23,1.93,18.4,4.73,27.22.45,1.41.93,2.8,1.46,4.18-5.75-5.56-9.62-12.44-11.36-19.73-.55-2.31-.88-4.67-.97-7.05,1.55-15.3,3.21-30.59,4.81-45.89.45-4.3.89-8.59,1.33-12.88.09-.93-1.67-1.01-1.76-.07-1.56,15.31-3.22,30.62-4.82,45.93-.44,4.25-.88,8.5-1.32,12.75,0,.04,0,.08-.01.13,0,.03,0,.06,0,.09-.2,10.6,1.54,21.1,5.23,31.03.79,2.14,1.69,4.25,2.69,6.33-1.6-.81-2.95-1.91-4.14-3.1-1.83-1.83-3.37-3.88-4.83-5.93-3.14-4.41-5.7-9.12-7.65-14.02-1.11-2.81-2.01-5.68-2.7-8.6-.07-.42-.48-.58-.88-.54-.1,0-.2.02-.29.05-.39.1-.69.39-.59.8,1.64,9.33,4.94,18.38,9.57,26.84-4.07-5.04-7.25-10.58-9.91-16.26-.63-1.34-1.22-2.69-1.79-4.05-.36-.98-.75-1.94-1.18-2.9-.01-.04-.03-.08-.06-.11-.14-.23-.39-.31-.66-.28-.04,0-.08,0-.11.01-.02,0-.04,0-.07.02-.06.01-.12.03-.17.06-.38.14-.69.47-.59.86,0,.04.02.08.03.13.36.91.73,1.82,1.11,2.72,0,.02.02.04.02.05,3.13,8.4,3.84,17.49,2.66,26.45-.1.71-.2,1.42-.32,2.14-.69-6.51-2.19-12.92-4.31-19.13-.78-2.29-1.64-4.56-2.58-6.81-.17-.42-.64-.47-1.04-.31-.42.08-.77.38-.65.81,2.43,8.59,2.3,17.75.05,26.65-.38,1.51-.83,3-1.34,4.49-1.24-6.74-2.45-13.47-3.68-20.21-.4-2.16-.79-4.32-1.2-6.48-.03-.43-.42-.59-.83-.55-.03,0-.06,0-.09.01-.47.05-.91.37-.83.84h0c.7,9.07-1.99,18.38-6.88,26.84-.4.71-.83,1.4-1.27,2.09.12-1.11.05-2.22-.15-3.3-.42-14.94.26-29.97,1.99-44.98,1.74-15.01,4.54-30.01,8.38-44.89,2.16-8.33,4.65-16.63,7.46-24.87.31-.91-1.33-1.35-1.64-.44-2.52,7.37-4.79,14.78-6.78,22.23-2.02,7.5-3.76,15.03-5.24,22.59-1.47,7.52-2.68,15.05-3.61,22.6-.94,7.54-1.6,15.09-2,22.63-.4,7.56-.52,15.12-.38,22.65,0,.01,0,.03,0,.05-2.32-3.23-4-6.88-4.42-10.67-.03-.42-.4-.58-.79-.55-.1,0-.19.03-.29.05-.39.11-.72.4-.68.81.2,3.36.2,6.75.24,10.12-1.91-7.08-2.7-14.43-2.18-21.8.19-2.67.55-5.34,1.08-8,.01-.05.02-.09.01-.12,2.18-19.34,5.91-38.63,10.74-57.8,4.56-18.1,10.04-36.08,15.51-54.07,5.7-18.73,11.33-37.47,16.06-56.32,4.87-19.41,7.97-39.24,17.14-57.98,4.2-8.57,9.76-16.54,17.2-23.66,7.25-6.93,15.97-12.98,25.71-17.37,1.79-.81,3.61-1.56,5.48-2.24Z"/>
        <path class="cls-14" d="M206.27,452.62c-.44,4.3-.88,8.59-1.33,12.88-1.6,15.3-3.25,30.59-4.81,45.89,0,.01,0,.02,0,.04-.09.87-1.62.87-1.76.11h0s0-.06,0-.09c0-.03,0-.06,0-.09,0-.04,0-.08.01-.13.43-4.25.88-8.5,1.32-12.75,1.6-15.31,3.25-30.62,4.82-45.93.09-.94,1.85-.86,1.76.07Z"/>
      </g>
      <g>
        <path class="cls-14" d="M483.95,558.49s.02.04.04.06c.24.36.79.58,1.2.36.07-.04.14-.1.21-.17.05-.06.1-.12.15-.18,0,0,0,0,0,0h0c1.7-2.03,3.19-4.25,4.31-6.61,1.01-2.13,1.7-4.35,1.96-6.64.04-.42-.28-.7-.68-.81-.09-.03-.19-.04-.29-.05-.38-.02-.74.14-.79.55-.42,3.79-2.1,7.44-4.42,10.67-.52.72-1.06,1.42-1.64,2.1h0c-.21.25-.19.52-.05.74Z"/>
        <path class="cls-14" d="M490.06,544.98c-.14,2.31-.18,4.63-.2,6.96-.04,3.2-.05,6.4-.24,9.59-.02.32.19.57.46.72.02.01.04.02.06.03.33.16.76.17,1.01-.01,0,0,.02-.02.03-.03.11-.09.18-.21.19-.38,0,0,0,0,0-.01.12-2.14.17-4.28.2-6.43.04-3.38.04-6.76.24-10.12.02-.4-.3-.69-.68-.81-.09-.03-.19-.04-.29-.05-.39-.03-.77.13-.79.55Z"/>
        <path class="cls-14" d="M492.66,525.49s0,.08.01.12c.53,2.66.89,5.33,1.08,8,.52,7.38-.27,14.73-2.18,21.8-.54,2-1.17,3.98-1.89,5.93-.13.37.08.7.39.9.02.01.04.02.06.03.33.19.76.22,1.01-.01,0,0,.02-.02.03-.03.05-.05.09-.12.13-.21.02-.05.04-.11.06-.17,0,0,0,0,0-.01.92-2.5,1.71-5.04,2.34-7.62,2.28-9.3,2.63-19.06.72-28.68-.17-.88-1.78-.87-1.78-.05Z"/>
        <path class="cls-14" d="M427.65,541.68s.05.04.08.05c.34.17.78.2,1.12-.07.02-.02.04-.04.06-.05,2.07-1.69,3.95-3.53,5.62-5.5,3.25-3.84,5.78-8.15,7.46-12.7,1.42-3.82,2.23-7.81,2.39-11.87,0,0,0,0,0-.02h0c0-.46-.42-.76-.85-.83-.02,0-.03,0-.04,0-.42-.07-.84.09-.86.54v.16c-.11,2.38-.44,4.73-.98,7.05-1.74,7.29-5.61,14.18-11.36,19.73-.89.87-1.83,1.7-2.82,2.5-.04.03-.06.06-.09.08h0c-.29.33-.1.71.27.92Z"/>
        <path class="cls-14" d="M434.04,550.69s.02.03.04.04c.23.23.61.36.93.31.02,0,.05-.02.07-.02.05-.02.1-.03.15-.05.14-.05.25-.15.33-.31.32-.62.62-1.24.92-1.86.99-2.08,1.89-4.19,2.69-6.33,3.69-9.93,5.43-20.43,5.23-31.03,0-.03,0-.06,0-.09,0-.04,0-.08-.01-.13-.09-.37-.46-.54-.84-.53-.02,0-.03,0-.04,0-.44.02-.88.27-.87.73.06,2.95-.04,5.89-.3,8.81-.09,1.06-.2,2.12-.34,3.17-1.14,9.2-3.78,18.2-8.07,26.57-.14.27-.06.51.11.7Z"/>
        <path class="cls-14" d="M434.04,550.69s.02.03.04.04c.19.25.53.4.93.31.02,0,.05-.02.07-.02.05-.02.1-.03.15-.05,2.9-.9,5.18-2.62,7.06-4.57,1.87-1.94,3.47-4.09,4.99-6.23,1.12-1.59,2.17-3.22,3.13-4.89.45-.78.89-1.56,1.31-2.36,2.62-4.93,4.57-10.12,5.84-15.46.1-.41-.21-.7-.59-.8-.09-.03-.19-.05-.29-.05-.39-.02-.78.14-.88.54-.69,2.92-1.59,5.79-2.7,8.6-1.95,4.9-4.51,9.61-7.65,14.02-1.46,2.05-3,4.1-4.83,5.93-1.19,1.2-2.54,2.3-4.14,3.1-.65.33-1.33.61-2.07.83-.59.17-.63.69-.37,1.05Z"/>
        <path class="cls-14" d="M441.98,550.88c-.09.32.13.59.46.74,0,0,.01,0,.01,0,.41.18.96.15,1.23-.25,1.53-2.28,2.94-4.6,4.25-6.98.02-.04.04-.07.05-.1,4.63-8.46,7.93-17.51,9.57-26.84.07-.4-.22-.68-.59-.8-.09-.03-.19-.05-.29-.05-.4-.04-.8.12-.88.54-.46,2.58-1.04,5.15-1.74,7.67-.99,3.55-2.2,7.04-3.65,10.46-2.24,5.31-5.02,10.44-8.29,15.32-.02.03-.04.07-.06.1-.03.04-.04.08-.06.12,0,.02-.01.05-.02.07Z"/>
        <path class="cls-14" d="M441.98,550.88c-.05.29.16.58.46.74,0,0,.01,0,.01,0,.34.18.79.21,1.11-.09,1.99-1.85,3.82-3.81,5.51-5.86,3.17-3.86,5.82-7.99,8.11-12.27,1.55-2.9,2.93-5.86,4.19-8.87,0-.01.01-.03.02-.05.38-.91.75-1.81,1.11-2.72.02-.04.03-.08.03-.13.07-.38-.23-.7-.59-.86-.06-.02-.11-.04-.17-.06-.03,0-.05-.01-.07-.02-.04,0-.08-.01-.11-.01-.27-.03-.52.05-.66.28-.02.03-.04.07-.06.11-.38.97-.78,1.94-1.18,2.9-.58,1.36-1.17,2.71-1.79,4.05-2.66,5.68-5.85,11.22-9.91,16.26-1.76,2.19-3.69,4.28-5.81,6.25-.02.02-.04.04-.06.06-.06.07-.1.14-.12.21,0,.02-.01.05-.02.07Z"/>
        <path class="cls-14" d="M457.18,533.41c-1.45,8.56-.83,17.47,1.45,26.11.09.33.37.53.69.61.39.1.82.02,1-.24,0,0,.01-.01.02-.02.08-.11.11-.25.06-.42t0-.01c-.55-2.1-1.01-4.21-1.36-6.32-.12-.71-.22-1.42-.32-2.14-1.18-8.96-.47-18.05,2.66-26.45,0-.01.01-.03.02-.05.34-.92.71-1.83,1.11-2.72.02-.04.03-.08.03-.13.09-.39-.21-.72-.59-.86-.06-.02-.11-.04-.17-.06-.03,0-.05-.01-.07-.02-.04,0-.08-.01-.11-.01-.26-.02-.51.06-.66.28-.02.03-.04.07-.06.11-.42.96-.82,1.92-1.18,2.9-.65,1.72-1.2,3.47-1.64,5.24-.35,1.38-.64,2.78-.88,4.18Z"/>
        <path class="cls-14" d="M459.03,553.13c-.22,2.05-.35,4.12-.4,6.2-.01.4.32.69.69.81.39.13.84.07,1-.24,0,0,.01-.01.02-.02.04-.07.05-.14.05-.23,0-.06,0-.12,0-.18t0-.01c.06-2.33.22-4.65.5-6.96.62-5.22,1.74-10.36,3.3-15.39.96-3.12,2.09-6.2,3.36-9.23.18-.44-.16-.84-.59-1-.4-.15-.87-.1-1.04.31-.94,2.25-1.8,4.52-2.58,6.81-2.12,6.21-3.62,12.62-4.31,19.13Z"/>
        <path class="cls-14" d="M464.38,534.9c-.08.73-.15,1.47-.2,2.21-.57,8.36.89,16.92,4.14,25.08.02.04.03.08.05.12.01.03.02.06.04.09,0,0,0,.01,0,.01.19.33.57.44.92.38,0,0,.01,0,.01,0,.47-.07.87-.43.67-.92-.4-1.01-.78-2.02-1.12-3.04-.51-1.48-.96-2.98-1.34-4.49-2.25-8.9-2.38-18.06.05-26.65.12-.44-.23-.73-.65-.81-.45-.1-.97.04-1.1.5-.7,2.47-1.19,4.98-1.47,7.52Z"/>
        <path class="cls-14" d="M468.32,561.93c-.02.09-.01.18,0,.26.02.04.03.08.05.12.01.03.02.06.04.09,0,0,0,.01,0,.01.19.25.57.39.92.38,0,0,.01,0,.01,0,.35-.02.66-.18.72-.54.4-2.16.8-4.32,1.19-6.48.92-5.04,1.83-10.07,2.75-15.1.5-2.74,1-5.47,1.51-8.2h0c.09-.48-.36-.79-.83-.85-.04,0-.07,0-.09-.01-.38-.02-.76.15-.83.55-.41,2.16-.8,4.32-1.2,6.48-1.23,6.73-2.44,13.47-3.68,20.21-.19,1.03-.38,2.07-.57,3.1Z"/>
        <path class="cls-14" d="M473.77,532.15c-.2,2.65-.15,5.33.18,8,.02.17.04.34.07.51,1.23,9.25,5.46,18.36,11.69,26.42.3.38.78.41,1.13.25.39-.18.62-.6.29-1.02-1.24-1.61-2.39-3.24-3.46-4.92-.44-.69-.86-1.39-1.27-2.09-4.89-8.46-7.57-17.77-6.88-26.83h0c.03-.46-.39-.77-.83-.85-.04,0-.07,0-.09-.01-.41-.04-.8.12-.83.55Z"/>
        <path class="cls-14" d="M483.82,558.08c-.19,1.09-.27,2.19-.15,3.3.04.39.1.77.19,1.16.34,1.5,1,2.95,1.74,4.37.24.47.82.56,1.24.42.37-.12.62-.44.41-.86-.68-1.3-1.31-2.63-1.62-4.01-.31-1.33-.29-2.63-.07-3.93h0s0-.02,0-.03l.02-.12c0-.06,0-.13,0-.19-.08-.63-1.14-.88-1.58-.46h0c-.09.09-.15.2-.18.34Z"/>
        <path class="cls-14" d="M382.72,254.87c.05.18.09.35.15.53,1.06,3.9,2.13,7.8,3.19,11.7,1.98,7.24,3.95,14.47,5.93,21.71l6.84,25.05c1.95,7.13,3.89,14.26,5.84,21.4.98,3.6,2,7.21,2.95,10.82.99,3.75,1.69,7.56,2.48,11.33,1.3,6.19,2.54,12.38,3.74,18.57,2.49,12.95,4.78,25.92,6.91,38.89,2.05,12.58,3.96,25.16,5.66,37.75,1.42,10.52,2.72,21.06,3.68,31.59.63,6.86,1.28,13.79,1.05,20.63,0,.12,0,.24,0,.35-.04.8,1.3,1.15,1.66.6.06-.08.09-.17.09-.29.05-1.28.06-2.57.04-3.85-.09-7.93-.87-15.9-1.69-23.84-1.16-11.17-2.61-22.35-4.2-33.52-1.82-12.83-3.84-25.65-6.02-38.47-2.19-12.91-4.55-25.82-7.13-38.72-1.5-7.44-2.81-14.95-4.82-22.34-1.28-4.66-2.55-9.32-3.82-13.97-2.08-7.63-4.17-15.26-6.25-22.89-2.26-8.3-4.53-16.6-6.8-24.91-1.82-6.67-3.64-13.34-5.47-20.01-.63-2.32-1.27-4.64-1.9-6.96,1.86.68,3.68,1.43,5.48,2.24,9.73,4.39,18.46,10.43,25.71,17.37,7.44,7.12,13,15.1,17.2,23.66,9.18,18.74,12.28,38.57,17.14,57.98,4.73,18.86,10.36,37.6,16.06,56.32,5.47,17.99,10.96,35.97,15.51,54.07,4.83,19.18,8.56,38.46,10.74,57.8,0,.04,0,.08.01.12.11.94,1.87.86,1.76-.07-.28-2.5-.59-5.01-.92-7.52-2.55-19.36-6.67-38.63-11.75-57.8-4.86-18.35-10.56-36.59-16.09-54.85-5.79-19.13-11.35-38.3-15.87-57.59-4.52-19.29-8.32-39.22-19.53-57.24-9.75-15.66-26.52-29.42-46.32-36.35-.57-.2-1.4.09-1.23.68Z"/>
        <path class="cls-14" d="M465.98,443.35c2.81,8.24,5.3,16.53,7.46,24.87,3.84,14.87,6.65,29.87,8.38,44.89,1.73,15.01,2.41,30.04,1.99,44.98,0,.16.04.29.13.41,0,.02.02.04.04.06.27.33.82.48,1.2.36.17-.05.31-.17.37-.35,0,0,0,0,0,0h0s0-.02,0-.03l.02-.12c0-.06,0-.13,0-.19.03-.85.05-1.71.06-2.56,0-.01,0-.03,0-.05.14-7.53.02-15.09-.38-22.65-.4-7.54-1.07-15.09-2-22.63-.93-7.54-2.14-15.08-3.61-22.6-1.48-7.56-3.23-15.09-5.24-22.59-2-7.45-4.26-14.86-6.78-22.23-.31-.91-1.95-.47-1.64.44Z"/>
        <path class="cls-14" d="M425.77,530.56h.01c.39.16.87.1,1.06-.31,2.08-4.56,3.65-9.32,4.66-14.18.71-3.38,1.14-6.81,1.28-10.27,0-.12.01-.24.02-.36.03-.8-1.31-1.16-1.67-.6-.06.07-.08.17-.09.29-.3,8.42-2.3,16.71-5.83,24.44-.02.03-.03.05-.03.08-.13.41.19.76.58.91Z"/>
        <path class="cls-14" d="M425.77,530.56h.01c.39.13.85.07,1.06-.31,2.84-5.18,5.26-10.52,7.23-16,.89-2.47,1.69-4.97,2.4-7.49,0-.01,0-.02.01-.04.03-.11.03-.21,0-.3-.15-.66-1.54-.8-1.76-.02,0,.01-.01.03-.01.05-.91,3.25-2,6.46-3.22,9.62-1.78,4.61-3.88,9.11-6.28,13.5-.02.03-.03.05-.03.08-.17.41.16.77.58.91Z"/>
        <path class="cls-14" d="M427.65,541.68s.05.04.08.05c.39.24.94.26,1.19-.12.02-.03.04-.07.05-.1.46-1.1.9-2.21,1.32-3.33.53-1.39,1.01-2.78,1.46-4.18,2.8-8.82,4.25-17.99,4.73-27.22,0-.11.02-.22.02-.33,0-.1.01-.21.02-.31.04-.92-1.71-1.24-1.75-.31,0,.22-.02.43-.04.65-.13,2.42-.32,4.84-.59,7.24-.02.19-.04.37-.06.55-1.05,9.06-3.12,18.02-6.69,26.5h0s-.02.05-.03.07c-.15.34.02.65.3.85Z"/>
        <path class="cls-3" d="M384.82,256.04c.63,2.32,1.27,4.64,1.9,6.96,1.82,6.67,3.64,13.34,5.47,20.01,2.26,8.3,4.53,16.6,6.8,24.91,2.08,7.63,4.17,15.26,6.25,22.89,1.27,4.65,2.54,9.31,3.82,13.97,2.02,7.39,3.33,14.9,4.82,22.34,2.58,12.89,4.94,25.8,7.13,38.72,2.18,12.82,4.2,25.64,6.02,38.47,1.59,11.17,3.04,22.34,4.2,33.52.83,7.94,1.6,15.91,1.69,23.84.02,1.28,0,2.57-.04,3.85,0,.12-.04.21-.09.29-.14,3.46-.57,6.89-1.28,10.27,1.22-3.16,2.31-6.37,3.22-9.62.01-.22.03-.43.04-.65.05-.93,1.8-.61,1.75.31,0,.1-.01.21-.02.31.03.09.03.19,0,.3,0,.01,0,.02-.01.04-.49,9.23-1.93,18.4-4.73,27.22-.45,1.41-.93,2.8-1.46,4.18,5.75-5.56,9.62-12.44,11.36-19.73.55-2.31.88-4.67.97-7.05-1.55-15.3-3.21-30.59-4.81-45.89-.45-4.3-.89-8.59-1.33-12.88-.09-.93,1.67-1.01,1.76-.07,1.56,15.31,3.22,30.62,4.82,45.93.44,4.25.88,8.5,1.32,12.75,0,.04,0,.08.01.13,0,.03,0,.06,0,.09.2,10.6-1.54,21.1-5.23,31.03-.79,2.14-1.69,4.25-2.69,6.33,1.6-.81,2.95-1.91,4.14-3.1,1.83-1.83,3.37-3.88,4.83-5.93,3.14-4.41,5.7-9.12,7.65-14.02,1.11-2.81,2.01-5.68,2.7-8.6.07-.42.48-.58.88-.54.1,0,.2.02.29.05.39.1.69.39.59.8-1.64,9.33-4.94,18.38-9.57,26.84,4.07-5.04,7.25-10.58,9.91-16.26.63-1.34,1.22-2.69,1.79-4.05.36-.98.75-1.94,1.18-2.9.01-.04.03-.08.06-.11.14-.23.39-.31.66-.28.04,0,.08,0,.11.01.02,0,.04,0,.07.02.06.01.12.03.17.06.38.14.69.47.59.86,0,.04-.02.08-.03.13-.36.91-.73,1.82-1.11,2.72,0,.02-.02.04-.02.05-3.13,8.4-3.84,17.49-2.66,26.45.1.71.2,1.42.32,2.14.69-6.51,2.19-12.92,4.31-19.13.78-2.29,1.64-4.56,2.58-6.81.17-.42.64-.47,1.04-.31.42.08.77.38.65.81-2.43,8.59-2.3,17.75-.05,26.65.38,1.51.83,3,1.34,4.49,1.24-6.74,2.45-13.47,3.68-20.21.4-2.16.79-4.32,1.2-6.48.03-.43.42-.59.83-.55.03,0,.06,0,.09.01.47.05.91.37.83.84h0c-.7,9.07,1.99,18.38,6.88,26.84.4.71.83,1.4,1.27,2.09-.12-1.11-.05-2.22.15-3.3.42-14.94-.26-29.97-1.99-44.98-1.74-15.01-4.54-30.01-8.38-44.89-2.16-8.33-4.65-16.63-7.46-24.87-.31-.91,1.33-1.35,1.64-.44,2.52,7.37,4.79,14.78,6.78,22.23,2.02,7.5,3.76,15.03,5.24,22.59,1.47,7.52,2.68,15.05,3.61,22.6.94,7.54,1.6,15.09,2,22.63.4,7.56.52,15.12.38,22.65,0,.01,0,.03,0,.05,2.32-3.23,4-6.88,4.42-10.67.03-.42.4-.58.79-.55.1,0,.19.03.29.05.39.11.72.4.68.81-.2,3.36-.2,6.75-.24,10.12,1.91-7.08,2.7-14.43,2.18-21.8-.19-2.67-.55-5.34-1.08-8-.01-.05-.02-.09-.01-.12-2.18-19.34-5.91-38.63-10.74-57.8-4.56-18.1-10.04-36.08-15.51-54.07-5.7-18.73-11.33-37.47-16.06-56.32-4.87-19.41-7.97-39.24-17.14-57.98-4.2-8.57-9.76-16.54-17.2-23.66-7.25-6.93-15.97-12.98-25.71-17.37-1.79-.81-3.61-1.56-5.48-2.24Z"/>
        <path class="cls-14" d="M436.49,452.62c.44,4.3.88,8.59,1.33,12.88,1.6,15.3,3.25,30.59,4.81,45.89,0,.01,0,.02,0,.04.09.87,1.62.87,1.76.11h0s0-.06,0-.09c0-.03,0-.06,0-.09,0-.04,0-.08-.01-.13-.43-4.25-.88-8.5-1.32-12.75-1.6-15.31-3.25-30.62-4.82-45.93-.09-.94-1.85-.86-1.76.07Z"/>
      </g>
      <g>
        <path class="cls-12" d="M300.36,354.15c0,9.99-7.3,12.12-17.29,12.12s-14.94-3.4-14.94-13.4,4.15-16.81,14.14-16.81,18.09,8.1,18.09,18.09Z"/>
        <ellipse class="cls-3" cx="287.92" cy="352.88" rx="10.22" ry="13.4"/>
        <ellipse class="cls-14" cx="289.71" cy="353.22" rx="3.37" ry="4.41"/>
        <path class="cls-11" d="M266.4,349.58c1.29-2.75,3.94-4.69,6.83-5.65s5.98-1.03,9.01-.84c8.04.52,15.96,2.93,22.93,6.97-4.17-6.02-9.9-10.95-16.47-14.19-3.75-1.85-7.84-3.16-12.02-3.15-4.62.01-9.21,1.7-12.74,4.68s-5.96,7.23-6.73,11.78"/>
      </g>
      <g>
        <path class="cls-12" d="M343.33,354.15c0,9.99,7.3,12.12,17.29,12.12,9.99,0,14.94-3.4,14.94-13.4s-4.15-16.81-14.14-16.81c-9.99,0-18.09,8.1-18.09,18.09Z"/>
        <ellipse class="cls-3" cx="355.77" cy="352.88" rx="10.22" ry="13.4"/>
        <ellipse class="cls-14" cx="353.98" cy="353.22" rx="3.37" ry="4.41"/>
        <path class="cls-11" d="M377.29,349.58c-1.29-2.75-3.94-4.69-6.83-5.65s-5.98-1.03-9.01-.84c-8.04.52-15.96,2.93-22.93,6.97,4.17-6.02,9.9-10.95,16.47-14.19,3.75-1.85,7.84-3.16,12.02-3.15,4.62.01,9.21,1.7,12.74,4.68,3.53,2.98,5.96,7.23,6.73,11.78"/>
      </g>
      <path class="cls-11" d="M298.57,389.37c9.95,4.03,20.81,5.67,31.51,4.78-10.65,1.58-21.8-.12-31.51-4.78h0Z"/>
      <polygon class="cls-8" points="225.56 302.1 217.43 278.64 242.56 239.79 250.4 257.7 246.73 259.31 241.88 248.21 221.82 279.23 227.42 297.26 225.56 302.1"/>
      <polygon class="cls-16" points="226.2 300.44 219.21 278.88 219.31 278.73 242.28 243.21 248.91 258.36 248.22 258.66 242.15 244.79 220.04 278.99 226.54 299.48 226.2 300.44"/>
      <polygon class="cls-8" points="410.86 305.17 421.95 282.96 402.06 241.19 391.97 257.93 395.4 260 401.65 249.62 417.53 282.97 409.63 300.13 410.86 305.17"/>
      <polygon class="cls-16" points="410.44 303.45 420.16 282.96 420.08 282.8 401.9 244.61 393.36 258.77 394.01 259.16 401.82 246.2 419.33 282.97 410.23 302.45 410.44 303.45"/>
      <g>
        <path class="cls-10" d="M394.08,497.98c-20.95,8.81-43.76,14.05-67.68,14.97-2.53.1-5.08.15-7.63.15s-5.13-.05-7.68-.15c-23.9-.93-46.7-6.17-67.63-14.97,6.94-6.61,15.07-15.85,16.98-23.04,1.93-7.27,2.69-19.41,2.57-28.86.06-.03.12-.05.17-.07,16.94-6.95,35.46-10.82,54.87-10.91h1.45c19.41.1,37.93,3.96,54.87,10.91.05.02.11.05.17.07-.12,9.46.64,21.6,2.57,28.86,1.91,7.19,10.04,16.43,16.97,23.04Z"/>
        <path class="cls-5" d="M243.46,497.98c6.94-6.61,15.07-15.85,16.98-23.04,1.93-7.27,2.69-19.41,2.57-28.86.06-.03.12-.05.17-.07,16.94-6.95,35.46-10.82,54.87-10.91h1.45c19.41.1,37.93,3.96,54.87,10.91.05.02.11.05.17.07-.12,9.46.64,21.6,2.57,28.86,1.91,7.19,10.04,16.43,16.97,23.04"/>
        <g>
          <g>
            <path class="cls-10" d="M318.41,435.27c-2.21,21.16-9.13,41.79-19.91,60.14-16.5-15.67-29.63-34.9-38.17-55.99,13.12-5.11,25.24-12.84,35.34-22.65,5.8,8,13.73,14.46,22.75,18.5Z"/>
            <path class="cls-15" d="M316.91,435.27c-1.73,16.3-6.27,32.32-13.25,47.14-1.97,4.17-4.13,8.25-6.46,12.24l2.36-.3c-12.72-12.11-23.4-26.27-31.53-41.84-2.3-4.4-4.39-8.9-6.26-13.49l-1.05,1.85c13.39-5.24,25.66-13.03,36-23.04l-2.36-.3c6,8.22,14,14.84,23.29,19.04,1.75.79,3.27-1.79,1.51-2.59-8.8-3.98-16.51-10.16-22.21-17.96-.57-.78-1.61-1.03-2.36-.3-9.95,9.62-21.79,17.22-34.68,22.26-.68.27-1.38,1.03-1.05,1.85,6.77,16.63,16.23,32.07,28.01,45.62,3.34,3.84,6.86,7.52,10.55,11.03.7.66,1.86.55,2.36-.3,8.49-14.49,14.65-30.36,17.97-46.83.94-4.65,1.65-9.35,2.15-14.07.2-1.92-2.8-1.9-3,0Z"/>
          </g>
          <g>
            <path class="cls-10" d="M319.13,435.27c2.21,21.16,9.13,41.79,19.91,60.14,16.5-15.67,29.63-34.9,38.17-55.99-13.12-5.11-25.24-12.84-35.34-22.65-5.8,8-13.73,14.46-22.75,18.5Z"/>
            <path class="cls-15" d="M317.63,435.27c1.78,16.72,6.35,33.03,13.47,48.25,2.02,4.32,4.24,8.53,6.65,12.64.5.85,1.66.97,2.36.3,12.99-12.37,23.93-26.9,32.2-42.82,2.34-4.51,4.45-9.13,6.36-13.83.33-.8-.37-1.58-1.05-1.85-12.89-5.05-24.73-12.64-34.68-22.26-.75-.73-1.79-.47-2.36.3-5.7,7.81-13.41,13.98-22.21,17.96-1.76.79-.23,3.38,1.51,2.59,9.28-4.2,17.28-10.82,23.29-19.04l-2.36.3c10.34,10,22.61,17.79,36,23.04l-1.05-1.85c-6.61,16.25-15.97,31.41-27.52,44.62-3.26,3.73-6.69,7.29-10.27,10.71l2.36.3c-8.29-14.15-14.28-29.6-17.58-45.67-.93-4.53-1.64-9.11-2.13-13.71-.2-1.9-3.2-1.92-3,0Z"/>
          </g>
        </g>
        <path class="cls-15" d="M324,483.12h-10.46l-.41-.8c-2.43-4.68-3.26-10.02-2.36-15.22h0s0,0,0,0c5.19,1.8,10.83,1.8,16.01,0h0s0,0,0,0c.9,5.19.07,10.54-2.36,15.22l-.41.8Z"/>
        <path class="cls-15" d="M325.78,519.94h-14.06c-.51,0-.91-.44-.87-.94l2.7-35.88h10.41l2.7,35.88c.04.51-.36.94-.87.94Z"/>
      </g>
      <path class="cls-13" d="M305.58,406v2.11c0,2.78-2.26,5.04-5.04,5.04h-11.01c-2.07,0-3.85-1.25-4.62-3.04-.27-.61-.41-1.29-.41-1.99v-2.11c0-.56.09-1.11.27-1.62.66-1.99,2.55-3.42,4.76-3.42h11.01c2.78,0,5.04,2.25,5.04,5.04Z"/>
      <g>
        <path class="cls-1" d="M267.08,427.55c.06.02.12.03.19.04,2.05.43,4.09.43,6.17.1.06,0,.13-.02.2-.03.03,0,.05,0,.08-.01-.02-.02-.05-.03-.07-.05-.05-.03-.11-.07-.16-.11-7.94-5.62-12.95-15.39-13.06-25.12,0-.01,0-.02,0-.03,0-.03,0-.05,0-.07v-.11s.07.04.11.05c.02.01.04.02.06.03.01.01.02.01.03.02,3.07,1.39,6.6,1.77,9.88.98.1-.02.19-.04.28-.07.02,0,.04,0,.05-.01-.02,0-.04-.02-.05-.02-.09-.03-.18-.07-.27-.11-5.66-2.28-10.36-7.22-12.77-12.81-2.39-5.53-2.78-12.54-.63-18.19l-.94,2.38"/>
        <path class="cls-1" d="M273.2,427.53c-2.03.29-4.06.26-6.08-.16-7.79-1.75-13.43-7.57-17.6-14.07-.07-.11-.19-.11-.27-.06-1.25-1.96-2.38-3.98-3.44-5.98.01-.08.03-.16.04-.24.02-.12-.06-.21-.16-.24,1.09-6.79,3.38-13.51,5.76-19.99,1.53-4.15,3.1-8.28,4.72-12.4-.06.25-.12.5-.17.75-.74,3.62-.63,7.42.21,11.01,1.59,6.79,6.17,12.95,12.38,16.19.52.27,1.05.52,1.59.74-3.25.68-6.63.28-9.65-1.11-5.15-2.45-8.49-7.77-8.55-13.46,0-.26-.4-.26-.4,0,.06,5.79,3.43,11.23,8.65,13.75.09,7.77,3.17,15.43,8.39,21.17,1.39,1.52,2.92,2.89,4.59,4.09Z"/>
        <path class="cls-2" d="M249.36,413.4c-.03-.05-.07-.11-.1-.16"/>
        <path class="cls-2" d="M245.7,406.77c-.01.06-.02.12-.03.18h0c.05.11.1.2.15.3"/>
        <path class="cls-1" d="M394.01,336.36s-.04.04-.06.05c-.02.02-.05.02-.08.02h0c-6.07.13-12.16-.29-18.12-1.45-.1-.02-.2-.04-.29-.06-.26-.05-.15-.43.11-.38,5.62,1.11,11.35,1.56,17.08,1.51.41,0,.82-.01,1.23-.02.02,0,.04,0,.06.01.02,0,.04.02.05.03.02.01.02.02.03.03h0s.02.02.02.04h0c.04.07.03.16-.03.23Z"/>
        <path class="cls-1" d="M394.01,336.36s-.04.04-.06.05c-.02.02-.05.02-.08.02h0s-.04,0-.06-.01c-.39-.12-.78-.24-1.17-.37-5.26-1.72-10.35-3.92-15.21-6.56-9.32-5.06-17.76-11.72-24.89-19.56-7.1-7.82-12.88-16.8-16.94-26.55-.1-.23.29-.34.38-.11,2.27,5.45,5.09,10.67,8.38,15.58,5.88,8.76,13.26,16.51,21.69,22.85,8.4,6.31,17.83,11.21,27.86,14.33,0,0,0,0,.01,0,.02,0,.04.02.05.03.02.01.02.02.03.03.01.01.02.03.03.04h0c.03.08.02.16-.03.23Z"/>
        <path class="cls-1" d="M406.41,333.73c-4.88-.59-9.71-1.57-14.43-2.94-8.4-2.44-16.45-6.09-23.84-10.78-7.38-4.69-14.1-10.43-19.84-17.04-.16-.19.12-.47.28-.28,3.19,3.67,6.68,7.08,10.43,10.18,6.68,5.54,14.16,10.12,22.12,13.58,8.04,3.5,16.58,5.84,25.29,6.88.26.03.26.43,0,.4Z"/>
        <path class="cls-1" d="M245.82,407.26c-.63,4.28-.8,8.6-.22,12.91.01.1-.04.15-.11.18,0,0,0,0,0,0-.11.04-.27-.03-.29-.18-.02-.14-.04-.29-.05-.43-.52-4.28-.32-8.57.32-12.83.02-.13.13-.16.23-.13.1.03.18.12.16.24-.01.08-.03.16-.04.24Z"/>
        <path class="cls-1" d="M245.49,420.34s0,0,0,0c-.05.04-.12.04-.19,0-.68-.48-1.34-.97-2-1.47-5.44-4.22-9.99-9.51-13.61-15.35-3.68-5.93-6.41-12.43-8.27-19.15-1.98-7.16-2.9-14.54-3.03-21.96,0-.14,0-.29,0-.43,0-.15,0-.31,0-.46-.09-8.54.79-17.06,2.13-25.49,1.42-8.84,3.35-17.59,5.28-26.32.06-.25.44-.14.39.11-.24,1.06-.47,2.12-.71,3.18-1.89,8.57-3.71,17.16-4.99,25.84-1.28,8.74-2,17.59-1.62,26.42.31,7.18,1.45,14.3,3.57,21.18,2.04,6.62,4.95,13,8.8,18.76,3.75,5.61,8.41,10.6,13.9,14.54.12.09.23.18.36.26.14.1.1.28-.01.35Z"/>
        <path class="cls-1" d="M218.68,361.79c-.1.06-.2.13-.3.18-3.42,2.1-7.79,2.53-11.7,2.45h-.01c-.26,0-.26-.4,0-.39h.02c3.92.07,8.31-.36,11.69-2.52.03-.02.06-.04.1-.06.21-.14.42.2.2.34Z"/>
        <path class="cls-1" d="M203.19,363.75c1.15.16,2.31.25,3.48.28,0,0,.02,0,.02,0,.23.03.23.39-.01.39h-.01c-1.35-.03-2.69-.14-4.02-.35-.19-.03-.17-.28-.05-.36,2.45-1.82,4.54-4.06,6.29-6.56.15-.21.49-.01.35.2-1.7,2.42-3.7,4.6-6.04,6.39Z"/>
        <path class="cls-1" d="M320.51,228.78c-.05.02-.12.02-.18-.02-.13-.08-.27-.16-.4-.24-1.17-.68-2.4-1.23-3.68-1.67-6.01-2.01-12.49-1.27-18.41.67-5.83,1.9-11.4,4.77-16.69,7.84-10.06,5.84-19.25,13.13-27.32,21.51-8.28,8.61-15.37,18.36-21,28.9-5.76,10.8-9.97,22.45-12.31,34.47-1.3,6.68-1.99,13.46-3.47,20.1-.7,3.1-1.54,6.12-2.93,8.99-1.37,2.82-3.1,5.45-4.89,8.02-.15.21-.49.01-.35-.2.9-1.28,1.78-2.58,2.61-3.91,1.68-2.71,3.15-5.58,4.06-8.64.97-3.3,1.64-6.69,2.22-10.08,1.12-6.58,1.95-13.19,3.52-19.68,2.89-11.98,7.64-23.49,13.9-34.1,6.06-10.27,13.54-19.72,22.16-27.96,8.46-8.08,18.02-15.01,28.4-20.41,10.36-5.4,23.67-10.69,34.71-4,.02.01.04.03.06.04.15.1.1.3-.02.36Z"/>
        <path class="cls-1" d="M434.64,374.11c-.01.15-.2.27-.34.13l-.27-.29c-.95-1.01-1.86-2.07-2.71-3.18-8.47-10.93-11.68-24.86-14.2-38.17-1.39-7.35-2.64-14.74-4.63-21.97-1.65-6.02-3.77-11.91-6.32-17.61-5.07-11.35-11.81-21.96-19.92-31.38-8.15-9.46-17.72-17.86-28.38-24.4-10.99-6.74-24.46-11.81-37.36-8.47-.5.13-1,.27-1.49.43-.25.08-.35-.31-.11-.38.34-.11.68-.21,1.02-.3.18-.05.36-.1.54-.14,1.05-.28,2.11-.5,3.18-.67,13.43-2.07,26.81,4,37.71,11.29,10.29,6.9,19.52,15.37,27.36,24.96,7.85,9.62,14.31,20.36,19.08,31.81,2.41,5.79,4.38,11.76,5.89,17.84,1.86,7.51,3.05,15.16,4.57,22.74,2.68,13.39,6.64,27.47,16.33,37.59.05.05.06.1.05.15Z"/>
        <path class="cls-1" d="M434.64,374.11c.01.09-.03.17-.14.19-5.68.87-11.97-1.41-15.76-5.75-.15-.17-.29-.35-.44-.52-.16-.2.12-.48.28-.28.02.02.03.04.04.05,3.57,4.42,9.76,6.89,15.41,6.16.12-.01.24-.03.36-.05.14-.02.24.09.24.2Z"/>
        <path class="cls-1" d="M422.01,418.04c-.97,5.61-2.44,11.3-5.14,16.34,0,0,0,.01,0,.02-.04.08-.12.11-.19.09-.02,0-.04,0-.05-.01-.06-.03-.12-.09-.13-.17h0s0-.05,0-.06c0-.02.02-.03.02-.05.14-.27.28-.53.42-.8,2.79-5.53,4.2-11.78,5.08-17.86.85-5.89,1.18-11.95.6-17.89-.35-3.61-1.01-7.2-1.55-10.78-.59-3.98-1.19-7.96-1.78-11.94-2.39-16.09-4.79-32.19-7.19-48.28-.04-.25.35-.36.38-.1,1.35,9.09,2.71,18.19,4.06,27.29.69,4.66,1.39,9.33,2.08,13.99.04.25.07.5.11.75.48,3.22.96,6.44,1.44,9.67.61,4.11,1.22,8.22,1.84,12.33.46,3.11.99,6.21,1.17,9.36.34,6.05-.13,12.16-1.17,18.13Z"/>
        <path class="cls-1" d="M416.93,433.39c-.01.3-.03.6-.04.9,0,.03-.01.06-.02.09-.04.07-.12.11-.19.11-.02,0-.04,0-.05-.01-.07-.02-.13-.07-.13-.17h0s0-.05,0-.06c.28-5.13.32-10.26.1-15.4-.14-3.28-.4-6.55-.76-9.82-.08-.76-.17-1.52-.27-2.27-.63-5.08-1.53-10.12-2.69-15.1-2.08-8.96-5.01-17.72-8.72-26.13-.1-.23.24-.44.35-.2,2.09,4.73,3.93,9.56,5.51,14.48,2.8,8.71,4.78,17.69,5.93,26.77,1.13,8.89,1.44,17.87.99,26.82Z"/>
        <path class="cls-1" d="M415.92,406.86c-.02.72-.05,1.44-.1,2.17-.16,3.17-.45,6.32-.88,9.46-1.88,13.68-6.39,26.93-13.16,38.96h0s0,.01,0,.01c-.01.02-.03.04-.04.05-.02.01-.03.02-.05.03-.03.01-.06.01-.09,0-.01,0-.02,0-.03,0,0,0-.01,0-.02,0-.05-.03-.1-.07-.12-.12-.02-.03-.02-.07,0-.11h0s.01-.04.02-.05c.26-.47.52-.94.78-1.41,1.6-2.93,3.06-5.93,4.39-8.99,5.46-12.62,8.47-26.24,8.92-39.98,0-.04.02-.08.04-.11.09-.14.37-.11.36.11Z"/>
        <path class="cls-1" d="M405.39,438.98c-.7,5.68-1.72,11.32-3.17,16.85-.13.52-.27,1.04-.41,1.56,0,.02-.02.03-.02.05h0s0,.01,0,.01c-.01.02-.03.04-.04.05-.02.01-.03.02-.05.03-.03,0-.06.01-.09,0-.01,0-.02,0-.03,0,0,0-.01,0-.02,0-.05-.02-.1-.06-.12-.12-.02-.03-.02-.07,0-.11h0c.91-3.31,1.67-6.67,2.29-10.04.59-3.14,1.06-6.31,1.42-9.49.31-2.74.49-5.45.29-8.21-.39-5.51-1.78-11.01-4.02-16.06-.05-.14-.12-.27-.18-.4-.11-.23.24-.44.35-.2.02.03.03.06.04.09,1.29,2.87,2.29,5.86,3.02,8.92.65,2.73,1.08,5.52,1.23,8.33.16,2.94-.12,5.84-.48,8.76Z"/>
        <path class="cls-1" d="M401.61,412.98c-.06.17-.13.35-.21.52-1.62,3.97-3.84,7.71-6.54,11.06-.01.03-.03.04-.05.06-.06.06-.13.06-.19.02h0c-.08-.05-.13-.16-.1-.26.01-.02.02-.04.04-.06.22-.28.45-.56.66-.84,1.52-1.97,2.88-4.08,4.04-6.28,4.66-8.84,6.23-19.32,3.49-29-.07-.24.32-.35.39-.11.78,2.76,1.23,5.6,1.35,8.46.23,5.62-.81,11.23-2.87,16.44Z"/>
        <path class="cls-1" d="M395.22,423.46c-.11.35-.21.69-.32,1.04,0,.02-.02.03-.03.05-.01.03-.03.04-.05.06-.05.04-.12.04-.19.02h0c-.09-.04-.15-.12-.11-.23,0-.01,0-.02.01-.03,1.06-3.3,1.81-6.7,2.23-10.13,1.45-11.79-.96-23.95-6.94-34.21-.1-.16-.19-.32-.29-.49-.01-.02-.02-.03-.02-.04h0c-.02-.06,0-.11.03-.15.07-.11.25-.15.34,0,.02.03.03.05.04.08,1.75,2.92,3.21,6.01,4.37,9.21,4.03,11.15,4.34,23.51.94,34.85Z"/>
        <path class="cls-1" d="M390.69,373.32c-.18,2.04-.44,4.08-.77,6.09-.03.21-.06.41-.1.61-1.58,9.12-4.72,17.87-9.15,26.05-5.47,10.09-12.45,19.25-19.26,28.45-.01,0-.01.01-.02.02-.02.03-.05.05-.07.07-.07.03-.16.02-.22-.03h0s-.07-.08-.07-.13h0v-.03s.01-.05.03-.09c.11-.15.22-.29.33-.44,3.65-4.93,7.34-9.84,10.82-14.91,6.43-9.37,12.11-19.32,15.26-30.31.86-3.02,1.55-6.09,2.05-9.18h0c.01-.06.02-.11.03-.15,1.38-8.51,1.41-17.22.07-25.74-.04-.25.35-.36.38-.11,1.03,6.56,1.27,13.23.7,19.84Z"/>
        <g>
          <path class="cls-3" d="M376.69,372.11s-.07-.05-.1-.07c-.1-.06-.2-.02-.25.05.03.02.05.03.08.05.02.02.04.03.05.04.02.02.05.04.07.05h.02c.09.05.17.01.21-.07-.03-.02-.05-.03-.08-.05ZM376.29,375.52s-.06-.03-.09-.03c-.06,0-.11-.01-.17-.02-.04-.01-.09-.01-.13-.02,0,.06-.01.12-.02.18l-.03.21v.03c0,.07.05.12.11.15.03.02.06.03.09.03.06.01.12.02.17.03.04,0,.08.01.12.01.01-.06.02-.12.03-.18.01-.07.02-.14.03-.22-.04,0-.09,0-.13-.01.01-.05.01-.11.02-.16Z"/>
          <path class="cls-3" d="M376.4,375.67v.02s-.09,0-.13-.01c.01-.05.01-.11.02-.16.06.03.11.08.11.15Z"/>
        </g>
        <path class="cls-1" d="M376.4,375.67v.02c-.01.08-.02.15-.03.22-.01.06-.02.12-.03.18-.51,3.84-1.17,7.65-2.03,11.42-1.53,6.86-3.7,13.5-6.31,20.02-2.65,6.63-5.53,13.32-6.43,20.46-.03.24-.4.26-.4.03v-.03c.49-3.89,1.57-7.67,2.87-11.37,2.35-6.63,5.3-13.02,7.38-19.74,2.1-6.81,3.59-13.8,4.54-20.86.01-.05.01-.11.02-.16-.04-.01-.09-.01-.13-.02-.85-.11-1.69-.23-2.54-.38-8.02-1.35-15.77-4.06-23.07-7.6-7.49-3.63-14.53-8.15-21.15-13.17-6.51-4.96-12.73-10.39-18.11-16.59-5.36-6.17-9.81-13.13-12.89-20.73-2.95-7.26-4.62-15.18-3.84-23.03-3.79,8.38-8.39,16.35-12.62,24.5-7.9,15.22-15.12,30.78-21.65,46.63-1.43,3.45-3.14,6.93-3.75,10.65-.63,3.83-.33,7.84.8,11.54,2.06,6.75,7.24,12.71,13.87,15.29.17.06.2.33,0,.38-3.44.87-7.04.54-10.27-.88.04,2.09.28,4.16.74,6.2,1.7,7.49,6.12,14.4,12.44,18.83.13.08.14.33-.04.36-2.26.37-4.51.38-6.75-.1-.25-.05-.14-.43.11-.38,2.02.42,4.04.45,6.08.16-1.67-1.2-3.2-2.57-4.59-4.09-5.22-5.73-8.3-13.4-8.39-21.17v-.12c0-.16.17-.23.3-.17,3.02,1.4,6.4,1.79,9.65,1.11-.54-.23-1.07-.47-1.59-.74-6.2-3.25-10.79-9.4-12.38-16.2-.84-3.59-.95-7.38-.2-11.01.05-.25.11-.5.17-.75.37-1.49.93-2.91,1.51-4.34.82-2.05,1.65-4.08,2.49-6.11,3.33-8.02,6.84-15.97,10.52-23.84,3.73-7.96,7.64-15.84,11.72-23.63,4.08-7.78,8.45-15.42,11.99-23.46.08-.17.4-.09.37.1-.13,1-.22,1.99-.28,2.99-.44,8.3,1.76,16.57,5.22,24.06,3.43,7.41,8.15,14.12,13.71,20.08,5.57,5.97,11.88,11.26,18.48,16.05,6.57,4.78,13.54,9.02,20.94,12.37,7.32,3.31,15.07,5.73,23.05,6.8.04.01.09.01.13.02.06,0,.11.02.17.02.03,0,.06.01.09.03.06.03.11.08.11.15Z"/>
        <path class="cls-1" d="M376.8,342.59c-.28-2.55-.63-5.08-1.05-7.61-.02-.1-.03-.2-.05-.3-.01-.07-.08-.13-.14-.14-8.8-1.77-17.3-5.2-24.37-10.8-6.27-4.96-11.41-11.43-14.54-18.8-1.78-4.21-2.88-8.71-3.16-13.28-.01-.21-.34-.29-.39-.05-2.41,12.41-.15,25.41,4.62,37,4.83,11.76,12.45,22.09,21.79,30.66,5.21,4.78,10.89,9.01,16.83,12.82.03.02.05.03.08.05.02.02.04.03.05.04.02.02.05.04.07.05h.02c.09.05.17.01.21-.07,0,0,.02,0,.02-.02t.01-.01s.01-.01.01-.02c.01-.02.01-.04.02-.06.01-.04.01-.07.01-.1,1-9.76,1.01-19.61-.04-29.36ZM376.46,371.7c-10.53-6.76-20.25-14.91-27.85-24.9-7.59-9.97-12.98-21.75-15.13-34.12-1.11-6.43-1.31-13.03-.26-19.48,1.15,11.39,7.3,21.86,15.87,29.32,4.85,4.22,10.49,7.43,16.52,9.65,1.6.59,3.22,1.11,4.86,1.57.82.23,1.65.44,2.48.64.37.09.76.17,1.13.26.44.09,1.14.07,1.3.51.15.41.15.93.22,1.36.06.42.12.83.19,1.24.15,1.03.28,2.05.41,3.08.23,1.89.42,3.79.57,5.69.65,8.38.54,16.82-.31,25.18Z"/>
        <path class="cls-1" d="M260.6,402.22c-.03.06-.09.11-.16.11-.03.01-.07,0-.11-.02-.03-.02-.07-.03-.1-.05-5.21-2.53-8.58-7.96-8.65-13.75,0-.26.4-.26.4,0,.06,5.69,3.4,11.01,8.55,13.46.11.05.12.16.07.24Z"/>
        <path class="cls-1" d="M267.26,427.59c-.02.1-.11.19-.24.15-7.88-1.77-13.61-7.67-17.84-14.25-.07-.11-.02-.22.07-.26.08-.05.2-.05.27.06,4.17,6.5,9.81,12.32,17.6,14.07.12.03.16.13.13.23Z"/>
        <g>
          <path class="cls-1" d="M412.48,326.53c1.35,9.09,2.71,18.19,4.06,27.29.69,4.66,1.39,9.33,2.08,13.99,3.57,4.42,9.76,6.89,15.41,6.16-.95-1.01-1.86-2.07-2.71-3.18-8.47-10.93-11.68-24.86-14.2-38.17-1.39-7.35-2.64-14.74-4.63-21.97-1.65-6.02-3.77-11.91-6.32-17.61-5.07-11.35-11.81-21.96-19.92-31.38-8.15-9.46-17.72-17.86-28.38-24.4-10.99-6.74-24.46-11.81-37.36-8.47-.5.13-1,.27-1.49.43-.25.08-.35-.31-.11-.38.34-.11.68-.21,1.02-.3-1.17-.68-2.4-1.23-3.68-1.67-6.01-2.01-12.49-1.27-18.41.67-5.83,1.9-11.4,4.77-16.69,7.84-10.06,5.84-19.25,13.13-27.32,21.51-8.28,8.61-15.37,18.36-21,28.9-5.76,10.8-9.97,22.45-12.31,34.47-1.3,6.68-1.99,13.46-3.47,20.1-.7,3.1-1.54,6.12-2.93,8.99-1.37,2.82-3.1,5.45-4.89,8.02-1.7,2.42-3.7,4.6-6.04,6.39,1.15.16,2.31.25,3.48.28,0,0,.02,0,.02,0,3.92.07,8.31-.36,11.69-2.52-.09-8.54.79-17.06,2.13-25.49,1.42-8.84,3.35-17.59,5.28-26.32.06-.25.44-.14.39.11-.24,1.06-.47,2.12-.71,3.18-1.89,8.57-3.71,17.16-4.99,25.84-1.28,8.74-2,17.59-1.62,26.42.31,7.18,1.45,14.3,3.57,21.18,2.04,6.62,4.95,13,8.8,18.76,3.75,5.61,8.41,10.6,13.9,14.54-.52-4.28-.32-8.57.32-12.83.02-.13.13-.16.23-.13,1.09-6.79,3.38-13.51,5.76-19.99,1.53-4.15,3.1-8.28,4.72-12.4.38-1.49.93-2.92,1.51-4.35.82-2.04,1.65-4.08,2.5-6.11,3.33-8.02,6.84-15.97,10.52-23.83,3.73-7.96,7.63-15.85,11.72-23.64,4.08-7.78,8.45-15.42,11.99-23.46.08-.18.4-.09.37.1-.13.99-.23,1.99-.28,2.99-.45,8.29,1.76,16.57,5.22,24.06,3.43,7.41,8.14,14.12,13.71,20.08,5.57,5.97,11.88,11.26,18.48,16.06,6.57,4.77,13.54,9.01,20.95,12.37,7.36,3.33,15.15,5.76,23.17,6.81.15-1.11.28-2.21.39-3.33-5.97-3.82-11.68-8.07-16.91-12.87-9.34-8.57-16.95-18.9-21.79-30.66-4.77-11.59-7.03-24.59-4.62-37.01.05-.23.38-.16.39.05.28,4.57,1.37,9.07,3.16,13.28,3.13,7.37,8.27,13.84,14.53,18.8,7.08,5.6,15.58,9.03,24.38,10.8,5.62,1.11,11.35,1.56,17.08,1.51-5.26-1.72-10.35-3.92-15.21-6.56-9.32-5.06-17.76-11.72-24.89-19.56-7.1-7.82-12.88-16.8-16.94-26.55-.1-.23.29-.34.38-.11,2.27,5.45,5.09,10.67,8.38,15.58,5.88,8.76,13.26,16.51,21.69,22.85,8.4,6.31,17.83,11.21,27.86,14.33,0,0,0,0,.01,0,.02,0,.04.01.05.03.02.01.02.02.03.03h0s.02.02.02.04h0c.04.07.03.16-.03.23-.02.02-.04.04-.06.05-.02.02-.05.02-.08.02h0c-6.07.13-12.16-.29-18.12-1.45.42,2.53.77,5.06,1.05,7.61,1.05,9.75,1.04,19.6.04,29.36,2.23,1.42-.47,3.97-.47,3.97,0,0-1.19,7.76-2.05,11.6-1.53,6.86-3.7,13.5-6.31,20.01-2.65,6.63-5.53,13.32-6.43,20.47-.23,1.95-.31,3.92-.2,5.89,3.65-4.93,7.34-9.84,10.82-14.91,6.43-9.37,12.11-19.32,15.26-30.31.86-3.02,1.55-6.09,2.05-9.18h0c-.02-.06,0-.11.03-.15,1.38-8.51,1.41-17.22.07-25.74-.04-.25.35-.36.38-.11,1.03,6.56,1.27,13.23.7,19.84-.18,2.04-.44,4.08-.77,6.09,1.75,2.92,3.21,6.01,4.37,9.21,4.03,11.15,4.34,23.51.94,34.85,1.52-1.97,2.88-4.08,4.04-6.28,4.66-8.84,6.23-19.32,3.49-29-.07-.24.32-.35.39-.11.78,2.76,1.23,5.6,1.35,8.46.23,5.62-.81,11.23-2.87,16.44,1.29,2.87,2.29,5.86,3.02,8.92.65,2.73,1.08,5.52,1.23,8.33.16,2.94-.12,5.84-.48,8.76-.7,5.68-1.72,11.32-3.17,16.85,1.6-2.93,3.06-5.93,4.39-8.99,5.46-12.62,8.47-26.24,8.92-39.98,0-.04.02-.08.04-.11-.63-5.08-1.53-10.12-2.69-15.1-2.08-8.96-5.01-17.72-8.72-26.13-.1-.23.24-.44.35-.2,2.09,4.73,3.93,9.56,5.51,14.48,2.8,8.71,4.78,17.69,5.93,26.77,1.13,8.89,1.44,17.87.99,26.82,2.79-5.53,4.2-11.78,5.08-17.86.85-5.89,1.18-11.95.6-17.89-.35-3.61-1.01-7.2-1.55-10.78-.59-3.98-1.19-7.96-1.78-11.94-2.39-16.09-4.79-32.19-7.19-48.28-.04-.25.35-.36.38-.1ZM406.41,333.73c-4.88-.59-9.71-1.57-14.43-2.94-8.4-2.44-16.45-6.09-23.84-10.78-7.38-4.69-14.1-10.43-19.84-17.04-.16-.19.12-.47.28-.28,3.19,3.67,6.68,7.08,10.43,10.18,6.68,5.54,14.16,10.12,22.12,13.58,8.04,3.5,16.58,5.84,25.29,6.88.26.03.26.43,0,.4Z"/>
          <path class="cls-1" d="M361.37,433.89c.01.18.02.36.04.54,0,.03,0,.06-.01.09-.01,0-.01.01-.02.02-.02.03-.05.05-.07.07-.06.04-.16.03-.22-.03h0s-.06-.08-.07-.13h0v-.03c-.17-2.13-.1-4.27.16-6.39v-.03c.03-.25.43-.26.4,0-.23,1.95-.31,3.92-.2,5.89Z"/>
        </g>
      </g>
      <path class="cls-13" d="M288.15,409.13c-4.41,1-8.16,1.21-10.88,1.19-3.84-.02-8.69-.1-14.1-2.47-.74-.32-3.03-1.37-5.66-3.27-1.51-1.09-3.32-2.42-5.1-4.7-.65-.83-1.5-1.94-2.23-3.59-1.08-2.44-1.27-2.63-1.27-4.01l1.98-5.74c.39,1.75,2.45,6.67,4.07,9.03,1.49,2.18,3.1,3.5,3.98,4.22,1.83,1.49,3.49,2.34,4.54,2.87,1.69.85,3.08,1.34,3.59,1.51,1.9.64,4,1.11,7.09,1.36,5.45.44,11.05,0,13.89-.3-.12.34-.19.72-.19,1.1v1.43c0,.48.1.94.28,1.36Z"/>
    </g>
  </g>
</svg>