<?xml version="1.0" encoding="UTF-8"?>
<svg id="Layer_2" data-name="Layer 2" xmlns="http://www.w3.org/2000/svg" xmlns:xlink="http://www.w3.org/1999/xlink" viewBox="0 0 636.69 636.69">
  <defs>
    <style>
      .cls-1 {
        filter: url(#drop-shadow-2);
      }

      .cls-1, .cls-2, .cls-3, .cls-4, .cls-5, .cls-6 {
        stroke-width: 0px;
      }

      .cls-1, .cls-6 {
        fill: #a3a3a3;
      }

      .cls-2 {
        fill: #e1e1e1;
      }

      .cls-7, .cls-8 {
        stroke: #000;
        stroke-miterlimit: 10;
      }

      .cls-9 {
        filter: url(#drop-shadow-4);
      }

      .cls-3 {
        fill: #4b0094;
      }

      .cls-10 {
        filter: url(#drop-shadow-3);
      }

      .cls-5 {
        fill: none;
      }

      .cls-6 {
        filter: url(#drop-shadow-1);
      }

      .cls-8 {
        fill: #fff;
      }
    </style>
    <filter id="drop-shadow-1" filterUnits="userSpaceOnUse">
      <feOffset dx="7" dy="7"/>
      <feGaussianBlur result="blur" stdDeviation="8"/>
      <feFlood flood-color="#000" flood-opacity=".4"/>
      <feComposite in2="blur" operator="in"/>
      <feComposite in="SourceGraphic"/>
    </filter>
    <filter id="drop-shadow-2" filterUnits="userSpaceOnUse">
      <feOffset dx="7" dy="7"/>
      <feGaussianBlur result="blur-2" stdDeviation="5"/>
      <feFlood flood-color="#000" flood-opacity=".6"/>
      <feComposite in2="blur-2" operator="in"/>
      <feComposite in="SourceGraphic"/>
    </filter>
    <filter id="drop-shadow-3" filterUnits="userSpaceOnUse">
      <feOffset dx="7" dy="7"/>
      <feGaussianBlur result="blur-3" stdDeviation="8"/>
      <feFlood flood-color="#000" flood-opacity=".48"/>
      <feComposite in2="blur-3" operator="in"/>
      <feComposite in="SourceGraphic"/>
    </filter>
    <filter id="drop-shadow-4" filterUnits="userSpaceOnUse">
      <feOffset dx="7" dy="7"/>
      <feGaussianBlur result="blur-4" stdDeviation="8"/>
      <feFlood flood-color="#000" flood-opacity=".48"/>
      <feComposite in2="blur-4" operator="in"/>
      <feComposite in="SourceGraphic"/>
    </filter>
  </defs>
  <g id="Layer_1-2" data-name="Layer 1">
    <g>
      <g>
        <path class="cls-2" d="M512.85,318.34c0,68.01-34.91,127.87-87.78,162.63-30.64,20.15-67.31,31.87-106.72,31.87-25.76,0-50.34-5.01-72.84-14.1-5.05-2.04-9.99-4.29-14.82-6.74-6.58-3.32-12.94-7.01-19.06-11.03-52.87-34.76-87.78-94.62-87.78-162.63,0-107.42,87.08-194.5,194.5-194.5s194.5,87.08,194.5,194.5Z"/>
        <circle class="cls-6" cx="318.35" cy="318.34" r="89"/>
        <path class="cls-1" d="M425.07,480.97c-30.64,20.15-67.31,31.87-106.72,31.87-25.76,0-50.34-5.01-72.84-14.1-5.05-2.04-9.99-4.29-14.82-6.74-6.58-3.32-12.94-7.01-19.06-11.03,3.57-3.79,7.34-7.39,11.29-10.79,3.08-2.65,6.28-5.18,9.58-7.57,24.13-17.47,53.79-27.77,85.85-27.77,42.07,0,80,17.73,106.72,46.13Z"/>
        <path class="cls-5" d="M318.35,0C142.53,0,0,142.53,0,318.34s142.53,318.35,318.35,318.35,318.34-142.53,318.34-318.35S494.16,0,318.35,0ZM247.32,508.38l-.78,1.62c-.58,1.21-1.58,2.11-2.74,2.58-1.17.48-2.5.53-3.78.06-1.45-.54-2.58-1.69-3.1-3.15l-6.23-17.49c4.83,2.45,9.77,4.7,14.82,6.74l2.02,5.62c.46,1.32.39,2.76-.21,4.02Z"/>
        <g class="cls-10">
          <path class="cls-3" d="M218.24,251.26c-7.04,4.18-15.66,9.31-14.74,12.85,1.42,5.47,25.65,7.57,46.17,1.96,5.2-1.42,8-2.75,12.91-2.35,11.62.95,15.94,10,25.04,16.04,20.35,13.5,50.5,2.63,54.39,1.17,20.51-7.69,24.94-21.06,38.96-18.82,7.17,1.14,6.76,4.76,20.52,9.43,8.23,2.8,21.65,7.34,28.17,1.17,2.16-2.05,3.96-5.64,3.51-9.37-1.5-12.49-27.47-20.67-42.37-23.38-11.73-2.13-16.41-.84-21.4-5.6-5.96-5.68-2.65-10.72-9.39-22.7-5.74-10.2-12.82-14.84-10.96-18.78,1.39-2.95,6.14-1.8,7.04-4.3,1.64-4.55-13.63-9.18-17.22-21.13-2.07-6.89.67-13.15,5.87-25.04,4.44-10.15,7.55-17.26,12.91-18,8.87-1.22,15.63,16.12,19.57,14.48,3.35-1.4,3.49-16.15-4.7-25.83-7.4-8.74-20.18-11.68-30.13-8.61-5.93,1.83-9.9,6.2-17.61,14.87-9.52,10.71-7.24,11.4-21.52,30.91,0,0-3.19,4.36-11.77,20.69-1.61,3.07-3.24,6.29-2.32,9.84,1.3,5.01,6.63,6.53,6.06,9.03-.53,2.3-5.06,1.52-10.76,4.67-6.3,3.47-8.97,9.8-9.78,11.74-1.29,3.06-1.53,6.39-1.96,12.91-.81,12.36-1.53,18.55-2.74,19.96-4.38,5.11-11.28-.02-27.39,2.74-11.69,2-19.79,6.72-24.39,9.45Z"/>
          <path class="cls-4" d="M354.49,186.84c-6.19.48-11.86,3.73-15.41,8.83-.46.67-.12,1.67.54,2.05.75.44,1.59.13,2.05-.54,2.9-4.17,7.75-6.95,12.82-7.35.81-.06,1.5-.64,1.5-1.5,0-.76-.69-1.56-1.5-1.5h0Z"/>
          <path class="cls-4" d="M361.42,217.77c-2.56.5-5.13.86-7.74.93s-5.3-.14-7.94-.43c-.81-.09-1.5.75-1.5,1.5,0,.88.69,1.41,1.5,1.5,2.72.3,5.46.51,8.2.42s5.55-.49,8.28-1.03c.8-.16,1.25-1.11,1.05-1.85-.23-.83-1.05-1.2-1.85-1.05h0Z"/>
          <path class="cls-4" d="M367.25,233.24c-10.88,2.68-22.07,2.84-33.12,1.1-1.89-.3-2.7,2.59-.8,2.89,11.6,1.83,23.28,1.72,34.71-1.1,1.87-.46,1.08-3.36-.8-2.89h0Z"/>
          <path class="cls-4" d="M371.09,263.37c2.66-1.22,5.57-1.95,8.42-2.59s5.78-1.16,8.72-1.31c1.92-.1,1.93-3.1,0-3-3.2.16-6.39.72-9.52,1.41s-6.23,1.56-9.14,2.89c-.74.34-.92,1.4-.54,2.05.44.76,1.31.88,2.05.54h0Z"/>
          <path class="cls-4" d="M293.7,186.94s.08.05.12.07c.2.12-.12-.07-.15-.12.04.08.19.16.25.22.08.08.16.16.23.24.07.08.16.26.25.3.02.01-.22-.29-.14-.18.02.03.04.05.06.08.04.05.08.1.11.16.08.12.17.24.25.36.16.24.32.49.47.73.66,1.03,1.3,2.15,2.18,3.01.49.48,1.12.93,1.8,1.05.4.07.79.06,1.16-.15.31-.18.61-.54.69-.9.17-.73-.22-1.69-1.05-1.85-.06-.01-.12-.02-.18-.04-.17-.05-.22-.17.14.07-.11-.07-.23-.13-.34-.2-.19-.12.34.29.09.07-.06-.05-.11-.1-.17-.15-.11-.11-.22-.23-.33-.35-.05-.06-.11-.13-.16-.19-.23-.28.18.25.03.05-.11-.15-.21-.29-.32-.44-.21-.3-.4-.61-.6-.91-.39-.61-.77-1.23-1.2-1.82-.48-.65-.99-1.28-1.7-1.7s-1.67-.18-2.05.54-.19,1.63.54,2.05h0Z"/>
          <path class="cls-4" d="M260.22,244.42c7.04-.08,15.81.12,20.38,6.46,1.12,1.55,3.72.06,2.59-1.51-5.3-7.34-14.65-8.04-22.97-7.94-1.93.02-1.93,3.02,0,3h0Z"/>
        </g>
      </g>
      <g class="cls-9">
        <path class="cls-8" d="M219.68,427.02l-10.75,3.9-6.8-19.1c-.57-1.6-.32-3.39.67-4.78l.66-.92c.64-.9,1.53-1.55,2.54-1.89.99-.35,2.09-.38,3.16-.09,1.6.46,2.88,1.67,3.45,3.24l7.07,19.64Z"/>
        <path class="cls-7" d="M245.51,498.74c-5.05-2.04-9.99-4.29-14.82-6.74l-7.77-21.82-13.99-39.26,10.75-3.9,12.82,35.59,13.01,36.13Z"/>
        <path class="cls-4" d="M198.51,424.46c-.42,1.37-.9,2.73-1.44,4.06-.07.16-.13.33-.2.49-.07.17-.08.19-.02.06-.03.07-.06.14-.09.21-.14.32-.28.65-.43.97-.3.66-.62,1.32-.95,1.97-.36.7-.21,1.66.54,2.05.68.36,1.67.21,2.05-.54,1.38-2.72,2.54-5.56,3.44-8.47.23-.75-.27-1.67-1.05-1.85-.81-.19-1.6.24-1.85,1.05h0Z"/>
        <path class="cls-4" d="M191.76,413.84c-3.05-.08-6.05.61-8.78,1.96-.71.35-.96,1.41-.54,2.05.47.72,1.3.91,2.05.54.17-.09.35-.17.53-.25,0,0,.43-.19.18-.08.31-.13.63-.25.95-.36.62-.21,1.25-.39,1.89-.53.31-.07.62-.13.93-.18.1-.02.19-.03.29-.04-.16.02-.15.02.03,0,.14-.02.29-.03.43-.05.68-.06,1.36-.08,2.04-.06.78.02,1.54-.71,1.5-1.5s-.66-1.48-1.5-1.5h0Z"/>
        <path class="cls-4" d="M193.04,400.36c-3.02-1.45-6.04-2.89-9.06-4.34-.71-.34-1.65-.22-2.05.54-.35.67-.22,1.69.54,2.05,3.02,1.45,6.04,2.89,9.06,4.34.71.34,1.65.22,2.05-.54.35-.67.22-1.69-.54-2.05h0Z"/>
        <path class="cls-4" d="M204.19,391.99c-1.02-2.76-2.36-5.38-4.06-7.78-.45-.64-1.33-1-2.05-.54-.63.41-1.02,1.37-.54,2.05.8,1.13,1.53,2.3,2.17,3.52.31.59.61,1.19.88,1.8.07.16.14.33.22.49.07.16.07.16,0,.01.03.08.07.16.1.25.13.33.26.66.38,1,.27.73,1.03,1.31,1.85,1.05.72-.23,1.34-1.06,1.05-1.85h0Z"/>
        <path class="cls-4" d="M216.71,394.55c.87-1.99,1.74-3.99,2.61-5.98.17-.38.27-.73.15-1.16-.1-.35-.36-.73-.69-.9-.65-.34-1.72-.23-2.05.54-.87,1.99-1.74,3.99-2.61,5.98-.17.38-.27.73-.15,1.16.1.35.36.73.69.9.65.34,1.72.23,2.05-.54h0Z"/>
        <path class="cls-4" d="M223.78,404.47c1.22-.5,2.47-.81,3.77-1.05.11-.02.09-.01-.05,0,.09-.01.19-.02.28-.03.14-.02.28-.03.43-.04.33-.03.66-.05,1-.05.67-.01,1.33.02,2,.08.78.08,1.53-.75,1.5-1.5-.04-.88-.66-1.42-1.5-1.5-2.78-.27-5.65.14-8.23,1.2-.72.3-1.32,1.01-1.05,1.85.23.7,1.07,1.37,1.85,1.05h0Z"/>
        <path class="cls-4" d="M223.59,418.74c1.96.94,3.92,1.88,5.88,2.82.71.34,1.65.22,2.05-.54.35-.67.22-1.69-.54-2.05-1.96-.94-3.92-1.88-5.88-2.82-.71-.34-1.65-.22-2.05.54-.35.67-.22,1.69.54,2.05h0Z"/>
      </g>
      <line class="cls-5" x1="224.77" y1="425.17" x2="219.68" y2="427.02"/>
      <line class="cls-5" x1="208.93" y1="430.92" x2="204.67" y2="432.47"/>
    </g>
  </g>
</svg>