<?xml version="1.0" encoding="UTF-8"?>
<svg id="Layer_2" data-name="Layer 2" xmlns="http://www.w3.org/2000/svg" xmlns:xlink="http://www.w3.org/1999/xlink" viewBox="0 0 636.69 636.69">
  <defs>
    <style>
      .cls-1 {
        filter: url(#drop-shadow-2);
      }

      .cls-1, .cls-2, .cls-3, .cls-4, .cls-5, .cls-6, .cls-7, .cls-8 {
        stroke-width: 0px;
      }

      .cls-1, .cls-8 {
        fill: #a3a3a3;
      }

      .cls-9 {
        stroke: #000;
        stroke-miterlimit: 10;
        stroke-width: .5px;
      }

      .cls-2 {
        fill: #e1e1e1;
      }

      .cls-4 {
        fill: #a7a7a7;
      }

      .cls-5 {
        fill: none;
      }

      .cls-6 {
        fill: #fff;
      }

      .cls-7 {
        fill: #b1b1b1;
      }

      .cls-8 {
        filter: url(#drop-shadow-1);
      }
    </style>
    <filter id="drop-shadow-1" filterUnits="userSpaceOnUse">
      <feOffset dx="7" dy="7"/>
      <feGaussianBlur result="blur" stdDeviation="8"/>
      <feFlood flood-color="#000" flood-opacity=".4"/>
      <feComposite in2="blur" operator="in"/>
      <feComposite in="SourceGraphic"/>
    </filter>
    <filter id="drop-shadow-2" filterUnits="userSpaceOnUse">
      <feOffset dx="7" dy="7"/>
      <feGaussianBlur result="blur-2" stdDeviation="5"/>
      <feFlood flood-color="#000" flood-opacity=".6"/>
      <feComposite in2="blur-2" operator="in"/>
      <feComposite in="SourceGraphic"/>
    </filter>
  </defs>
  <g id="Layer_1-2" data-name="Layer 1">
    <g>
      <path class="cls-2" d="M512.85,318.35c0,68.01-34.91,127.87-87.78,162.63-30.64,20.15-67.31,31.87-106.72,31.87s-76.08-11.72-106.72-31.87c-52.87-34.76-87.78-94.62-87.78-162.63,0-107.42,87.08-194.5,194.5-194.5s194.5,87.08,194.5,194.5Z"/>
      <circle class="cls-8" cx="318.35" cy="318.35" r="89"/>
      <path class="cls-1" d="M425.07,480.98c-30.64,20.15-67.31,31.87-106.72,31.87s-76.08-11.72-106.72-31.87c26.72-28.4,64.65-46.13,106.72-46.13s80,17.73,106.72,46.13Z"/>
      <path class="cls-6" d="M346.93,303.75c-.88.69-2.16,1.79-3.52,3.33-1.4,1.57-4.15,4.66-3.39,5.93.52.87,2.46.51,4.37.26,2.7-.36,6.65-.28,14.54-.13,7.11.13,9.22.92,12.46-.78,1.4-.74,3.52-1.49,3.78-3.07.4-2.42-3.62-5.35-7.3-6.39-2.49-.7-4.4-.42-6.91-.13-3.3.38-8.05.81-14.02.98Z"/>
      <path class="cls-6" d="M279.66,303.67c-4.92.19-5.29.17-6.51.39-2.67.49-4.83,1.32-6.51,2.98-.64.63-1.59,1.6-1.42,2.69.14.86.94,1.49,2.2,2.1,3.14,1.52,6.23,1.46,9.44,1.42,3.84-.05,5.76-.07,7.78-.05,5.73.06,8.59.08,10.17.24,3.07.31,4.8.73,5.18,0,.31-.59-.57-1.28-2.3-3.77-2.54-3.66-2.8-5.29-4.7-5.97-.69-.25-1.2-.22-2.3-.18-3.68.12-7.37,0-11.05.13Z"/>
      <ellipse class="cls-3" cx="356.94" cy="308.5" rx="6.95" ry="5.16"/>
      <ellipse class="cls-9" cx="283.24" cy="308.45" rx="6.85" ry="5.05"/>
      <path class="cls-3" d="M282.68,365.64c.15,2.41.91,4.78,2.28,6.78.44.65,1.34,1,2.05.54.64-.42,1.01-1.36.54-2.05-.29-.43-.56-.88-.8-1.34-.06-.12-.12-.25-.18-.37-.04-.09-.27-.48-.06-.12-.12-.2-.18-.46-.26-.68-.17-.49-.31-.99-.41-1.5-.04-.22-.14-.5-.12-.72.03.23.03.26.01.09,0-.07-.01-.14-.02-.21-.01-.14-.02-.28-.03-.41-.05-.78-.65-1.54-1.5-1.5-.77.03-1.55.66-1.5,1.5h0Z"/>
      <path class="cls-3" d="M285.49,368.63c11.16.17,22.33.33,33.47-.51,5.51-.41,11.01-1.07,16.44-2.08,5.1-.95,10.28-2.11,15.13-3.98,4.52-1.75,8.95-4.39,11.13-8.9.84-1.73-1.75-3.25-2.59-1.51-1.84,3.8-5.52,6.05-9.34,7.52-4.63,1.79-9.57,2.92-14.44,3.85-10.42,2-21.05,2.59-31.63,2.72-6.05.07-12.11-.02-18.16-.11-1.93-.03-1.93,2.97,0,3h0Z"/>
      <path class="cls-3" d="M380.23,335.04c-9.39,11.97-14.48,26.97-14.16,42.2.04,1.93,3.04,1.93,3,0-.31-14.38,4.39-28.74,13.28-40.07,1.18-1.5-.93-3.64-2.12-2.12h0Z"/>
      <path class="cls-3" d="M303.99,302.61c.14.14.27.29.39.44-.15-.19.17.24.2.29.19.29.35.59.51.9.07.16.08.18.03.05.04.09.07.18.11.28.07.19.13.37.18.56.04.14.07.29.1.43.02.1.04.19.05.29-.02-.16-.02-.14,0,.04.03.36.04.71.03,1.07,0,.05-.06.63-.02.36-.03.2-.07.4-.12.6-.2.82-.35,1.16-.8,1.88-.42.67-.16,1.68.54,2.05.74.39,1.61.17,2.05-.54,2.15-3.43,1.64-7.9-1.14-10.81-.54-.57-1.58-.59-2.12,0s-.58,1.51,0,2.12h0Z"/>
      <path class="cls-3" d="M307.44,288.26c-8.12.86-15.92-1.61-23.87-2.8-7.5-1.12-15.35-1.16-22.12,2.73-3.27,1.88-6.11,4.65-7.77,8.06-.71,1.46-.4,3.24,1.08,4.1,1.32.77,3.39.39,4.1-1.08,3.46-7.13,11.86-8.95,19.33-8.44,9.82.66,19.28,4.47,29.24,3.42,1.61-.17,3-1.26,3-3,0-1.49-1.38-3.17-3-3h0Z"/>
      <path class="cls-3" d="M330.44,292.87c7.7,4.44,15.73-.38,23.53-1.68,6.61-1.1,13.63-.13,19.89,2.39,3.49,1.4,6.81,3.42,9.67,5.85,1.23,1.05,3.03,1.21,4.24,0,1.08-1.08,1.24-3.19,0-4.24-5.66-4.82-12.49-8.19-19.81-9.58-7.69-1.46-15.12-.72-22.56,1.58-3.76,1.16-8.24,2.63-11.94.5-3.35-1.93-6.38,3.25-3.03,5.18h0Z"/>
      <path class="cls-3" d="M373.27,284.55c4.22,1.81,8.22,4.07,11.94,6.75.78.57,1.53-.74.76-1.3-3.72-2.68-7.72-4.94-11.94-6.75-.38-.16-.8-.11-1.03.27-.19.31-.1.87.27,1.03h0Z"/>
      <path class="cls-3" d="M259.63,287.25c-3.3,1.74-6.27,4.09-8.71,6.9-.63.73.43,1.79,1.06,1.06,2.37-2.73,5.21-4.99,8.41-6.67.85-.45.1-1.74-.76-1.3h0Z"/>
      <path class="cls-3" d="M275.72,299.54c8.69-.28,17.39-.25,26.08.1.97.04.96-1.46,0-1.5-8.69-.35-17.39-.39-26.08-.1-.96.03-.97,1.53,0,1.5h0Z"/>
      <path class="cls-3" d="M337.67,299.01c9.02.24,18.05.23,27.07-.03.96-.03.97-1.53,0-1.5-9.02.27-18.05.28-27.07.03-.97-.03-.96,1.47,0,1.5h0Z"/>
      <path class="cls-3" d="M333.61,300.73c-.73.6-1.11,1.52-1.4,2.4-.3.93-.6,1.88-.75,2.85-.33,2.08-.07,4.13,1.32,5.79.51.6,1.61.56,2.12,0,.59-.64.54-1.48,0-2.12.18.21-.14-.21-.17-.26s-.25-.55-.15-.27c-.11-.31-.2-.63-.25-.95.05.32-.02-.25-.02-.31,0-.14,0-.28,0-.42.01-.48.03-.58.11-.98.15-.79.39-1.56.63-2.33.05-.17.11-.34.17-.51.02-.07.19-.41.05-.14.08-.16.16-.31.26-.45-.18.26.15-.12.21-.17.61-.5.56-1.61,0-2.12-.65-.59-1.47-.53-2.12,0h0Z"/>
      <path class="cls-3" d="M262.48,312.13c2.43-1.41,4.13-3.63,6.19-5.48,1.12-1.01,2.37-1.88,3.85-2.24,1.82-.44,3.8-.26,5.65-.24,3.95.04,7.89.07,11.84.11,3.33.03,7.38-.49,10.24,1.56.78.56,1.53-.74.76-1.3-2.86-2.06-6.66-1.73-10.01-1.76-4.27-.04-8.55-.08-12.82-.12-3.44-.03-6.65-.16-9.51,2.03-2.46,1.89-4.24,4.56-6.94,6.13-.83.48-.08,1.78.76,1.3h0Z"/>
      <path class="cls-3" d="M293.16,304.44c2.75,2.96,4.98,6.3,6.7,9.95l.65-1.13c-6.77-.52-13.56-.7-20.34-.52-3.24.08-6.57.39-9.76-.33-1.28-.29-2.88-.71-3.91-1.58-.47-.4-.86-.97-1.27-1.44-.64-.73-1.7.34-1.06,1.06.41.47.8,1.02,1.27,1.44.89.79,2.23,1.28,3.36,1.64,3.2,1.01,6.6.86,9.91.75,7.27-.24,14.55-.07,21.81.48.62.05.87-.66.65-1.13-1.77-3.77-4.1-7.21-6.93-10.25-.66-.71-1.72.35-1.06,1.06h0Z"/>
      <path class="cls-3" d="M339.51,305.5c6.51-1.8,13.27-1.29,19.94-1.51,3.27-.11,6.79-.75,9.87.7,2.63,1.25,4.62,3.51,6.52,5.65.64.72,1.7-.34,1.06-1.06-1.94-2.19-3.99-4.47-6.65-5.8-3.13-1.57-6.49-1.18-9.87-1.03-7.11.32-14.33-.32-21.27,1.6-.93.26-.53,1.7.4,1.45h0Z"/>
      <path class="cls-3" d="M346.22,303.5c-3.33,1.85-6.01,4.91-7.2,8.55-.2.62-.41,1.39.12,1.92s1.49.41,2.18.42c2.61.01,5.23.03,7.84.02,5.06-.01,10.12-.09,15.18-.34,3.78-.19,9.49.22,11.43-3.87.41-.87-.88-1.63-1.3-.76-.91,1.92-2.91,2.55-4.89,2.78s-3.83.28-5.74.37c-4.16.2-8.32.28-12.48.31-2.04.01-4.08.01-6.12,0-.98,0-1.96,0-2.94-.01-.48,0-.99.04-1.47,0-.67-.06-.52,0-.3-.61,1.14-3.2,3.5-5.83,6.45-7.48.84-.47.09-1.76-.76-1.3h0Z"/>
      <path class="cls-7" d="M287.83,307.02c0,.86-.7,1.57-1.57,1.57s-1.57-.7-1.57-1.57.7-1.57,1.57-1.57,1.57.7,1.57,1.57Z"/>
      <circle class="cls-4" cx="361.07" cy="307.26" r="1.64"/>
      <circle class="cls-5" cx="318.35" cy="318.35" r="318.35"/>
    </g>
  </g>
</svg>