<?xml version="1.0" encoding="UTF-8"?>
<svg id="Layer_2" data-name="Layer 2" xmlns="http://www.w3.org/2000/svg" xmlns:xlink="http://www.w3.org/1999/xlink" viewBox="0 0 636.69 636.69">
  <defs>
    <style>
      .cls-1 {
        fill: #e1e1e1;
      }

      .cls-1, .cls-2, .cls-3, .cls-4, .cls-5 {
        stroke-width: 0px;
      }

      .cls-6 {
        stroke-linejoin: round;
      }

      .cls-6, .cls-3, .cls-7 {
        fill: none;
      }

      .cls-6, .cls-7 {
        stroke: #000;
        stroke-width: 3px;
      }

      .cls-4 {
        fill: #e22967;
        filter: url(#drop-shadow-2);
      }

      .cls-7 {
        stroke-miterlimit: 10;
      }

      .cls-5 {
        fill: #ffc619;
        filter: url(#drop-shadow-1);
      }
    </style>
    <filter id="drop-shadow-1" filterUnits="userSpaceOnUse">
      <feOffset dx="7" dy="7"/>
      <feGaussianBlur result="blur" stdDeviation="6"/>
      <feFlood flood-color="#000" flood-opacity=".6"/>
      <feComposite in2="blur" operator="in"/>
      <feComposite in="SourceGraphic"/>
    </filter>
    <filter id="drop-shadow-2" filterUnits="userSpaceOnUse">
      <feOffset dx="7" dy="7"/>
      <feGaussianBlur result="blur-2" stdDeviation="8"/>
      <feFlood flood-color="#000" flood-opacity=".4"/>
      <feComposite in2="blur-2" operator="in"/>
      <feComposite in="SourceGraphic"/>
    </filter>
  </defs>
  <g id="Layer_1-2" data-name="Layer 1">
    <g>
      <path class="cls-1" d="M512.85,318.35c0,68.01-34.91,127.87-87.78,162.63-30.64,20.15-67.31,31.87-106.72,31.87s-76.08-11.72-106.72-31.87c-52.87-34.76-87.78-94.62-87.78-162.63,0-107.42,87.08-194.5,194.5-194.5s194.5,87.08,194.5,194.5Z"/>
      <path class="cls-5" d="M426.31,480.98c-30.64,20.15-67.31,31.87-106.72,31.87s-76.08-11.72-106.72-31.87c26.72-28.4,64.65-46.13,106.72-46.13s80,17.73,106.72,46.13Z"/>
      <path class="cls-4" d="M412.49,311.68c-1.64,24.79-12.05,42.76-17.74,51.13-4.81,7.09-23.29,33.39-58.96,42.27-8.67,2.15-37.72,9.38-66.78-7.31-33.45-19.21-40.16-54.75-41.22-61.04-1.23-7.33-6.77-40.21,14.09-62.61,3.39-3.64,12.67-13.6,27.13-16.7,10.73-2.29,17.26.71,24.77-.12l9.21-3.07c8.57-4.95,8.51-12.43,16.11-18.2,18.94-14.38,65.48-2.91,84.52,27.65,10.89,17.47,9.65,36.14,8.87,48h0Z"/>
      <path class="cls-7" d="M347.97,373.22c10.31,8.54,21.16,10.86,26.09,6.78,1.84-1.52,4.76-5.49,3.91-9.13-.68-2.91-3.34-3.75-3.13-6.26.18-2.17,2.25-2.63,3.91-5.22,2.19-3.4,2.2-8.21,1.04-10.17-2.52-4.29-15.2-2.8-31.3,3.65"/>
      <path class="cls-2" d="M368.97,357.83c-4.76,1.34-7.82,8.03-6.2,10.11.91,1.16,3.24.8,4.43.39,4.63-1.58,6.58-8.7,4.83-10.37-.8-.77-2.34-.33-3.07-.13h.01Z"/>
      <path class="cls-2" d="M303.77,262.43c-6.68,4.75-15.91,2.42-15.99,1.47-.06-.71,4.98-.88,5.92-3.82.37-1.18-.24-1.8.08-2.78l-16.68-20.49.96-1.75c1.78-3.28,4.95-5.57,8.62-6.24l3.37-.61c9.13,15.04,12,21.93,12.55,25.23.03.16.07.45.14.8,0,.02.02.05.02.07.23.97.7,2.32,1.75,2.69,1.81.65,4.06-2.11,4.45-1.76.42.38-1.43,4.52-5.19,7.19h0Z"/>
      <path class="cls-2" d="M302.99,254.23l-.23.08s0-.05-.02-.07h.25Z"/>
      <line class="cls-6" x1="306.9" y1="305.73" x2="310.12" y2="309.73"/>
      <line class="cls-6" x1="302.71" y1="310.55" x2="306.99" y2="313.39"/>
      <line class="cls-6" x1="299.82" y1="317.58" x2="304.85" y2="318.64"/>
      <path class="cls-1" d="M339.61,327.21c-2.55,9.58-10.72,9.02-20.3,6.47-9.57-2.55-16.93-6.14-14.38-15.71,2.41-9.04,11.3-14.62,20.34-13.07.54.09,1.08.21,1.62.35,6.08,1.62,10.6,6.18,12.43,11.75,1.05,3.19,1.22,6.72.29,10.21h0Z"/>
      <path class="cls-2" d="M339.32,317c-1.28,4.85-3.84,8.15-6.78,8.15-4.24,0-7.68-6.86-7.68-15.32,0-1.72.14-3.38.41-4.93.54.09,1.08.21,1.62.35,6.08,1.62,10.6,6.18,12.43,11.75Z"/>
      <line class="cls-6" x1="388.48" y1="298.87" x2="386.3" y2="303.52"/>
      <line class="cls-6" x1="393.69" y1="302.56" x2="390.22" y2="306.33"/>
      <line class="cls-6" x1="398.17" y1="308.71" x2="393.53" y2="310.93"/>
      <path class="cls-1" d="M383.43,328.75c-8.58,4.96-16.32,7.63-21.28-.94-4.97-8.58-2.04-19.56,6.53-24.53,2.55-1.48,5.31-2.25,8.06-2.38,5.57-.29,11.11,2.04,14.77,6.49.63.75,1.2,1.56,1.7,2.43,4.96,8.58-1.2,13.96-9.78,18.93Z"/>
      <path class="cls-2" d="M391.51,307.39c-.16,8.17-3.53,14.7-7.67,14.7s-7.68-6.86-7.68-15.32c0-2.08.21-4.06.58-5.87,5.57-.29,11.11,2.04,14.77,6.49Z"/>
      <circle class="cls-3" cx="318.35" cy="318.35" r="318.35"/>
    </g>
  </g>
</svg>