<?xml version="1.0" encoding="UTF-8"?>
<svg id="Layer_2" data-name="Layer 2" xmlns="http://www.w3.org/2000/svg" xmlns:xlink="http://www.w3.org/1999/xlink" viewBox="0 0 636.69 636.69">
  <defs>
    <style>
      .cls-1 {
        fill: #a3a3a3;
      }

      .cls-1, .cls-2, .cls-3, .cls-4, .cls-5, .cls-6, .cls-7, .cls-8, .cls-9, .cls-10, .cls-11 {
        stroke-width: 0px;
      }

      .cls-2 {
        filter: url(#drop-shadow-4);
      }

      .cls-2, .cls-5 {
        fill: #63899e;
      }

      .cls-3, .cls-10, .cls-11 {
        fill: #e1e1e1;
      }

      .cls-4 {
        filter: url(#drop-shadow-8);
      }

      .cls-4, .cls-9 {
        fill: #789eb3;
      }

      .cls-5 {
        filter: url(#drop-shadow-6);
      }

      .cls-6 {
        fill: none;
      }

      .cls-7 {
        fill: #6e93a2;
        filter: url(#drop-shadow-7);
      }

      .cls-8 {
        fill: #30393d;
        filter: url(#drop-shadow-1);
      }

      .cls-9 {
        filter: url(#drop-shadow-5);
      }

      .cls-10 {
        filter: url(#drop-shadow-3);
      }

      .cls-11 {
        filter: url(#drop-shadow-2);
      }
    </style>
    <filter id="drop-shadow-1" filterUnits="userSpaceOnUse">
      <feOffset dx="7" dy="7"/>
      <feGaussianBlur result="blur" stdDeviation="8"/>
      <feFlood flood-color="#000" flood-opacity=".4"/>
      <feComposite in2="blur" operator="in"/>
      <feComposite in="SourceGraphic"/>
    </filter>
    <filter id="drop-shadow-2" filterUnits="userSpaceOnUse">
      <feOffset dx="7" dy="18"/>
      <feGaussianBlur result="blur-2" stdDeviation="7"/>
      <feFlood flood-color="#000" flood-opacity=".4"/>
      <feComposite in2="blur-2" operator="in"/>
      <feComposite in="SourceGraphic"/>
    </filter>
    <filter id="drop-shadow-3" filterUnits="userSpaceOnUse">
      <feOffset dx="7" dy="18"/>
      <feGaussianBlur result="blur-3" stdDeviation="7"/>
      <feFlood flood-color="#000" flood-opacity=".4"/>
      <feComposite in2="blur-3" operator="in"/>
      <feComposite in="SourceGraphic"/>
    </filter>
    <filter id="drop-shadow-4" filterUnits="userSpaceOnUse">
      <feOffset dx="7" dy="7"/>
      <feGaussianBlur result="blur-4" stdDeviation="5"/>
      <feFlood flood-color="#000" flood-opacity=".6"/>
      <feComposite in2="blur-4" operator="in"/>
      <feComposite in="SourceGraphic"/>
    </filter>
    <filter id="drop-shadow-5" filterUnits="userSpaceOnUse">
      <feOffset dx="2" dy="7"/>
      <feGaussianBlur result="blur-5" stdDeviation="5"/>
      <feFlood flood-color="#000" flood-opacity=".45"/>
      <feComposite in2="blur-5" operator="in"/>
      <feComposite in="SourceGraphic"/>
    </filter>
    <filter id="drop-shadow-6" filterUnits="userSpaceOnUse">
      <feOffset dx="7" dy="7"/>
      <feGaussianBlur result="blur-6" stdDeviation="5"/>
      <feFlood flood-color="#000" flood-opacity=".6"/>
      <feComposite in2="blur-6" operator="in"/>
      <feComposite in="SourceGraphic"/>
    </filter>
    <filter id="drop-shadow-7" filterUnits="userSpaceOnUse">
      <feOffset dx="7" dy="7"/>
      <feGaussianBlur result="blur-7" stdDeviation="5"/>
      <feFlood flood-color="#000" flood-opacity=".6"/>
      <feComposite in2="blur-7" operator="in"/>
      <feComposite in="SourceGraphic"/>
    </filter>
    <filter id="drop-shadow-8" filterUnits="userSpaceOnUse">
      <feOffset dx="2" dy="7"/>
      <feGaussianBlur result="blur-8" stdDeviation="5"/>
      <feFlood flood-color="#000" flood-opacity=".45"/>
      <feComposite in2="blur-8" operator="in"/>
      <feComposite in="SourceGraphic"/>
    </filter>
  </defs>
  <g id="Layer_1-2" data-name="Layer 1">
    <g>
      <path class="cls-3" d="M512.85,318.35c0,68.01-34.91,127.87-87.78,162.63-30.64,20.15-67.31,31.87-106.72,31.87s-76.08-11.72-106.72-31.87c-52.87-34.76-87.78-94.62-87.78-162.63,0-107.42,87.08-194.5,194.5-194.5s194.5,87.08,194.5,194.5Z"/>
      <path class="cls-1" d="M295.06,511.46c-1.42-.16-2.84-.35-4.25-.56-12.14-34.58-30.7-50.93-42.52-58.24,12.24-6.68,25.53-11.66,39.56-14.64h0c9.17,18.53,8.29,55.42,7.2,73.44h0Z"/>
      <path class="cls-8" d="M264.4,401.56c-14.91-7.71-27.62-15.33-25.31-40.43.71-29.18,6.82-43.52.78-47.48-11.16-5.95-18.01,12.48-18.78,14.35-6.91-14.12,3.82-27.64,12.52-44.61.35-5.55-3.22-7.3-5.74-13.83-6.33-21.73,6.99-42.25,17.74-47.35,2.36,1.3-4.28,14.27-.78,16.83,5.81,2.62,21.6-13.75,24.65-16.04,7.99-5.62,16.59-.37,32.48,1.57,26.49,2.94,47.66,2.56,60.27-29.34,3.74-.03,7.43,9.38,8.61,17.22,2.34,15.62-5.25,25.42-2.35,27.39,3.19,2.16,16.74-6.66,21.91-20.35,4.55-12.05.47-22.2,3.13-23.09,23.57,7.56,17.27,72.84,7.43,83.74-6.4,11.55,17.21,5.66,14.09-14.87,6.71,7.2,2.42,60.32-25.52,62.17-3.92,15.56,8.77,41.89-12.44,61.87-29.48,19.9-73.77,28.03-112.69,12.25h0Z"/>
      <path class="cls-11" d="M299.27,341.55c-2.09,12.48-12.9,14.94-25.39,12.85-12.48-2.09-21.91-7.93-19.82-20.42,2.09-12.49,13.9-20.91,26.39-18.82,12.48,2.09,20.91,13.9,18.82,26.39h0Z"/>
      <path class="cls-10" d="M378.11,334.18c1.98,12.5-7.49,18.26-19.99,20.25-12.5,1.99-23.3-.56-25.28-13.06-1.98-12.5,6.54-24.24,19.04-26.23,12.5-1.99,24.24,6.54,26.23,19.04h0Z"/>
      <path class="cls-1" d="M341.64,511.46c1.42-.16,2.84-.35,4.25-.56,12.14-34.58,30.7-50.93,42.52-58.24-12.24-6.68-25.53-11.66-39.56-14.64h0c-9.17,18.53-8.29,55.42-7.2,73.44h0Z"/>
      <path class="cls-2" d="M290.81,510.9c-28.93-4.09-55.81-14.55-79.18-29.92,10.6-11.27,22.96-20.86,36.65-28.32h0c11.82,7.31,30.38,23.66,42.52,58.24h0Z"/>
      <path class="cls-9" d="M295.06,511.46c-1.42-.16-2.84-.35-4.25-.56-12.14-34.58-30.7-50.93-42.52-58.24h0c-6.68-4.13-11.21-5.36-11.21-5.36,0,0,15.83-28.96,40.85-19.58,4.19,1.57,7.43,5.25,9.93,10.3h0c9.17,18.53,8.29,55.42,7.2,73.44h0Z"/>
      <path class="cls-5" d="M345.89,510.9c28.93-4.09,55.81-14.55,79.18-29.92-10.6-11.27-22.96-20.86-36.65-28.32h0c-11.82,7.31-30.38,23.66-42.52,58.24h-.01Z"/>
      <path class="cls-7" d="M341.64,511.46c-7.64.92-15.41,1.39-23.29,1.39s-15.65-.47-23.29-1.39c1.09-18.02,1.97-54.91-7.2-73.44,9.83-2.08,20.03-3.17,30.49-3.17s20.66,1.09,30.49,3.17c-9.17,18.53-8.29,55.42-7.2,73.44h0Z"/>
      <path class="cls-4" d="M341.64,511.46c1.42-.16,2.84-.35,4.25-.56,12.14-34.58,30.7-50.93,42.52-58.24h0c6.68-4.13,11.21-5.36,11.21-5.36,0,0-15.83-28.96-40.85-19.58-4.19,1.57-7.43,5.25-9.93,10.3h0c-9.17,18.53-8.29,55.42-7.2,73.44h0Z"/>
      <circle class="cls-6" cx="318.35" cy="318.35" r="318.35"/>
    </g>
  </g>
</svg>