<?xml version="1.0" encoding="UTF-8"?>
<svg id="Layer_2" data-name="Layer 2" xmlns="http://www.w3.org/2000/svg" xmlns:xlink="http://www.w3.org/1999/xlink" viewBox="0 0 636.69 636.69">
  <defs>
    <style>
      .cls-1 {
        fill: #395a7b;
      }

      .cls-1, .cls-2, .cls-3, .cls-4, .cls-5, .cls-6, .cls-7, .cls-8, .cls-9, .cls-10, .cls-11, .cls-12, .cls-13 {
        stroke-width: 0px;
      }

      .cls-2 {
        fill: #e1e1e1;
      }

      .cls-4 {
        fill: #b54a50;
      }

      .cls-5 {
        fill: #74171f;
      }

      .cls-6 {
        fill: #e4e2e7;
      }

      .cls-7 {
        fill: none;
      }

      .cls-8 {
        fill: #d0d1cb;
        filter: url(#drop-shadow-1);
      }

      .cls-9 {
        filter: url(#drop-shadow-3);
      }

      .cls-9, .cls-11 {
        fill: #ffdf66;
      }

      .cls-10 {
        fill: #282a25;
      }

      .cls-12 {
        fill: #802254;
        filter: url(#drop-shadow-2);
      }

      .cls-13 {
        fill: #7a4831;
      }
    </style>
    <filter id="drop-shadow-1" filterUnits="userSpaceOnUse">
      <feOffset dx="-8" dy="7"/>
      <feGaussianBlur result="blur" stdDeviation="5"/>
      <feFlood flood-color="#000" flood-opacity=".49"/>
      <feComposite in2="blur" operator="in"/>
      <feComposite in="SourceGraphic"/>
    </filter>
    <filter id="drop-shadow-2" filterUnits="userSpaceOnUse">
      <feOffset dx="7" dy="7"/>
      <feGaussianBlur result="blur-2" stdDeviation="5"/>
      <feFlood flood-color="#000" flood-opacity=".6"/>
      <feComposite in2="blur-2" operator="in"/>
      <feComposite in="SourceGraphic"/>
    </filter>
    <filter id="drop-shadow-3" filterUnits="userSpaceOnUse">
      <feOffset dx="7" dy="7"/>
      <feGaussianBlur result="blur-3" stdDeviation="5"/>
      <feFlood flood-color="#000" flood-opacity=".6"/>
      <feComposite in2="blur-3" operator="in"/>
      <feComposite in="SourceGraphic"/>
    </filter>
  </defs>
  <g id="Layer_1-2" data-name="Layer 1">
    <g>
      <path class="cls-2" d="M512.85,305c0,28.49-6.13,55.54-17.13,79.92-15.27,33.83-39.92,62.51-70.65,82.71-8.8,5.79-18.1,10.88-27.82,15.2-23.21,10.32-48.82,16.22-75.76,16.64-1.05.02-2.09.03-3.14.03-16.9,0-33.29-2.16-48.93-6.22-5.18-1.33-10.27-2.88-15.27-4.63h0c-2.8-.98-5.58-2.02-8.32-3.13-12.04-4.84-23.48-10.85-34.19-17.89-52.87-34.76-87.78-94.62-87.78-162.63,0-107.42,87.08-194.5,194.5-194.5s194.5,87.08,194.5,194.5Z"/>
      <path class="cls-8" d="M463.73,386.49c-.33.76-.68,1.52-1.05,2.29-4.01,8.39-10.69,18.64-31.5,35.61-14.84,12.1-30.39,24.78-52.47,35.19-.04.02-.09.04-.14.06-13.12,5.37-32.48,11.81-56.21,15.22-19.94,2.87-37.75,2.42-40.96,2.32-11.03-.32-16.62.33-23.67-4.17-1.36-.87-5.69-.64-13.59-13.53-9.01-14.68-12.28-22.99-14.35-22.44-.58.16-.93.96-1.14,2.04-1.71-4.86-3.17-9.8-4.57-14.59-1.74-5.94-8.03-28.58-6.26-60.56.4-7.25,2.87-44.82,19.27-70.23,7.75-12.01,18.2-20.67,23.38-23.19.22-.11.47-.22.76-.35-.15.71-.28,1.47-.4,2.27h0c-.06.11-5.29,9.97-4.17,10.96.74.66,2.91-.75,4.69-1.83,0,0,3.27-1.97,10.98-5.44.04.1.09.19.17.26.87.75,4.77-.63,9.17-3.62,7.65-.78,16.36,4.31,22.99,8.28,9.92,5.95,21.22,15.26,41.48,44.35,18.44,26.49,15.85,28.51,25.3,36.26,14.67,12.04,31.66,15.99,45.91,19.31,17.93,4.16,31.73,4.5,36.26,4.69,3.46.15,6.83.43,10.12.84Z"/>
      <path class="cls-1" d="M256.66,283.39c-1.12-.99,4.11-10.85,4.17-10.95h0c.12-.81.25-1.57.4-2.28,1.36-.62,3.51-1.53,6.87-3.27,5.52-2.85,7.5-4.4,8.38-3.98.05.01.09.04.13.07,1.63,1.26-3.58,8.91-4.27,12.13-.09.42-.1.76-.01,1.01-7.71,3.47-10.98,5.44-10.98,5.44-1.78,1.08-3.95,2.49-4.69,1.83Z"/>
      <path class="cls-1" d="M322.36,474.86c23.73-3.41,43.09-9.85,56.21-15.22-5.11,2.41-10.58,4.69-16.46,6.82-34.71,12.54-62.37,11.75-83.54,11.15-11.42-.33-18.2-1.32-25.24-5.09-13.21-7.07-19.93-19.94-24.68-33.44.21-1.08.56-1.88,1.14-2.04,2.07-.55,5.34,7.76,14.35,22.44,7.9,12.89,12.23,12.66,13.59,13.53,7.05,4.5,12.64,3.85,23.67,4.17,3.21.1,21.02.55,40.96-2.32Z"/>
      <path class="cls-1" d="M463.73,386.49c-3.29-.41-6.66-.69-10.12-.84-4.53-.19-18.33-.53-36.26-4.69-14.25-3.32-31.24-7.27-45.91-19.31-9.45-7.75-6.86-9.77-25.3-36.26-20.26-29.09-31.56-38.4-41.48-44.35-6.63-3.97-15.34-9.06-22.99-8.28,5.94-4.02,12.79-10.96,14.41-19.56.81-4.33.49-10.23,4.66-13.11,2.33-1.61,4.94-1.32,6-1.57,4.75-1.12,23-5.41,39.92-2.87,5.93.89,13.6,4.44,28.69,11.48,20.45,9.54,33.14,15.54,48.52,26.35,8.97,6.3,14.9,10.64,21.66,18.26,2.91,3.28,11.76,13.72,18.26,30,.39.99.81,2.05,1.24,3.17,2.32,6,4.93,13.87,5.61,24,.03.25.05.49.06.74.19,3.35.88,19.04-6.97,36.84Z"/>
      <path class="cls-3" d="M412.99,327.15c-.88-.04-19.31-.63-24.85,12.52-3.97,9.43,1.75,18.63,2.35,19.57,5.68,8.83,17.72,13.54,27.98,9.59,10.14-3.91,13.24-14.24,13.7-15.85.62-2.2,3.2-11.33-2.35-18.59-5.12-6.69-13.54-7.09-16.83-7.24Z"/>
      <path class="cls-3" d="M297.81,250.21c2.21,2.35-5.28,13.6-11.98,20.7-.66.7-2.32,2.42-4.96,3.97-.73.43-6.88,4.02-8.65,2.34-2.16-2.06,3.36-11,5.46-14.39,1.11-1.79,4.21-6.59,8.93-10.14,0,0,2-1.5,6.31-3.05.79-.29,2-.68,3.33-.28.64.19,1.28.55,1.56.85Z"/>
      <path class="cls-5" d="M245.71,318.34c-3.38,1.44-4.04,7.09-4.3,18.2-.48,20.15-.71,30.23,2.74,40.3.46,1.34,3.59,10.31,8.8,17.61,25.45,35.62,95.99,25.16,104.67,23.87,21.75-3.23,43.71-10.58,43.24-13.89-.3-2.15-9.81-1.14-21.91-3.52-6.77-1.33-17.62-4.37-48.33-26.41-28.66-20.57-42.99-30.86-51.85-39.13-1.73-1.62-9.83-6.23-26.02-15.46-1.84-1.05-4.63-2.59-7.04-1.57Z"/>
      <path class="cls-4" d="M303.23,366.87c-11.6.01-19.27.09-27.98,3.52-4.72,1.86-9.85,3.88-13.89,8.41-10.36,11.6-9.4,34.89,2.93,48.33,11.65,12.7,29.46,12.26,34.24,11.93,18.19-1.23,18.82-12.22,45.78-19.96,9.79-2.81,11.35-1.83,32.09-7.04,6.45-1.62,26.38-6.67,26.02-8.8-.32-1.9-16.02,3.08-33.85-3.72-6.97-2.66-11.69-6.14-21.13-13.11-14.41-10.63-16.69-15.84-26.61-18.59-3.58-.99-8.26-.99-17.61-.98Z"/>
      <polygon class="cls-6" points="347.54 387.21 340.11 390.93 340.62 383.3 334.14 377.82 321 383.89 321.52 369.37 315.46 371.95 313.21 369.37 306.85 373.13 305.38 357.18 300.19 361.49 298.24 357.18 288.94 360.9 288.94 349.06 284.54 351.9 284.05 343.29 272.41 351.9 270.94 333.21 264.1 339.96 264.68 328.42 255.68 334.29 256.07 322.55 251.28 325.58 251.77 320.2 287.57 342.61 347.54 387.21"/>
      <path class="cls-6" d="M255.42,375.34l-5.02,6.33,3.85-7.43-2.97-9-5.38,5.8,3.46-8.48-4.7-10.11-2.48,7.04,6.72-14.15.85,12.13s1.76-8.41,1.89-9,1.17-14.87,1.17-14.87l-7.24,8.41,8.28-13.57-.59,15.2s6.07-12.13,6.07-10.3.72,9.39.72,9.39l-7.63,7.76,2.87,2.74,4.3-6.52,1.04,7.89-6.39,2.61s.97,6.98.97,6.52,6-7.24,6-7.24l-.33,8.54-5.54,2.8s1.7,11.54,3.33,6.39,4.11,1.7,4.11,1.7l-12.26,6.07,4.89-6.65Z"/>
      <path class="cls-12" d="M495.72,384.92c-15.27,33.83-39.92,62.51-70.65,82.71-8.8,5.79-18.1,10.88-27.82,15.2-22,9-39.54,11.91-44.32,12.65-5.39.83-18.29,2.5-31.44,3.99-15.74,1.78-31.84,3.29-35.87,2.79-3.26-.4-6.34-1.07-9.22-1.93-9.91-2.91-17.51-7.96-22.25-11.68h0c-1.36-1.08-2.49-2.04-3.37-2.81-.22-.19-.43-.37-.62-.54-5.29-4.66-20.2-19.18-21.66-39.13-.05-.73-.32-4.62.17-7.09.21-1.08.56-1.88,1.14-2.04,2.07-.55,5.34,7.76,14.35,22.44,7.9,12.89,12.23,12.66,13.59,13.53,7.05,4.5,12.64,3.85,23.67,4.17,3.21.1,21.02.55,40.96-2.32,23.73-3.41,43.09-9.85,56.21-15.22.05-.02.1-.04.14-.06,8.99-3.68,15.02-6.86,17.51-8.19,10.1-5.42,53.01-28.43,68.81-64.73.75-1.71,1.43-3.44,2.05-5.21,2.12-6.06,5.67-16.22,4.11-29.06-.14-1.19-.33-2.35-.55-3.48-2.85-15.15-11.27-25.11-9.62-26.26.58-.41,2.07.54,4.01,2.26,3.67,3.25,8.97,9.26,12.84,14.05,9.22,11.4,13.83,17.1,16.44,25.82,2.18,7.3,2.22,14.18,1.4,20.14Z"/>
      <g>
        <ellipse class="cls-9" cx="252.49" cy="505.85" rx="19.17" ry="28.3" transform="translate(-307.96 580.24) rotate(-71.04)"/>
        <path class="cls-13" d="M241.4,499.51c1.48.61,2.96,1.21,4.44,1.82.34.14.86.02,1.16-.15s.61-.54.69-.9c.09-.38.07-.81-.15-1.16s-.51-.53-.9-.69c-1.48-.61-2.96-1.21-4.44-1.82-.34-.14-.86-.02-1.16.15s-.61.54-.69.9c-.09.38-.07.81.15,1.16s.51.53.9.69h0Z"/>
        <path class="cls-13" d="M242.62,500.05c.41,2.78.19,5.7-.66,8.38-.28.89-.76,1.92-1.67,2.1-.14.03-.16.02-.36,0,.2.03-.19-.02-.04,0,.1,0-.15-.16-.03,0-.02-.03-.23-.34-.13-.21.03.07.03.06,0-.03-.03-.11-.03-.09-.01.04v-.14s-.02.08-.03.12c.04-.15.05-.18.02-.09-.04.09-.02.07.06-.07.45-.67.13-1.66-.54-2.05-.74-.43-1.6-.13-2.05.54-1.05,1.56-.22,3.81,1.42,4.58,1.99.93,4.14-.18,5.29-1.87s1.46-3.8,1.71-5.7c.28-2.14.22-4.26-.1-6.39-.12-.8-1.13-1.24-1.85-1.05-.86.24-1.17,1.04-1.05,1.85h0Z"/>
        <path class="cls-13" d="M254.91,497.8c-1.12-.71-2.48-.87-3.76-.61s-2.38,1.08-3.17,2.12c-1.47,1.94-1.8,5.42.3,7.05.58.45,1.33.7,2.07.65.95-.06,1.68-.49,2.24-1.26.22-.3.24-.82.15-1.16s-.36-.73-.69-.9c-.78-.41-1.56-.14-2.05.54-.02.02.2-.29.12-.16-.02.03-.06.05-.08.08-.01.02.27-.23.15-.13-.05.04-.22.11.02,0,.25-.11-.01-.02-.07,0-.15.07.25-.06.21-.03-.02.02-.13,0-.15,0-.04,0-.08,0-.11,0-.17.02.24.01.21.03-.06.03-.19-.06-.26-.07-.13-.01.17.06.18.08,0,0-.1-.06-.1-.06,0,0-.09-.06-.1-.06.06.01.27.24.12.08-.06-.06-.12-.14-.18-.2.27.24.09.11.01-.03-.02-.03-.04-.09-.06-.12,0,0,.11.3.06.15-.03-.1-.07-.2-.1-.3-.02-.09-.04-.18-.06-.27-.05-.26.03.34,0-.01-.01-.2-.01-.4,0-.6,0-.05,0-.09.01-.14.01-.2-.05.32-.02.12.02-.09.03-.18.05-.27.04-.2.1-.39.16-.58.02-.05.05-.12.06-.17,0,0-.13.29-.06.14.04-.08.08-.17.12-.25.09-.18.2-.35.31-.51.14-.21-.2.23.02-.02.06-.07.12-.14.19-.2s.13-.13.2-.19c.03-.03.08-.06.11-.09-.07.1-.24.18-.04.04.15-.1.31-.19.47-.27.04-.02.09-.03.12-.06,0,0-.3.11-.15.07.12-.03.23-.08.35-.11.1-.03.21-.05.31-.07.25-.05-.33.03,0,0,.23-.02.45.02.68.01,0,0-.33-.06-.18-.02.06.01.12.02.18.04.1.02.2.05.3.09.05.02.11.05.17.06-.06-.02-.29-.14-.11-.04.11.06.21.12.31.18.66.42,1.68.16,2.05-.54.39-.74.17-1.6-.54-2.05h0Z"/>
        <path class="cls-13" d="M247.32,505.13v3.44c.01,1.09-.05,2.2.03,3.29.11,1.38.81,2.71,2.32,2.82,1.17.09,2.52-.85,2.37-2.14-.09-.78-.62-1.54-1.5-1.5-.73.03-1.6.67-1.5,1.5.01.16.03.11.04-.17.07-.28.23-.48.46-.62-.13.07-.09.06.14-.05-.16.04-.11.03.15-.01-.16,0-.11,0,.15.03.15.04.27.12.37.23-.12-.12-.11-.11.02.04-.08-.15-.07-.13.01.05-.02-.07-.04-.15-.06-.23.02.2.03.22,0,.04,0-.16-.01-.32-.01-.48,0-.42,0-.83,0-1.25,0-1.67,0-3.34-.01-5.01,0-.78-.69-1.54-1.5-1.5s-1.5.66-1.5,1.5h0Z"/>
        <path class="cls-13" d="M261.65,498.95c-1.55-.4-3.32-.72-4.89-.23-1.83.58-2.86,2.09-3.1,3.95-.27,2.05-.19,4.17-.25,6.23-.07,2.22-.14,4.44-.21,6.66-.06,1.93,2.94,1.93,3,0,.11-3.68.23-7.36.34-11.05.03-.95-.09-2.47.93-2.87s2.34-.07,3.39.2c1.87.48,2.67-2.41.8-2.89h0Z"/>
        <path class="cls-13" d="M255.76,510.51c1.22-.35,2.44-.69,3.65-1.04.36-.1.7-.36.9-.69s.27-.8.15-1.16c-.25-.77-1.04-1.28-1.85-1.05-1.22.35-2.44.69-3.65,1.04-.36.1-.7.36-.9.69s-.27.8-.15,1.16c.25.77,1.04,1.28,1.85,1.05h0Z"/>
        <path class="cls-13" d="M268.92,502.47c-1.36-.97-2.98-1.78-4.67-1.17-1.96.7-2.15,2.53-2.3,4.34-.33,3.83-.66,7.66-.98,11.5-.07.81.74,1.5,1.5,1.5.87,0,1.43-.69,1.5-1.5.26-3.07.52-6.13.79-9.2.07-.77.13-1.53.2-2.3.03-.3-.05-1.31.23-1.53.53-.41,1.84.69,2.22.96.66.47,1.67.12,2.05-.54.44-.75.12-1.58-.54-2.05h0Z"/>
        <path class="cls-13" d="M264.1,510.49h.05c-.13.01-.27.03-.4.05.45-.06.91-.06,1.36,0l-.4-.05c.47.06.93.19,1.37.37l-.36-.15c.12.05.23.1.35.16.36.18.76.26,1.16.15.35-.1.73-.36.9-.69.18-.35.28-.77.15-1.16-.12-.36-.34-.72-.69-.9-.6-.3-1.24-.55-1.91-.66-.38-.06-.77-.11-1.16-.12-.41,0-.81.05-1.22.1-.34.05-.73.41-.9.69-.19.32-.27.8-.15,1.16s.34.71.69.9l.36.15c.27.07.53.07.8,0h0Z"/>
      </g>
      <path class="cls-11" d="M258.2,487.9c.17-.36.34-.71.54-1.05.03-.05.35-.49.19-.29.09-.11.19-.21.29-.31.13-.12.14-.12.02-.02.08-.05.16-.1.24-.14-.22.1.12,0,.19,0,.33,0,.77.15,1.16.26,1.94.57,3.88,1.14,5.81,1.72l-.66-2.51c-.51.66-1.03,1.32-1.54,1.98-.22.28-.45.55-.66.84-.19.18-.13.15.2-.07l.56.04s-.52-.3-.58-.33c-1.47-.84-2.94-1.69-4.41-2.53l-.76,2.8c1.56.08,3.04.34,4.55.78l-.36-2.74-1.55.7c-.74.34-.92,1.4-.54,2.05.44.76,1.31.87,2.05.54l1.55-.7c.53-.24.8-.96.72-1.49-.09-.59-.49-1.08-1.07-1.25-1.74-.51-3.54-.8-5.35-.89-1.51-.08-2.01,2.08-.76,2.8.87.5,1.73.99,2.6,1.49s1.77,1.13,2.72,1.52c1.2.49,2.19-.11,2.92-1.04.61-.79,1.22-1.57,1.84-2.36.34-.44.54-.89.39-1.46-.14-.51-.54-.9-1.05-1.05-1.11-.33-2.22-.66-3.34-.98s-2.25-.75-3.39-.97c-1.29-.25-2.5-.05-3.51.82-.72.62-1.2,1.5-1.59,2.35-.34.73-.21,1.62.54,2.05.65.38,1.71.2,2.05-.54h0Z"/>
      <path class="cls-3" d="M333.62,387.07c-15.12.98-29.97,4.87-43.6,11.48-3.22,1.56-6.78,3.32-8.32,6.75-.79,1.75,1.8,3.27,2.59,1.51,1.63-3.61,6.15-5.2,9.5-6.74,4.2-1.93,8.53-3.57,12.94-4.96,8.73-2.75,17.76-4.45,26.9-5.04,1.92-.12,1.93-3.13,0-3h0Z"/>
      <circle class="cls-6" cx="406.61" cy="339.37" r="4.19"/>
      <circle class="cls-6" cx="291.28" cy="258.56" r="2.93"/>
      <path class="cls-10" d="M313.84,315.36c.08,2.33.98,4.53,2.53,6.28.52.59,1.6.57,2.12,0,.58-.63.56-1.49,0-2.12-.08-.09-.15-.17-.22-.26-.09-.11-.15-.29.02.03-.09-.17-.24-.33-.34-.49-.21-.32-.39-.66-.55-1.01-.05-.1-.15-.43,0,0-.03-.08-.06-.16-.09-.24-.07-.19-.13-.38-.19-.57-.11-.38-.19-.77-.25-1.17l.05.4c-.04-.28-.06-.57-.07-.85-.03-.78-.67-1.54-1.5-1.5s-1.53.66-1.5,1.5h0Z"/>
      <path class="cls-10" d="M281.44,285.79c-1.74.17-3.48.34-5.22.52-.41.04-.76.14-1.06.44-.26.26-.46.69-.44,1.06.03.75.66,1.58,1.5,1.5,1.74-.17,3.48-.34,5.22-.52.41-.04.76-.14,1.06-.44.26-.26.46-.69.44-1.06-.03-.75-.66-1.58-1.5-1.5h0Z"/>
      <circle class="cls-7" cx="318.35" cy="318.35" r="318.35"/>
    </g>
  </g>
</svg>