<?xml version="1.0" encoding="UTF-8"?>
<svg id="Layer_2" data-name="Layer 2" xmlns="http://www.w3.org/2000/svg" viewBox="0 0 106.67 160">
  <defs>
    <style>
      .cls-1 {
        opacity: .98;
      }

      .cls-2 {
        fill: #fff;
      }

      .cls-2, .cls-3 {
        stroke-width: 0px;
      }

      .cls-3 {
        fill: #1e1e1e;
      }

      .cls-4 {
        fill: #cb666a;
        stroke: #cb666a;
        stroke-miterlimit: 10;
      }
    </style>
  </defs>
  <g id="Layer_1-2" data-name="Layer 1">
    <g>
      <g>
        <rect class="cls-2" x="0" y="0" width="106.67" height="160" rx="5" ry="5"/>
        <g>
          <path class="cls-4" d="M99.84,155.51h-34.53l38.53-34.34v30.34c0,2.21-1.79,4-4,4ZM67.93,154.51h31.91c1.65,0,3-1.35,3-3v-28.1l-34.91,31.1Z"/>
          <path class="cls-4" d="M2.84,38.83V8.51c0-2.21,1.79-4,4-4h34.52L2.84,38.83ZM6.84,5.51c-1.65,0-3,1.35-3,3v28.09L38.73,5.51H6.84Z"/>
        </g>
        <g>
          <path class="cls-4" d="M103.33,8.5v113.78l-36.72,32.72H6.83c-1.92,0-3.5-1.58-3.5-3.5V37.71L40.04,5h59.79c1.93,0,3.5,1.57,3.5,3.5Z"/>
          <path class="cls-4" d="M66.8,155.5H6.83c-2.21,0-4-1.79-4-4V37.49l.17-.15L39.85,4.5h59.98c2.21,0,4,1.79,4,4v114l-.17.15-36.86,32.85ZM3.83,37.94v113.57c0,1.65,1.35,3,3,3h59.59l36.41-32.44V8.5c0-1.65-1.35-3-3-3h-59.6L3.83,37.94Z"/>
        </g>
        <path class="cls-2" d="M32.08,150.18c-4.4,0-8.55-.93-12.33-2.82C-1.82,136.6-4.31,97.64,14.21,60.49,32.73,23.35,65.34,1.88,86.92,12.64c10.55,5.26,16.9,17.27,17.88,33.81.96,16.32-3.42,35.16-12.34,53.06s-21.33,32.74-34.95,41.79c-8.85,5.89-17.55,8.88-25.43,8.88ZM74.59,12.03c-19.46,0-43.51,19.56-58.42,49.45C-1.8,97.53.24,135.18,20.73,145.39c9.82,4.9,22.45,2.79,35.56-5.93,13.3-8.84,25.44-23.38,34.2-40.94s13.06-36.01,12.12-51.95c-.93-15.72-6.85-27.07-16.67-31.97-3.5-1.75-7.33-2.58-11.34-2.58Z"/>
      </g>
      <g class="cls-1">
        <path class="cls-2" d="M53.33,92.96c-2.07,0-3.92-.5-5.53-1.49-1.61-.99-2.88-2.42-3.8-4.27-.92-1.85-1.38-4.09-1.38-6.7s.46-4.85,1.38-6.7c.92-1.85,2.19-3.28,3.8-4.27,1.61-.99,3.46-1.49,5.53-1.49s3.92.5,5.53,1.49c1.61.99,2.89,2.42,3.82,4.27.93,1.85,1.4,4.09,1.4,6.7s-.47,4.85-1.4,6.7c-.94,1.85-2.21,3.28-3.82,4.27-1.61.99-3.46,1.49-5.53,1.49ZM53.33,90.65c1.59,0,2.97-.39,4.15-1.17,1.18-.78,2.1-1.92,2.77-3.43.67-1.5,1-3.35,1-5.55s-.33-4.04-1-5.55c-.67-1.51-1.59-2.65-2.77-3.43-1.18-.78-2.56-1.17-4.15-1.17s-2.91.39-4.11,1.17c-1.2.78-2.14,1.92-2.8,3.43-.67,1.5-1,3.35-1,5.55s.33,4.04,1,5.55c.67,1.51,1.6,2.65,2.8,3.43,1.2.78,2.57,1.17,4.11,1.17Z"/>
      </g>
      <path class="cls-3" d="M12.35,20.48c-1.08,0-2.04-.25-2.89-.76-.85-.5-1.52-1.24-2.02-2.2s-.74-2.14-.74-3.52.25-2.55.74-3.52,1.17-1.7,2.02-2.21,1.81-.76,2.89-.76,2.03.25,2.87.76,1.52,1.24,2.01,2.21.74,2.14.74,3.52-.25,2.55-.74,3.52-1.17,1.7-2.01,2.2c-.85.5-1.81.76-2.87.76ZM12.35,18.45c.62,0,1.16-.16,1.62-.48.46-.32.83-.81,1.09-1.47.26-.66.4-1.49.4-2.5s-.13-1.84-.4-2.5c-.26-.66-.63-1.15-1.09-1.47-.46-.32-1-.48-1.62-.48s-1.16.16-1.63.48c-.47.32-.84.81-1.11,1.47-.27.66-.4,1.49-.4,2.5s.13,1.84.4,2.5c.27.66.64,1.15,1.11,1.47.47.32,1.01.48,1.63.48Z"/>
      <path class="cls-3" d="M94.35,152.48c-1.08,0-2.04-.25-2.89-.76-.85-.5-1.52-1.24-2.02-2.2s-.74-2.14-.74-3.52.25-2.55.74-3.52,1.17-1.7,2.02-2.21,1.81-.76,2.89-.76,2.03.25,2.87.76,1.52,1.24,2.01,2.21.74,2.14.74,3.52-.25,2.55-.74,3.52-1.17,1.7-2.01,2.2c-.85.5-1.81.76-2.87.76ZM94.35,150.45c.62,0,1.16-.16,1.62-.48.46-.32.83-.81,1.09-1.47.26-.66.4-1.49.4-2.5s-.13-1.84-.4-2.5c-.26-.66-.63-1.15-1.09-1.47-.46-.32-1-.48-1.62-.48s-1.16.16-1.63.48c-.47.32-.84.81-1.11,1.47-.27.66-.4,1.49-.4,2.5s.13,1.84.4,2.5c.27.66.64,1.15,1.11,1.47.47.32,1.01.48,1.63.48Z"/>
    </g>
  </g>
</svg>