<?xml version="1.0" encoding="UTF-8"?>
<svg id="Layer_2" data-name="Layer 2" xmlns="http://www.w3.org/2000/svg" viewBox="0 0 106.67 160">
  <defs>
    <style>
      .cls-1 {
        opacity: .98;
      }

      .cls-2 {
        fill: #fff;
      }

      .cls-2, .cls-3 {
        stroke-width: 0px;
      }

      .cls-4 {
        fill: #ebc968;
        stroke: #ebc968;
        stroke-miterlimit: 10;
      }

      .cls-3 {
        fill: #1e1e1e;
      }
    </style>
  </defs>
  <g id="Layer_1-2" data-name="Layer 1">
    <g>
      <g>
        <rect class="cls-2" x="0" y="0" width="106.67" height="160" rx="5" ry="5"/>
        <g>
          <path class="cls-4" d="M99.84,155.51h-34.53l38.53-34.34v30.34c0,2.21-1.79,4-4,4ZM67.93,154.51h31.91c1.65,0,3-1.35,3-3v-28.1l-34.91,31.1Z"/>
          <path class="cls-4" d="M2.84,38.83V8.51c0-2.21,1.79-4,4-4h34.52L2.84,38.83ZM6.84,5.51c-1.65,0-3,1.35-3,3v28.09L38.73,5.51H6.84Z"/>
        </g>
        <g>
          <path class="cls-4" d="M103.33,8.5v113.78l-36.72,32.72H6.83c-1.92,0-3.5-1.58-3.5-3.5V37.71L40.04,5h59.79c1.93,0,3.5,1.57,3.5,3.5Z"/>
          <path class="cls-4" d="M66.8,155.5H6.83c-2.21,0-4-1.79-4-4V37.49l.17-.15L39.85,4.5h59.98c2.21,0,4,1.79,4,4v114l-.17.15-36.86,32.85ZM3.83,37.94v113.57c0,1.65,1.35,3,3,3h59.59l36.41-32.44V8.5c0-1.65-1.35-3-3-3h-59.6L3.83,37.94Z"/>
        </g>
        <path class="cls-2" d="M32.08,150.18c-4.4,0-8.55-.93-12.33-2.82-10.55-5.26-16.9-17.27-17.88-33.81-.96-16.32,3.42-35.16,12.34-53.06S35.55,27.75,49.16,18.7c13.79-9.17,27.2-11.33,37.76-6.06,10.55,5.26,16.9,17.27,17.88,33.81.96,16.32-3.42,35.16-12.34,53.06s-21.33,32.74-34.95,41.79c-8.85,5.89-17.55,8.88-25.43,8.88ZM74.59,12.02c-7.45,0-15.73,2.87-24.21,8.51-13.3,8.84-25.44,23.38-34.2,40.94S3.12,97.48,4.06,113.42c.93,15.72,6.85,27.07,16.67,31.97,9.82,4.9,22.45,2.79,35.56-5.93,13.3-8.84,25.44-23.38,34.2-40.94s13.06-36.01,12.12-51.95c-.93-15.72-6.85-27.07-16.67-31.97-3.47-1.73-7.29-2.58-11.35-2.58Z"/>
      </g>
      <g class="cls-1">
        <path class="cls-2" d="M43.93,92.75v-1.79l11.17-9.97c1.02-.91,1.79-1.71,2.3-2.4.51-.69.86-1.34,1.04-1.94.18-.61.27-1.18.27-1.71,0-1.42-.53-2.54-1.59-3.36-1.06-.82-2.63-1.23-4.7-1.23-1.59,0-2.99.22-4.21.67-1.22.44-2.26,1.13-3.13,2.06l-1.96-1.54c1.05-1.12,2.39-1.98,4.03-2.59,1.64-.61,3.47-.91,5.49-.91,1.82,0,3.39.26,4.72.79s2.36,1.29,3.09,2.29c.73,1,1.09,2.18,1.09,3.53,0,.79-.12,1.58-.36,2.35-.24.77-.68,1.58-1.31,2.43-.63.85-1.54,1.81-2.75,2.89l-10.25,9.17-.77-.98h16.67v2.24h-18.85Z"/>
      </g>
      <path class="cls-3" d="M7.4,20.3v-1.57l5.38-4.75c.44-.4.76-.74.98-1.04s.37-.58.44-.84c.08-.26.12-.5.12-.73,0-.58-.22-1.02-.65-1.34-.43-.32-1.06-.48-1.9-.48-.64,0-1.23.11-1.77.32-.53.22-.99.54-1.38.97l-1.75-1.24c.53-.66,1.24-1.17,2.13-1.54.89-.37,1.89-.55,3-.55.98,0,1.83.15,2.55.44.72.29,1.28.71,1.68,1.25s.6,1.18.6,1.91c0,.42-.06.83-.17,1.23-.12.4-.33.83-.66,1.28-.32.45-.79.95-1.41,1.5l-4.63,4.07-.52-.88h7.91v1.98H7.4Z"/>
      <path class="cls-3" d="M89.4,152.3v-1.57l5.38-4.75c.44-.4.76-.74.98-1.04s.37-.58.44-.84c.08-.26.12-.5.12-.73,0-.58-.22-1.02-.65-1.34-.43-.32-1.06-.48-1.9-.48-.64,0-1.23.11-1.77.32-.53.22-.99.54-1.38.97l-1.75-1.24c.53-.66,1.24-1.17,2.13-1.54.89-.37,1.89-.55,3-.55.98,0,1.83.15,2.55.44.72.29,1.28.71,1.68,1.25s.6,1.18.6,1.91c0,.42-.06.83-.17,1.23-.12.4-.33.83-.66,1.28-.32.45-.79.95-1.41,1.5l-4.63,4.07-.52-.88h7.91v1.98h-9.95Z"/>
    </g>
  </g>
</svg>