<?xml version="1.0" encoding="UTF-8"?>
<svg id="Layer_2" data-name="Layer 2" xmlns="http://www.w3.org/2000/svg" viewBox="0 0 106.67 160">
  <defs>
    <style>
      .cls-1 {
        opacity: .98;
      }

      .cls-2 {
        fill: #fff;
      }

      .cls-2, .cls-3 {
        stroke-width: 0px;
      }

      .cls-3 {
        fill: #1e1e1e;
      }

      .cls-4 {
        fill: #cb666a;
        stroke: #cb666a;
        stroke-miterlimit: 10;
      }
    </style>
  </defs>
  <g id="Layer_1-2" data-name="Layer 1">
    <g>
      <g>
        <rect class="cls-2" x="0" y="0" width="106.67" height="160" rx="5" ry="5"/>
        <g>
          <path class="cls-4" d="M99.84,155.51h-34.53l38.53-34.34v30.34c0,2.21-1.79,4-4,4ZM67.93,154.51h31.91c1.65,0,3-1.35,3-3v-28.1l-34.91,31.1Z"/>
          <path class="cls-4" d="M2.84,38.83V8.51c0-2.21,1.79-4,4-4h34.52L2.84,38.83ZM6.84,5.51c-1.65,0-3,1.35-3,3v28.09L38.73,5.51H6.84Z"/>
        </g>
        <g>
          <path class="cls-4" d="M103.33,8.5v113.78l-36.72,32.72H6.83c-1.92,0-3.5-1.58-3.5-3.5V37.71L40.04,5h59.79c1.93,0,3.5,1.57,3.5,3.5Z"/>
          <path class="cls-4" d="M66.8,155.5H6.83c-2.21,0-4-1.79-4-4V37.49l.17-.15L39.85,4.5h59.98c2.21,0,4,1.79,4,4v114l-.17.15-36.86,32.85ZM3.83,37.94v113.57c0,1.65,1.35,3,3,3h59.59l36.41-32.44V8.5c0-1.65-1.35-3-3-3h-59.6L3.83,37.94Z"/>
        </g>
        <path class="cls-2" d="M31.93,150.13c-4.31,0-8.42-.9-12.19-2.77-10.55-5.26-16.9-17.27-17.88-33.81-.96-16.32,3.42-35.16,12.34-53.06S35.55,27.75,49.16,18.7c13.79-9.17,27.2-11.33,37.76-6.06,21.57,10.76,24.06,49.72,5.54,86.87-15.28,30.65-40.17,50.63-60.52,50.63ZM74.59,12.02c-7.45,0-15.73,2.87-24.21,8.51-13.3,8.84-25.44,23.38-34.2,40.94S3.12,97.48,4.06,113.42c.93,15.72,6.85,27.07,16.67,31.97,20.49,10.21,51.78-10.81,69.76-46.87,17.98-36.06,15.93-73.7-4.55-83.92-3.47-1.73-7.29-2.58-11.35-2.58Z"/>
      </g>
      <g class="cls-1">
        <path class="cls-2" d="M52.53,92.96c-1.95,0-3.78-.29-5.51-.86-1.73-.57-3.12-1.34-4.17-2.29l1.34-2c.87.82,2.04,1.49,3.51,2.03,1.47.54,3.08.8,4.82.8,2.23,0,3.94-.44,5.13-1.33,1.19-.89,1.79-2.08,1.79-3.57s-.58-2.68-1.75-3.57-3-1.33-5.51-1.33h-1.92v-1.85l8.29-9.49.38.98h-14.98v-2.24h17.28v1.79l-8.29,9.48-1.34-.81h1.04c3.23,0,5.64.65,7.24,1.96,1.6,1.31,2.4,2.99,2.4,5.04,0,1.38-.36,2.61-1.08,3.71-.72,1.1-1.8,1.96-3.25,2.59-1.45.63-3.26.94-5.43.94Z"/>
      </g>
      <path class="cls-3" d="M11.8,20.48c-.94,0-1.86-.13-2.77-.38-.91-.25-1.67-.61-2.29-1.08l1.06-1.82c.49.37,1.09.67,1.79.9.71.23,1.43.34,2.18.34.89,0,1.59-.17,2.1-.51.51-.34.77-.81.77-1.4s-.23-1.03-.71-1.37c-.47-.34-1.22-.5-2.25-.5h-1.23v-1.6l3.86-4.28.35.9h-7.25v-1.98h9.18v1.57l-3.86,4.27-1.31-.7h.77c1.64,0,2.88.35,3.71,1.04.83.69,1.24,1.58,1.24,2.66,0,.71-.19,1.36-.58,1.97-.38.61-.97,1.09-1.76,1.45-.79.36-1.8.54-3.02.54Z"/>
      <path class="cls-3" d="M93.8,152.48c-.94,0-1.86-.13-2.77-.38-.91-.25-1.67-.61-2.29-1.08l1.06-1.82c.49.37,1.09.67,1.79.9.71.23,1.43.34,2.18.34.89,0,1.59-.17,2.1-.51.51-.34.77-.81.77-1.4s-.23-1.03-.71-1.37c-.47-.34-1.22-.5-2.25-.5h-1.23v-1.6l3.86-4.28.35.9h-7.25v-1.98h9.18v1.57l-3.86,4.27-1.31-.7h.77c1.64,0,2.88.35,3.71,1.04.83.69,1.24,1.58,1.24,2.66,0,.71-.19,1.36-.58,1.97-.38.61-.97,1.09-1.76,1.45-.79.36-1.8.54-3.02.54Z"/>
    </g>
  </g>
</svg>