<?xml version="1.0" encoding="UTF-8"?>
<svg id="Layer_2" data-name="Layer 2" xmlns="http://www.w3.org/2000/svg" viewBox="0 0 106.67 160">
  <defs>
    <style>
      .cls-1 {
        opacity: .98;
      }

      .cls-2 {
        fill: #fff;
      }

      .cls-2, .cls-3 {
        stroke-width: 0px;
      }

      .cls-3 {
        fill: #1e1e1e;
      }

      .cls-4 {
        fill: #acc77e;
        stroke: #acc77e;
        stroke-miterlimit: 10;
      }
    </style>
  </defs>
  <g id="Layer_1-2" data-name="Layer 1">
    <g>
      <g>
        <rect class="cls-2" x="0" y="0" width="106.67" height="160" rx="5" ry="5"/>
        <g>
          <path class="cls-4" d="M99.84,155.51h-34.53l38.53-34.34v30.34c0,2.21-1.79,4-4,4ZM67.93,154.51h31.91c1.65,0,3-1.35,3-3v-28.1l-34.91,31.1Z"/>
          <path class="cls-4" d="M2.84,38.83V8.51c0-2.21,1.79-4,4-4h34.52L2.84,38.83ZM6.84,5.51c-1.65,0-3,1.35-3,3v28.09L38.73,5.51H6.84Z"/>
        </g>
        <g>
          <path class="cls-4" d="M103.33,8.5v113.78l-36.72,32.72H6.83c-1.92,0-3.5-1.58-3.5-3.5V37.71L40.04,5h59.79c1.93,0,3.5,1.57,3.5,3.5Z"/>
          <path class="cls-4" d="M66.8,155.5H6.83c-2.21,0-4-1.79-4-4V37.49l.17-.15L39.85,4.5h59.98c2.21,0,4,1.79,4,4v114l-.17.15-36.86,32.85ZM3.83,37.94v113.57c0,1.65,1.35,3,3,3h59.59l36.41-32.44V8.5c0-1.65-1.35-3-3-3h-59.6L3.83,37.94Z"/>
        </g>
        <path class="cls-2" d="M32.08,150.18c-4.4,0-8.55-.93-12.33-2.82h0c-10.55-5.26-16.91-17.27-17.88-33.81-.96-16.32,3.42-35.16,12.34-53.06S35.55,27.75,49.16,18.7c13.79-9.17,27.2-11.33,37.76-6.06,21.57,10.75,24.06,49.72,5.54,86.87-8.92,17.9-21.33,32.74-34.95,41.79-8.85,5.89-17.55,8.88-25.43,8.88ZM74.59,12.02c-7.45,0-15.73,2.87-24.21,8.51-13.3,8.84-25.44,23.38-34.2,40.94S3.12,97.49,4.06,113.42c.93,15.72,6.85,27.07,16.67,31.97h0c9.82,4.9,22.45,2.79,35.56-5.93,13.3-8.84,25.44-23.38,34.2-40.94,17.98-36.06,15.93-73.7-4.55-83.92-3.47-1.73-7.29-2.58-11.35-2.58Z"/>
      </g>
      <g class="cls-1">
        <path class="cls-2" d="M42.18,86.31v-1.82l14.25-16.24h3.07l-14.13,16.24-1.5-.42h21.62v2.24h-23.31ZM57.35,92.75v-6.44l.08-2.24v-5.67h2.69v14.35h-2.76Z"/>
      </g>
      <path class="cls-3" d="M6.45,17.42v-1.6l6.65-8.12h2.68l-6.54,8.12-1.27-.36h10.68v1.96H6.45ZM13.87,20.3v-2.88l.06-1.96v-2.54h2.37v7.38h-2.43Z"/>
      <path class="cls-3" d="M88.45,149.42v-1.6l6.65-8.12h2.68l-6.54,8.12-1.27-.36h10.68v1.96h-12.21ZM95.87,152.3v-2.88l.06-1.96v-2.54h2.37v7.38h-2.43Z"/>
    </g>
  </g>
</svg>