<?xml version="1.0" encoding="UTF-8"?>
<svg id="Layer_2" data-name="Layer 2" xmlns="http://www.w3.org/2000/svg" viewBox="0 0 106.67 160">
  <defs>
    <style>
      .cls-1 {
        opacity: .98;
      }

      .cls-2 {
        fill: #fff;
      }

      .cls-2, .cls-3 {
        stroke-width: 0px;
      }

      .cls-3 {
        fill: #1e1e1e;
      }

      .cls-4 {
        fill: #cb666a;
        stroke: #cb666a;
        stroke-miterlimit: 10;
      }
    </style>
  </defs>
  <g id="Layer_1-2" data-name="Layer 1">
    <g>
      <g>
        <rect class="cls-2" x="0" y="0" width="106.67" height="160" rx="5" ry="5"/>
        <g>
          <path class="cls-4" d="M99.84,155.51h-34.53l38.53-34.34v30.34c0,2.21-1.79,4-4,4ZM67.93,154.51h31.91c1.65,0,3-1.35,3-3v-28.1l-34.91,31.1Z"/>
          <path class="cls-4" d="M2.84,38.83V8.51c0-2.21,1.79-4,4-4h34.52L2.84,38.83ZM6.84,5.51c-1.65,0-3,1.35-3,3v28.09L38.73,5.51H6.84Z"/>
        </g>
        <g>
          <path class="cls-4" d="M103.33,8.5v113.78l-36.72,32.72H6.83c-1.92,0-3.5-1.58-3.5-3.5V37.71L40.04,5h59.79c1.93,0,3.5,1.57,3.5,3.5Z"/>
          <path class="cls-4" d="M66.8,155.5H6.83c-2.21,0-4-1.79-4-4V37.49l.17-.15L39.85,4.5h59.98c2.21,0,4,1.79,4,4v114l-.17.15-36.86,32.85ZM3.83,37.94v113.57c0,1.65,1.35,3,3,3h59.59l36.41-32.44V8.5c0-1.65-1.35-3-3-3h-59.6L3.83,37.94Z"/>
        </g>
        <path class="cls-2" d="M32.08,150.18c-4.4,0-8.55-.93-12.33-2.82h0c-10.55-5.26-16.91-17.27-17.88-33.81-.96-16.32,3.42-35.16,12.34-53.06C32.73,23.35,65.34,1.88,86.92,12.64c21.57,10.75,24.06,49.72,5.54,86.87-8.92,17.9-21.33,32.74-34.95,41.79-8.85,5.89-17.55,8.88-25.43,8.88ZM74.59,12.03c-19.46,0-43.51,19.56-58.41,49.45-8.75,17.56-13.06,36.01-12.12,51.95.93,15.72,6.85,27.07,16.67,31.97h0c9.82,4.9,22.45,2.79,35.56-5.93,13.3-8.84,25.44-23.38,34.2-40.94,17.98-36.06,15.93-73.7-4.55-83.92-3.5-1.75-7.33-2.58-11.34-2.58Z"/>
      </g>
      <g class="cls-1">
        <path class="cls-2" d="M52.95,92.96c-1.92,0-3.75-.29-5.49-.86-1.74-.57-3.12-1.34-4.15-2.29l1.34-2c.84.82,2,1.49,3.48,2.03,1.47.54,3.07.8,4.78.8,2.28,0,4.01-.46,5.2-1.38,1.19-.92,1.79-2.13,1.79-3.62,0-1.05-.28-1.95-.83-2.71-.55-.76-1.48-1.35-2.78-1.77s-3.1-.63-5.38-.63h-5.72l1.38-12.29h14.71v2.24h-13.59l1.42-1.23-1.19,10.29-1.42-1.26h5.03c2.71,0,4.89.3,6.53.91,1.64.61,2.82,1.45,3.55,2.54s1.09,2.35,1.09,3.8-.36,2.63-1.08,3.76c-.72,1.13-1.79,2.02-3.23,2.68-1.43.65-3.25.98-5.45.98Z"/>
      </g>
      <path class="cls-3" d="M12.01,20.48c-.94,0-1.86-.13-2.77-.38-.91-.25-1.67-.61-2.29-1.08l1.06-1.82c.49.37,1.08.67,1.78.9.7.23,1.42.34,2.17.34.9,0,1.61-.17,2.12-.51.51-.34.77-.81.77-1.41,0-.4-.11-.74-.33-1.04-.22-.3-.59-.53-1.12-.69s-1.27-.24-2.22-.24h-3.24l.69-6.84h7.93v1.98h-7.02l1.33-1.12-.52,5.13-1.31-1.12h2.7c1.35,0,2.44.17,3.26.5.82.33,1.42.79,1.79,1.37s.56,1.25.56,1.99-.19,1.4-.58,2.02-.97,1.1-1.75,1.48-1.79.56-3.03.56Z"/>
      <path class="cls-3" d="M94.01,152.48c-.94,0-1.86-.13-2.77-.38-.91-.25-1.67-.61-2.29-1.08l1.06-1.82c.49.37,1.08.67,1.78.9.7.23,1.42.34,2.17.34.9,0,1.61-.17,2.12-.51.51-.34.77-.81.77-1.41,0-.4-.11-.74-.33-1.04-.22-.3-.59-.53-1.12-.69s-1.27-.24-2.22-.24h-3.24l.69-6.84h7.93v1.98h-7.02l1.33-1.12-.52,5.13-1.31-1.12h2.7c1.35,0,2.44.17,3.26.5.82.33,1.42.79,1.79,1.37s.56,1.25.56,1.99-.19,1.4-.58,2.02-.97,1.1-1.75,1.48-1.79.56-3.03.56Z"/>
    </g>
  </g>
</svg>