<?xml version="1.0" encoding="UTF-8"?>
<svg id="Layer_2" data-name="Layer 2" xmlns="http://www.w3.org/2000/svg" viewBox="0 0 106.67 160">
  <defs>
    <style>
      .cls-1 {
        opacity: .98;
      }

      .cls-2 {
        fill: #fff;
      }

      .cls-2, .cls-3 {
        stroke-width: 0px;
      }

      .cls-4 {
        fill: #ebc968;
        stroke: #ebc968;
        stroke-miterlimit: 10;
      }

      .cls-3 {
        fill: #1e1e1e;
      }
    </style>
  </defs>
  <g id="Layer_1-2" data-name="Layer 1">
    <g>
      <g>
        <rect class="cls-2" x="0" y="0" width="106.67" height="160" rx="5" ry="5"/>
        <g>
          <path class="cls-4" d="M99.84,155.51h-34.53l38.53-34.34v30.34c0,2.21-1.79,4-4,4ZM67.93,154.51h31.91c1.65,0,3-1.35,3-3v-28.1l-34.91,31.1Z"/>
          <path class="cls-4" d="M2.84,38.83V8.51c0-2.21,1.79-4,4-4h34.52L2.84,38.83ZM6.84,5.51c-1.65,0-3,1.35-3,3v28.09L38.73,5.51H6.84Z"/>
        </g>
        <g>
          <path class="cls-4" d="M103.33,8.5v113.78l-36.72,32.72H6.83c-1.92,0-3.5-1.58-3.5-3.5V37.71L40.04,5h59.79c1.93,0,3.5,1.57,3.5,3.5Z"/>
          <path class="cls-4" d="M66.8,155.5H6.83c-2.21,0-4-1.79-4-4V37.49l.17-.15L39.85,4.5h59.98c2.21,0,4,1.79,4,4v114l-.17.15-36.86,32.85ZM3.83,37.94v113.57c0,1.65,1.35,3,3,3h59.59l36.41-32.44V8.5c0-1.65-1.35-3-3-3h-59.6L3.83,37.94Z"/>
        </g>
        <path class="cls-2" d="M32.08,150.18c-4.4,0-8.55-.93-12.33-2.82h0c-10.55-5.26-16.91-17.27-17.88-33.81-.96-16.32,3.42-35.16,12.34-53.06C32.73,23.35,65.35,1.88,86.92,12.64c10.55,5.26,16.91,17.27,17.88,33.81.96,16.32-3.42,35.16-12.34,53.06s-21.33,32.74-34.95,41.79c-8.85,5.89-17.55,8.88-25.43,8.88ZM74.59,12.03c-19.46,0-43.51,19.56-58.41,49.45-8.75,17.56-13.06,36.01-12.12,51.95.93,15.72,6.85,27.07,16.67,31.97h0c9.82,4.9,22.45,2.79,35.56-5.93,13.3-8.84,25.44-23.38,34.2-40.94s13.06-36.01,12.12-51.95c-.93-15.72-6.85-27.07-16.67-31.97-3.5-1.75-7.33-2.58-11.34-2.58Z"/>
      </g>
      <g class="cls-1">
        <path class="cls-2" d="M54.66,92.96c-2.38,0-4.39-.48-6.03-1.45-1.64-.97-2.88-2.37-3.73-4.2-.84-1.83-1.27-4.03-1.27-6.6,0-2.78.52-5.1,1.55-6.98,1.04-1.88,2.48-3.3,4.32-4.25,1.84-.96,3.98-1.44,6.41-1.44,1.2,0,2.35.1,3.46.31,1.1.21,2.07.55,2.92,1.02l-1.11,2.03c-.69-.42-1.49-.72-2.38-.89-.9-.17-1.84-.26-2.84-.26-2.89,0-5.2.84-6.93,2.52-1.73,1.68-2.59,4.19-2.59,7.52,0,.51.03,1.15.1,1.91.06.76.21,1.51.44,2.26l-.96-.67c.28-1.21.83-2.25,1.65-3.1.82-.85,1.84-1.5,3.07-1.94,1.23-.44,2.57-.67,4.03-.67,1.79,0,3.37.3,4.72.91,1.36.61,2.42,1.46,3.19,2.55.77,1.1,1.15,2.39,1.15,3.89s-.4,2.84-1.19,3.97-1.89,2.01-3.28,2.62-2.96.93-4.7.93ZM54.54,90.82c1.28,0,2.41-.22,3.4-.65s1.76-1.05,2.32-1.86c.56-.8.84-1.74.84-2.82,0-1.61-.61-2.89-1.82-3.85-1.22-.96-2.86-1.43-4.93-1.43-1.38,0-2.59.23-3.61.7-1.02.47-1.83,1.1-2.42,1.91-.59.8-.88,1.72-.88,2.75,0,.89.27,1.73.81,2.54.54.81,1.34,1.46,2.4,1.96,1.06.5,2.36.75,3.9.75Z"/>
      </g>
      <path class="cls-3" d="M12.96,20.48c-1.21,0-2.25-.24-3.12-.72-.88-.48-1.54-1.19-2.01-2.11-.46-.93-.69-2.07-.69-3.41,0-1.45.28-2.68.84-3.67s1.34-1.75,2.33-2.27c1-.52,2.15-.77,3.46-.77.66,0,1.29.07,1.92.2.62.13,1.17.33,1.63.59l-.95,1.78c-.37-.23-.77-.38-1.21-.47s-.89-.13-1.38-.13c-1.26,0-2.27.36-3.02,1.09s-1.13,1.8-1.13,3.23c0,.24,0,.51.03.81s.07.6.16.9l-.79-.77c.23-.49.55-.9.96-1.23s.89-.58,1.45-.75,1.17-.25,1.82-.25c.89,0,1.68.16,2.37.49.69.32,1.25.77,1.66,1.35.41.58.62,1.26.62,2.05s-.22,1.53-.66,2.15c-.44.62-1.03,1.09-1.77,1.42-.75.33-1.59.5-2.53.5ZM12.85,18.65c.51,0,.97-.09,1.38-.26.41-.17.71-.42.93-.75.21-.32.32-.7.32-1.13,0-.65-.24-1.17-.72-1.56-.48-.39-1.13-.58-1.96-.58-.54,0-1.01.09-1.42.28-.41.19-.72.44-.95.77s-.35.7-.35,1.12c0,.38.11.74.32,1.06.21.32.53.58.95.77.42.19.92.29,1.51.29Z"/>
      <path class="cls-3" d="M94.96,152.48c-1.21,0-2.25-.24-3.12-.72-.88-.48-1.54-1.19-2.01-2.11-.46-.93-.69-2.07-.69-3.41,0-1.45.28-2.68.84-3.67s1.34-1.75,2.33-2.27c1-.52,2.15-.77,3.46-.77.66,0,1.29.07,1.92.2.62.13,1.17.33,1.63.59l-.95,1.78c-.37-.23-.77-.38-1.21-.47s-.89-.13-1.38-.13c-1.26,0-2.27.36-3.02,1.09s-1.13,1.8-1.13,3.23c0,.24,0,.51.03.81s.07.6.16.9l-.79-.77c.23-.49.55-.9.96-1.23s.89-.58,1.45-.75,1.17-.25,1.82-.25c.89,0,1.68.16,2.37.49.69.32,1.25.77,1.66,1.35.41.58.62,1.26.62,2.05s-.22,1.53-.66,2.15c-.44.62-1.03,1.09-1.77,1.42-.75.33-1.59.5-2.53.5ZM94.85,150.65c.51,0,.97-.09,1.38-.26.41-.17.71-.42.93-.75.21-.32.32-.7.32-1.13,0-.65-.24-1.17-.72-1.56-.48-.39-1.13-.58-1.96-.58-.54,0-1.01.09-1.42.28-.41.19-.72.44-.95.77s-.35.7-.35,1.12c0,.38.11.74.32,1.06.21.32.53.58.95.77.42.19.92.29,1.51.29Z"/>
    </g>
  </g>
</svg>