<?xml version="1.0" encoding="UTF-8"?>
<svg id="Layer_2" data-name="Layer 2" xmlns="http://www.w3.org/2000/svg" viewBox="0 0 106.67 160">
  <defs>
    <style>
      .cls-1 {
        opacity: .98;
      }

      .cls-2 {
        fill: #fff;
      }

      .cls-2, .cls-3 {
        stroke-width: 0px;
      }

      .cls-3 {
        fill: #1e1e1e;
      }

      .cls-4 {
        fill: #acc77e;
        stroke: #acc77e;
        stroke-miterlimit: 10;
      }
    </style>
  </defs>
  <g id="Layer_1-2" data-name="Layer 1">
    <g>
      <g>
        <rect class="cls-2" x="0" y="0" width="106.67" height="160" rx="5" ry="5"/>
        <g>
          <path class="cls-4" d="M99.84,155.51h-34.53l38.53-34.34v30.34c0,2.21-1.79,4-4,4ZM67.93,154.51h31.91c1.65,0,3-1.35,3-3v-28.1l-34.91,31.1Z"/>
          <path class="cls-4" d="M2.84,38.83V8.51c0-2.21,1.79-4,4-4h34.52L2.84,38.83ZM6.84,5.51c-1.65,0-3,1.35-3,3v28.09L38.73,5.51H6.84Z"/>
        </g>
        <g>
          <path class="cls-4" d="M103.33,8.5v113.78l-36.72,32.72H6.83c-1.92,0-3.5-1.58-3.5-3.5V37.71L40.04,5h59.79c1.93,0,3.5,1.57,3.5,3.5Z"/>
          <path class="cls-4" d="M66.8,155.5H6.83c-2.21,0-4-1.79-4-4V37.49l.17-.15L39.85,4.5h59.98c2.21,0,4,1.79,4,4v114l-.17.15-36.86,32.85ZM3.83,37.94v113.57c0,1.65,1.35,3,3,3h59.59l36.41-32.44V8.5c0-1.65-1.35-3-3-3h-59.6L3.83,37.94Z"/>
        </g>
        <path class="cls-2" d="M32.08,150.18c-4.4,0-8.55-.93-12.33-2.82h0c-10.55-5.26-16.91-17.27-17.88-33.81-.96-16.32,3.42-35.16,12.34-53.06C32.73,23.35,65.35,1.88,86.92,12.64c10.55,5.26,16.91,17.27,17.88,33.81.96,16.32-3.42,35.16-12.34,53.06s-21.33,32.74-34.95,41.79c-8.85,5.89-17.55,8.88-25.43,8.88ZM74.59,12.03c-19.46,0-43.51,19.56-58.41,49.45-8.75,17.56-13.06,36.01-12.12,51.95.93,15.72,6.85,27.07,16.67,31.97h0c9.82,4.9,22.45,2.79,35.56-5.93,13.3-8.84,25.44-23.38,34.2-40.94s13.06-36.01,12.12-51.95c-.93-15.72-6.85-27.07-16.67-31.97-3.5-1.75-7.33-2.58-11.34-2.58Z"/>
      </g>
      <g class="cls-1">
        <path class="cls-2" d="M48.74,92.75l11.6-23.38.84,1.12h-16.63l1.42-1.23v5.81h-2.73v-6.83h19.74v1.79l-11.25,22.71h-3Z"/>
      </g>
      <path class="cls-3" d="M9.6,20.3l5.55-11.68.66,1.06h-7.66l1.2-1.13v3.28h-2.33v-4.12h10.49v1.57l-5.25,11.03h-2.66Z"/>
      <path class="cls-3" d="M91.6,152.3l5.55-11.68.66,1.06h-7.66l1.2-1.13v3.28h-2.33v-4.12h10.49v1.57l-5.25,11.03h-2.66Z"/>
    </g>
  </g>
</svg>