<?xml version="1.0" encoding="UTF-8"?>
<svg id="Layer_2" data-name="Layer 2" xmlns="http://www.w3.org/2000/svg" viewBox="0 0 106.67 160">
  <defs>
    <style>
      .cls-1 {
        opacity: .98;
      }

      .cls-2 {
        fill: #fff;
      }

      .cls-2, .cls-3, .cls-4 {
        stroke-width: 0px;
      }

      .cls-3 {
        fill: #428bca;
      }

      .cls-4 {
        fill: #1e1e1e;
      }
    </style>
  </defs>
  <g id="Layer_1-2" data-name="Layer 1">
    <g>
      <g>
        <rect class="cls-2" x="0" y="0" width="106.67" height="160" rx="5" ry="5"/>
        <g>
          <path class="cls-3" d="M99.84,155.51h-34.53l38.53-34.34v30.34c0,2.21-1.79,4-4,4ZM67.93,154.51h31.91c1.65,0,3-1.35,3-3v-28.1l-34.91,31.1Z"/>
          <path class="cls-3" d="M2.84,38.83V8.51c0-2.21,1.79-4,4-4h34.52L2.84,38.83ZM6.84,5.51c-1.65,0-3,1.35-3,3v28.09L38.73,5.51H6.84Z"/>
        </g>
        <g>
          <path class="cls-3" d="M103.33,8.5v113.78l-36.72,32.72H6.83c-1.92,0-3.5-1.58-3.5-3.5V37.71L40.04,5h59.79c1.93,0,3.5,1.57,3.5,3.5Z"/>
          <path class="cls-3" d="M66.8,155.5H6.83c-2.21,0-4-1.79-4-4V37.49l.17-.15L39.85,4.5h59.98c2.21,0,4,1.79,4,4v114l-.17.15-36.86,32.85ZM3.83,37.94v113.57c0,1.65,1.35,3,3,3h59.59l36.41-32.44V8.5c0-1.65-1.35-3-3-3h-59.6L3.83,37.94Z"/>
        </g>
        <path class="cls-2" d="M31.93,150.13c-4.31,0-8.42-.9-12.19-2.77C-1.82,136.6-4.31,97.64,14.21,60.49,32.73,23.35,65.34,1.88,86.92,12.64c10.55,5.26,16.91,17.27,17.88,33.81.96,16.32-3.42,35.16-12.34,53.06-15.28,30.65-40.17,50.63-60.52,50.63ZM74.59,12.03c-19.46,0-43.51,19.56-58.41,49.45C-1.8,97.53.24,135.18,20.73,145.39h0c3.5,1.75,7.33,2.58,11.34,2.58,19.46,0,43.51-19.56,58.41-49.45,8.75-17.56,13.06-36.01,12.12-51.95-.93-15.72-6.85-27.07-16.67-31.97-3.5-1.75-7.33-2.58-11.34-2.58Z"/>
      </g>
      <g class="cls-1">
        <path class="cls-2" d="M53.29,92.96c-2.15,0-4-.28-5.55-.84s-2.74-1.37-3.57-2.43c-.83-1.06-1.25-2.32-1.25-3.76s.4-2.6,1.21-3.59c.81-.99,1.98-1.76,3.53-2.29,1.55-.54,3.42-.8,5.62-.8s4.04.27,5.61.8c1.56.54,2.76,1.3,3.59,2.29.83.99,1.25,2.19,1.25,3.59s-.42,2.7-1.27,3.76c-.84,1.06-2.05,1.87-3.61,2.43s-3.42.84-5.57.84ZM53.29,80.67c-2,0-3.69-.24-5.09-.73-1.4-.49-2.46-1.2-3.21-2.12-.74-.92-1.11-2.02-1.11-3.31,0-1.35.39-2.51,1.17-3.48.78-.97,1.88-1.71,3.28-2.22,1.41-.51,3.06-.77,4.95-.77s3.55.26,4.97.77c1.42.51,2.53,1.25,3.32,2.22.79.97,1.19,2.13,1.19,3.48,0,1.28-.37,2.39-1.11,3.31-.74.92-1.82,1.63-3.25,2.12-1.42.49-3.13.73-5.13.73ZM53.29,90.82c2.38,0,4.24-.44,5.59-1.33s2.02-2.09,2.02-3.6-.67-2.71-2.02-3.59-3.21-1.31-5.59-1.31-4.24.44-5.57,1.31c-1.33.88-2,2.07-2,3.59s.67,2.72,2,3.6c1.33.89,3.19,1.33,5.57,1.33ZM53.29,78.99c2.1,0,3.74-.4,4.92-1.19,1.18-.79,1.77-1.85,1.77-3.19,0-1.4-.61-2.49-1.82-3.27-1.22-.78-2.84-1.17-4.86-1.17s-3.63.39-4.84,1.17c-1.2.78-1.8,1.86-1.8,3.24s.58,2.43,1.75,3.22c1.16.79,2.8,1.19,4.9,1.19Z"/>
      </g>
      <path class="cls-4" d="M12.32,20.48c-1.12,0-2.09-.15-2.9-.46-.82-.31-1.45-.74-1.91-1.31s-.68-1.25-.68-2.03.22-1.42.66-1.94c.44-.53,1.06-.93,1.88-1.21.82-.28,1.8-.41,2.96-.41s2.13.14,2.96.41c.83.28,1.47.68,1.91,1.21.44.53.67,1.18.67,1.94s-.23,1.46-.69,2.03-1.11,1.01-1.93,1.31c-.82.31-1.79.46-2.91.46ZM12.32,14.36c-1.04,0-1.94-.13-2.68-.4-.75-.26-1.32-.65-1.73-1.14s-.61-1.09-.61-1.79c0-.73.21-1.36.63-1.87.42-.52,1.01-.92,1.76-1.21.76-.29,1.63-.43,2.62-.43s1.88.14,2.64.43c.76.29,1.35.69,1.77,1.21.42.52.64,1.14.64,1.87s-.2,1.29-.61,1.79-.98.88-1.74,1.14c-.75.26-1.66.4-2.71.4ZM12.32,18.66c.93,0,1.66-.19,2.2-.56s.81-.87.81-1.49-.27-1.12-.81-1.48-1.27-.54-2.2-.54-1.66.18-2.19.54-.8.85-.8,1.48.27,1.12.8,1.49,1.26.56,2.19.56ZM12.32,12.9c.81,0,1.44-.16,1.89-.47.45-.31.68-.74.68-1.3s-.24-1-.7-1.32c-.47-.32-1.09-.48-1.86-.48s-1.39.16-1.84.48c-.46.32-.68.76-.68,1.32s.22.98.67,1.3c.44.31,1.06.47,1.86.47Z"/>
      <path class="cls-4" d="M94.32,152.48c-1.12,0-2.09-.15-2.9-.46-.82-.31-1.45-.74-1.91-1.31s-.68-1.25-.68-2.03.22-1.42.66-1.94c.44-.53,1.06-.93,1.88-1.21.82-.28,1.8-.41,2.96-.41s2.13.14,2.96.41c.83.28,1.47.68,1.91,1.21.44.53.67,1.18.67,1.94s-.23,1.46-.69,2.03-1.11,1.01-1.93,1.31c-.82.31-1.79.46-2.91.46ZM94.32,146.36c-1.04,0-1.94-.13-2.68-.4-.75-.26-1.32-.65-1.73-1.14s-.61-1.09-.61-1.79c0-.73.21-1.36.63-1.87.42-.52,1.01-.92,1.76-1.21.76-.29,1.63-.43,2.62-.43s1.88.14,2.64.43c.76.29,1.35.69,1.77,1.21.42.52.64,1.14.64,1.87s-.2,1.29-.61,1.79-.98.88-1.74,1.14c-.75.26-1.66.4-2.71.4ZM94.32,150.66c.93,0,1.66-.19,2.2-.56s.81-.87.81-1.49-.27-1.12-.81-1.48-1.27-.54-2.2-.54-1.66.18-2.19.54-.8.85-.8,1.48.27,1.12.8,1.49,1.26.56,2.19.56ZM94.32,144.9c.81,0,1.44-.16,1.89-.47.45-.31.68-.74.68-1.3s-.24-1-.7-1.32c-.47-.32-1.09-.48-1.86-.48s-1.39.16-1.84.48c-.46.32-.68.76-.68,1.32s.22.98.67,1.3c.44.31,1.06.47,1.86.47Z"/>
    </g>
  </g>
</svg>