<?xml version="1.0" encoding="UTF-8"?>
<svg id="Layer_2" data-name="Layer 2" xmlns="http://www.w3.org/2000/svg" viewBox="0 0 106.67 160">
  <defs>
    <style>
      .cls-1 {
        opacity: .98;
      }

      .cls-2 {
        fill: #fff;
      }

      .cls-2, .cls-3 {
        stroke-width: 0px;
      }

      .cls-4 {
        fill: #ebc968;
        stroke: #ebc968;
        stroke-miterlimit: 10;
      }

      .cls-3 {
        fill: #1e1e1e;
      }
    </style>
  </defs>
  <g id="Layer_1-2" data-name="Layer 1">
    <g>
      <g>
        <rect class="cls-2" x="0" y="0" width="106.67" height="160" rx="5" ry="5"/>
        <g>
          <path class="cls-4" d="M99.84,155.51h-34.53l38.53-34.34v30.34c0,2.21-1.79,4-4,4ZM67.93,154.51h31.91c1.65,0,3-1.35,3-3v-28.1l-34.91,31.1Z"/>
          <path class="cls-4" d="M2.84,38.83V8.51c0-2.21,1.79-4,4-4h34.52L2.84,38.83ZM6.84,5.51c-1.65,0-3,1.35-3,3v28.09L38.73,5.51H6.84Z"/>
        </g>
        <g>
          <path class="cls-4" d="M103.33,8.5v113.78l-36.72,32.72H6.83c-1.92,0-3.5-1.58-3.5-3.5V37.71L40.04,5h59.79c1.93,0,3.5,1.57,3.5,3.5Z"/>
          <path class="cls-4" d="M66.8,155.5H6.83c-2.21,0-4-1.79-4-4V37.49l.17-.15L39.85,4.5h59.98c2.21,0,4,1.79,4,4v114l-.17.15-36.86,32.85ZM3.83,37.94v113.57c0,1.65,1.35,3,3,3h59.59l36.41-32.44V8.5c0-1.65-1.35-3-3-3h-59.6L3.83,37.94Z"/>
        </g>
        <path class="cls-2" d="M32.08,150.18c-4.4,0-8.55-.93-12.33-2.82C-1.82,136.6-4.31,97.64,14.21,60.49,32.73,23.35,65.35,1.88,86.92,12.64c10.55,5.26,16.91,17.27,17.88,33.81.96,16.32-3.42,35.16-12.34,53.06s-21.33,32.74-34.95,41.79c-8.85,5.89-17.55,8.88-25.43,8.88ZM74.59,12.03c-19.46,0-43.51,19.56-58.41,49.45C-1.8,97.53.24,135.18,20.73,145.39h0c9.82,4.9,22.45,2.79,35.56-5.93,13.3-8.84,25.44-23.38,34.2-40.94s13.06-36.01,12.12-51.95c-.93-15.72-6.85-27.07-16.67-31.97-3.5-1.75-7.33-2.58-11.34-2.58Z"/>
      </g>
      <g class="cls-1">
        <path class="cls-2" d="M50.74,92.96c-1.2,0-2.35-.1-3.44-.31-1.09-.21-2.07-.55-2.94-1.02l1.11-2.03c.69.42,1.49.72,2.4.89.91.17,1.85.26,2.82.26,2.89,0,5.2-.84,6.93-2.52,1.73-1.68,2.59-4.19,2.59-7.52,0-.54-.03-1.18-.1-1.92-.06-.75-.21-1.49-.44-2.24l.96.67c-.26,1.21-.8,2.25-1.63,3.1-.83.85-1.86,1.5-3.07,1.94-1.22.44-2.57.67-4.05.67-1.77,0-3.33-.3-4.7-.91-1.37-.61-2.44-1.46-3.21-2.55-.77-1.1-1.15-2.39-1.15-3.89s.4-2.87,1.19-3.99c.79-1.12,1.89-1.99,3.28-2.61,1.4-.62,2.96-.93,4.7-.93,2.38,0,4.39.48,6.03,1.45,1.64.97,2.88,2.36,3.72,4.18.84,1.82,1.27,4.03,1.27,6.62,0,2.75-.52,5.08-1.55,6.96-1.04,1.89-2.48,3.31-4.32,4.27-1.84.96-3.98,1.44-6.41,1.44ZM52.32,80.78c1.38,0,2.59-.23,3.63-.7,1.04-.47,1.84-1.11,2.42-1.93.58-.82.86-1.73.86-2.73,0-.91-.27-1.76-.81-2.55-.54-.79-1.33-1.44-2.38-1.94-1.05-.5-2.36-.75-3.92-.75-1.28,0-2.41.22-3.4.65-.99.43-1.76,1.04-2.32,1.84-.56.79-.84,1.74-.84,2.83,0,1.61.61,2.89,1.82,3.85,1.21.96,2.86,1.43,4.93,1.43Z"/>
      </g>
      <path class="cls-3" d="M10.9,20.48c-.66,0-1.29-.07-1.91-.2s-1.16-.33-1.64-.59l.95-1.78c.37.22.77.37,1.21.46s.89.14,1.38.14c1.26,0,2.27-.36,3.02-1.09.75-.73,1.13-1.8,1.13-3.23,0-.24,0-.51-.03-.81-.02-.3-.07-.6-.14-.9l.77.77c-.22.49-.53.9-.95,1.23-.41.33-.89.58-1.45.75-.55.17-1.16.25-1.83.25-.88,0-1.66-.16-2.36-.49-.7-.32-1.26-.77-1.67-1.35-.41-.58-.62-1.26-.62-2.05s.22-1.55.66-2.16c.44-.61,1.03-1.08,1.78-1.41.75-.33,1.59-.49,2.52-.49,1.22,0,2.27.24,3.14.72.87.48,1.54,1.19,2,2.12.46.93.68,2.07.68,3.41,0,1.45-.28,2.68-.84,3.67s-1.33,1.75-2.32,2.27c-.99.52-2.15.77-3.47.77ZM11.88,13.64c.54,0,1.01-.09,1.43-.28.41-.19.73-.44.96-.77s.35-.7.35-1.11-.11-.75-.33-1.07c-.22-.32-.53-.57-.94-.76-.41-.19-.92-.29-1.52-.29-.51,0-.97.09-1.37.26-.4.17-.71.42-.93.74s-.33.7-.33,1.14c0,.65.24,1.17.72,1.56.48.39,1.13.58,1.96.58Z"/>
      <path class="cls-3" d="M92.9,152.48c-.66,0-1.29-.07-1.91-.2s-1.16-.33-1.64-.59l.95-1.78c.37.22.77.37,1.21.46s.89.14,1.38.14c1.26,0,2.27-.36,3.02-1.09.75-.73,1.13-1.8,1.13-3.23,0-.24,0-.51-.03-.81-.02-.3-.07-.6-.14-.9l.77.77c-.22.49-.53.9-.95,1.23-.41.33-.89.58-1.45.75-.55.17-1.16.25-1.83.25-.88,0-1.66-.16-2.36-.49-.7-.32-1.26-.77-1.67-1.35-.41-.58-.62-1.26-.62-2.05s.22-1.55.66-2.16c.44-.61,1.03-1.08,1.78-1.41.75-.33,1.59-.49,2.52-.49,1.22,0,2.27.24,3.14.72.87.48,1.54,1.19,2,2.12.46.93.68,2.07.68,3.41,0,1.45-.28,2.68-.84,3.67s-1.33,1.75-2.32,2.27c-.99.52-2.15.77-3.47.77ZM93.88,145.64c.54,0,1.01-.09,1.43-.28.41-.19.73-.44.96-.77s.35-.7.35-1.11-.11-.75-.33-1.07c-.22-.32-.53-.57-.94-.76-.41-.19-.92-.29-1.52-.29-.51,0-.97.09-1.37.26-.4.17-.71.42-.93.74s-.33.7-.33,1.14c0,.65.24,1.17.72,1.56.48.39,1.13.58,1.96.58Z"/>
    </g>
  </g>
</svg>