<?xml version="1.0" encoding="UTF-8"?>
<svg id="Layer_2" data-name="Layer 2" xmlns="http://www.w3.org/2000/svg" viewBox="0 0 106.67 160">
  <defs>
    <style>
      .cls-1 {
        fill: #fdbe27;
      }

      .cls-1, .cls-2, .cls-3, .cls-4 {
        stroke-width: 0px;
      }

      .cls-3 {
        fill: #fff;
      }

      .cls-4 {
        fill: #282828;
      }
    </style>
  </defs>
  <g id="Layer_1-2" data-name="Layer 1">
    <g>
      <g>
        <rect class="cls-3" x="0" y="0" width="106.67" height="160" rx="5" ry="5"/>
        <g>
          <path class="cls-4" d="M103.33,8.5v113.78l-36.72,32.72H6.83c-1.92,0-3.5-1.58-3.5-3.5V37.71L40.04,5h59.79c1.93,0,3.5,1.57,3.5,3.5Z"/>
          <path class="cls-2" d="M66.8,155.5H6.83c-2.21,0-4-1.79-4-4V37.49l.17-.15L39.85,4.5h59.98c2.21,0,4,1.79,4,4v114l-.17.15-36.86,32.85ZM3.83,37.94v113.57c0,1.65,1.35,3,3,3h59.59l36.41-32.44V8.5c0-1.65-1.35-3-3-3h-59.6L3.83,37.94Z"/>
        </g>
        <g>
          <path class="cls-2" d="M99.84,155.51h-34.53l38.53-34.34v30.34c0,2.21-1.79,4-4,4ZM67.93,154.51h31.91c1.65,0,3-1.35,3-3v-28.1l-34.91,31.1Z"/>
          <path class="cls-2" d="M2.84,38.83V8.51c0-2.21,1.79-4,4-4h34.52L2.84,38.83ZM6.84,5.51c-1.65,0-3,1.35-3,3v28.09L38.73,5.51H6.84Z"/>
        </g>
        <path class="cls-3" d="M32.08,150.18c-4.4,0-8.55-.93-12.33-2.82h0c-10.55-5.26-16.91-17.27-17.88-33.81-.96-16.32,3.42-35.16,12.34-53.06C32.73,23.35,65.35,1.88,86.92,12.64c10.55,5.26,16.91,17.27,17.88,33.81.96,16.32-3.42,35.16-12.34,53.06s-21.33,32.74-34.95,41.79c-8.85,5.89-17.55,8.88-25.43,8.88ZM74.59,12.03c-19.46,0-43.51,19.56-58.41,49.45-8.75,17.56-13.06,36.01-12.12,51.95.93,15.72,6.85,27.07,16.67,31.97h0c9.82,4.9,22.45,2.79,35.56-5.93,13.3-8.84,25.44-23.38,34.2-40.94s13.06-36.01,12.12-51.95c-.93-15.72-6.85-27.07-16.67-31.97-3.5-1.75-7.33-2.58-11.34-2.58Z"/>
      </g>
      <g>
        <path class="cls-1" d="M30.24,107.52l-12.81-8.89,2.47-1.77,11.54,8.08-1.22.88-3.83-13.62,2.19-1.58,11.57,8.05-1.19.85-3.88-13.58,2.27-1.63,4.33,14.98-2.52,1.81-10.49-7.23.66-.47,3.47,12.27-2.56,1.84Z"/>
        <path class="cls-1" d="M52.93,91.23l-1.34-1.86-.38-.3-2.32-3.22c-.45-.62-1-.96-1.66-1.02-.66-.05-1.4.22-2.23.81-.54.39-1.01.84-1.42,1.38-.41.54-.7,1.08-.88,1.64l-2.01-.91c.27-.76.69-1.49,1.27-2.21.58-.71,1.26-1.34,2.04-1.9,1.42-1.02,2.75-1.49,3.97-1.41,1.23.09,2.31.79,3.26,2.11l3.83,5.34-2.16,1.55ZM49.94,93.56c-.73.53-1.46.87-2.17,1.03-.71.16-1.37.14-1.97-.06-.6-.2-1.08-.56-1.46-1.09-.37-.51-.57-1.07-.6-1.66s.17-1.23.59-1.9c.42-.67,1.13-1.36,2.12-2.06l2.83-2.04,1.02,1.42-2.67,1.92c-.77.55-1.2,1.04-1.31,1.47-.11.43-.03.82.22,1.17.27.38.65.56,1.14.55.49,0,1.03-.22,1.62-.64.56-.4.98-.88,1.25-1.44.27-.56.35-1.14.22-1.76l1.28,1.02c.16.69.07,1.39-.28,2.09-.35.7-.96,1.36-1.84,1.99Z"/>
        <path class="cls-1" d="M59.47,86.53l-2.69-14.85,1.34.56-7.26,5.21.36-1.89,2.23,3.1-2.21,1.59-2.8-3.91,9.94-7.14,1.07,1.48,2.54,14.03-2.52,1.81Z"/>
        <path class="cls-1" d="M73.79,76.42c-1.08.78-2.18,1.26-3.28,1.44-1.1.18-2.12.08-3.07-.3-.95-.38-1.75-1.02-2.4-1.93s-1.01-1.87-1.08-2.88c-.07-1.01.13-1.99.6-2.94.47-.95,1.19-1.78,2.17-2.48.95-.68,1.94-1.09,2.96-1.24,1.02-.14,2-.01,2.94.39.93.4,1.75,1.08,2.44,2.05.06.08.13.18.21.31.08.12.15.24.2.34l-8.13,5.84-1.02-1.42,6.93-4.98-.6,1.1c-.35-.52-.8-.9-1.32-1.13-.53-.23-1.08-.31-1.65-.24s-1.14.32-1.7.72c-.55.39-.96.86-1.23,1.39-.27.53-.38,1.09-.32,1.66s.29,1.13.67,1.67l.25.34c.39.55.87.94,1.43,1.17s1.17.29,1.83.17c.65-.12,1.3-.41,1.95-.87.55-.39.98-.83,1.3-1.32.32-.49.53-1.02.63-1.59l2.2.44c-.11.8-.4,1.57-.89,2.29-.49.73-1.15,1.4-2.01,2.01Z"/>
        <path class="cls-1" d="M84.7,68.59c-.94.67-1.92,1.09-2.95,1.24-1.03.15-2,.03-2.93-.36-.93-.39-1.73-1.06-2.41-2.01-.67-.93-1.04-1.9-1.12-2.92s.12-1.98.59-2.9c.47-.92,1.18-1.72,2.11-2.4.82-.59,1.67-.94,2.55-1.07.89-.13,1.77.02,2.64.43.87.42,1.69,1.16,2.46,2.23.76,1.06,1.21,2.06,1.34,3.02.13.96,0,1.83-.4,2.63-.4.79-1.02,1.5-1.88,2.11ZM83.68,66.58c.55-.39.96-.86,1.22-1.41.26-.54.37-1.13.32-1.75-.05-.63-.28-1.22-.69-1.79-.42-.58-.91-.99-1.48-1.23-.57-.24-1.15-.32-1.75-.24-.6.08-1.17.31-1.72.71-.55.39-.96.86-1.22,1.41-.27.54-.38,1.12-.33,1.74s.28,1.21.69,1.79c.41.57.9.98,1.48,1.23.58.25,1.16.34,1.77.26.6-.08,1.17-.31,1.72-.71ZM87.87,66.13l-1.54-2.15-1.68-2.46-1.92-2.29-4.07-5.66,2.3-1.65,9.09,12.66-2.18,1.56Z"/>
      </g>
    </g>
  </g>
</svg>