<?xml version="1.0" encoding="UTF-8"?>
<svg id="Layer_2" data-name="Layer 2" xmlns="http://www.w3.org/2000/svg" viewBox="0 0 106.67 160">
  <defs>
    <style>
      .cls-1 {
        fill: #cb666a;
      }

      .cls-1, .cls-2, .cls-3, .cls-4, .cls-5, .cls-6, .cls-7, .cls-8 {
        stroke-width: 0px;
      }

      .cls-9 {
        opacity: .98;
      }

      .cls-3 {
        fill: #ebc969;
      }

      .cls-4 {
        fill: #fff;
      }

      .cls-5 {
        fill: #428bca;
      }

      .cls-6 {
        fill: #acc77e;
      }

      .cls-7 {
        fill: #282828;
      }

      .cls-8 {
        fill: #1e1e1e;
      }
    </style>
  </defs>
  <g id="Layer_1-2" data-name="Layer 1">
    <g>
      <g>
        <g>
          <rect class="cls-4" x="0" y="0" width="106.67" height="160" rx="5" ry="5"/>
          <g>
            <path class="cls-7" d="M103.33,8.5v113.78l-36.72,32.72H6.83c-1.92,0-3.5-1.58-3.5-3.5V37.71L40.04,5h59.79c1.93,0,3.5,1.57,3.5,3.5Z"/>
            <path class="cls-2" d="M66.8,155.5H6.83c-2.21,0-4-1.79-4-4V37.49l.17-.15L39.85,4.5h59.98c2.21,0,4,1.79,4,4v114l-.17.15-36.86,32.85ZM3.83,37.94v113.57c0,1.65,1.35,3,3,3h59.59l36.41-32.44V8.5c0-1.65-1.35-3-3-3h-59.6L3.83,37.94Z"/>
          </g>
          <g>
            <path class="cls-2" d="M99.84,155.51h-34.53l38.53-34.33v30.33c0,2.21-1.79,4-4,4ZM67.93,154.51h31.91c1.65,0,3-1.35,3-3v-28.1l-34.91,31.1Z"/>
            <path class="cls-2" d="M2.84,38.83V8.51c0-2.21,1.79-4,4-4h34.52L2.84,38.83ZM6.84,5.51c-1.65,0-3,1.35-3,3v28.09L38.73,5.51H6.84Z"/>
          </g>
          <path class="cls-4" d="M31.94,150.13c-4.31,0-8.42-.9-12.19-2.77h0C-1.82,136.6-4.31,97.64,14.21,60.49,32.73,23.35,65.34,1.88,86.92,12.64c21.57,10.76,24.06,49.72,5.54,86.87-15.28,30.65-40.17,50.63-60.52,50.63ZM20.73,145.39c20.48,10.21,51.78-10.81,69.76-46.87,17.98-36.06,15.94-73.7-4.55-83.92-20.49-10.22-51.78,10.81-69.76,46.87C-1.8,97.53.25,135.17,20.73,145.39h0Z"/>
        </g>
        <g>
          <g class="cls-9">
            <path class="cls-8" d="M12.41,16.08v-1.39l5.93-7.07h2.39l-5.83,7.07-1.13-.31h9.53v1.71h-10.88ZM19.03,18.59v-2.51l.05-1.71v-2.21h2.12v6.43h-2.17Z"/>
          </g>
          <path class="cls-8" d="M8.52,17.13c-.41,0-.75-.34-.75-.75v-2.3h-2.3c-.41,0-.75-.34-.75-.75s.34-.75.75-.75h2.3v-2.3c0-.41.34-.75.75-.75s.75.34.75.75v2.3h2.3c.41,0,.75.34.75.75s-.34.75-.75.75h-2.3v2.3c0,.41-.34.75-.75.75Z"/>
        </g>
        <g>
          <g class="cls-9">
            <path class="cls-8" d="M90.81,149v-1.39l5.93-7.07h2.39l-5.83,7.07-1.13-.31h9.53v1.71h-10.88ZM97.43,151.5v-2.51l.05-1.71v-2.21h2.12v6.43h-2.17Z"/>
          </g>
          <path class="cls-8" d="M86.92,150.05c-.41,0-.75-.34-.75-.75v-2.3h-2.3c-.41,0-.75-.34-.75-.75s.34-.75.75-.75h2.3v-2.3c0-.41.34-.75.75-.75s.75.34.75.75v2.3h2.3c.41,0,.75.34.75.75s-.34.75-.75.75h-2.3v2.3c0,.41-.34.75-.75.75Z"/>
        </g>
      </g>
      <g>
        <path class="cls-3" d="M39.7,118.17h-12.92c-2.81,0-5.1-2.29-5.1-5.09v-25.55c0-2.81,2.29-5.1,5.1-5.1h12.92c2.81,0,5.1,2.29,5.1,5.1v25.55c0,2.81-2.29,5.09-5.1,5.09ZM26.79,84.24c-1.81,0-3.28,1.47-3.28,3.28v25.55c0,1.81,1.47,3.28,3.28,3.28h12.92c1.81,0,3.28-1.47,3.28-3.28v-25.55c0-1.81-1.47-3.28-3.28-3.28h-12.92Z"/>
        <path class="cls-1" d="M54.47,91.11h-12.92c-2.81,0-5.09-2.29-5.09-5.09v-25.55c0-2.81,2.29-5.09,5.09-5.09h12.92c2.81,0,5.09,2.29,5.09,5.09v25.55c0,2.81-2.29,5.09-5.09,5.09ZM41.55,57.17c-1.81,0-3.28,1.47-3.28,3.28v25.55c0,1.81,1.47,3.28,3.28,3.28h12.92c1.81,0,3.28-1.47,3.28-3.28v-25.55c0-1.81-1.47-3.28-3.28-3.28h-12.92Z"/>
        <path class="cls-6" d="M65.12,104.64h-12.92c-2.81,0-5.09-2.29-5.09-5.1v-25.55c0-2.81,2.29-5.09,5.09-5.09h12.92c2.81,0,5.09,2.29,5.09,5.09v25.55c0,2.81-2.29,5.1-5.09,5.1ZM52.2,70.71c-1.81,0-3.28,1.47-3.28,3.28v25.55c0,1.81,1.47,3.28,3.28,3.28h12.92c1.81,0,3.28-1.47,3.28-3.28v-25.55c0-1.81-1.47-3.28-3.28-3.28h-12.92Z"/>
        <path class="cls-5" d="M79.88,77.57h-12.92c-2.81,0-5.09-2.29-5.09-5.1v-25.55c0-2.81,2.29-5.1,5.09-5.1h12.92c2.81,0,5.09,2.29,5.09,5.1v25.55c0,2.81-2.29,5.1-5.09,5.1ZM66.96,43.64c-1.81,0-3.28,1.47-3.28,3.28v25.55c0,1.81,1.47,3.28,3.28,3.28h12.92c1.81,0,3.28-1.47,3.28-3.28v-25.55c0-1.81-1.47-3.28-3.28-3.28h-12.92Z"/>
      </g>
    </g>
  </g>
</svg>