<?xml version="1.0" encoding="UTF-8"?>
<svg id="Layer_2" data-name="Layer 2" xmlns="http://www.w3.org/2000/svg" viewBox="0 0 106.67 160">
  <defs>
    <style>
      .cls-1 {
        fill: #1e1e1e;
        font-family: Montserrat-SemiBold, Montserrat;
        font-size: 15.67px;
        font-variation-settings: 'wght' 600;
        font-weight: 600;
        opacity: .98;
      }

      .cls-2 {
        stroke: #1e1e1e;
        stroke-linecap: round;
        stroke-linejoin: round;
        stroke-width: 1.5px;
      }

      .cls-2, .cls-3, .cls-4 {
        fill: none;
      }

      .cls-3, .cls-4, .cls-5 {
        stroke-miterlimit: 10;
      }

      .cls-3, .cls-5 {
        stroke: #000;
      }

      .cls-6 {
        fill: #cb666a;
      }

      .cls-6, .cls-7, .cls-8, .cls-9, .cls-10 {
        stroke-width: 0px;
      }

      .cls-7 {
        fill: #ebc969;
      }

      .cls-8 {
        fill: #fff;
      }

      .cls-9 {
        fill: #428bca;
      }

      .cls-10 {
        fill: #acc77e;
      }

      .cls-4 {
        stroke: #fff;
        stroke-width: 2.2px;
      }

      .cls-5 {
        fill: #282828;
      }
    </style>
  </defs>
  <g id="Layer_1-2" data-name="Layer 1">
    <g>
      <g>
        <g>
          <rect class="cls-8" x="0" y="0" width="106.67" height="160" rx="5" ry="5"/>
          <path class="cls-5" d="M103.33,8.5v113.78l-36.72,32.72H6.83c-1.92,0-3.5-1.58-3.5-3.5V37.71L40.04,5h59.79c1.93,0,3.5,1.57,3.5,3.5Z"/>
          <g>
            <path class="cls-3" d="M103.34,122.29v29.22c0,1.92-1.57,3.5-3.5,3.5h-33.22l36.72-32.72Z"/>
            <path class="cls-3" d="M6.84,5.01h33.21L3.34,37.72V8.51c0-1.93,1.58-3.5,3.5-3.5Z"/>
          </g>
          <ellipse class="cls-4" cx="53.33" cy="80" rx="74.17" ry="42.62" transform="translate(-42.06 92.03) rotate(-63.5)"/>
        </g>
        <g>
          <text class="cls-1" transform="translate(11.83 18.59) scale(1.1 1)"><tspan x="0" y="0">4</tspan></text>
          <path class="cls-2" d="M8.52,10.28v6.11M11.58,13.33h-6.11"/>
        </g>
        <g>
          <text class="cls-1" transform="translate(90.23 151.5) scale(1.1 1)"><tspan x="0" y="0">4</tspan></text>
          <path class="cls-2" d="M86.92,143.19v6.11M89.98,146.24h-6.11"/>
        </g>
      </g>
      <g>
        <path class="cls-7" d="M39.7,118.17h-12.92c-2.81,0-5.1-2.29-5.1-5.09v-25.55c0-2.81,2.29-5.1,5.1-5.1h12.92c2.81,0,5.1,2.29,5.1,5.1v25.55c0,2.81-2.29,5.09-5.1,5.09ZM26.79,84.24c-1.81,0-3.28,1.47-3.28,3.28v25.55c0,1.81,1.47,3.28,3.28,3.28h12.92c1.81,0,3.28-1.47,3.28-3.28v-25.55c0-1.81-1.47-3.28-3.28-3.28h-12.92Z"/>
        <path class="cls-6" d="M54.47,91.11h-12.92c-2.81,0-5.09-2.29-5.09-5.09v-25.55c0-2.81,2.29-5.09,5.09-5.09h12.92c2.81,0,5.09,2.29,5.09,5.09v25.55c0,2.81-2.29,5.09-5.09,5.09ZM41.55,57.17c-1.81,0-3.28,1.47-3.28,3.28v25.55c0,1.81,1.47,3.28,3.28,3.28h12.92c1.81,0,3.28-1.47,3.28-3.28v-25.55c0-1.81-1.47-3.28-3.28-3.28h-12.92Z"/>
        <path class="cls-10" d="M65.12,104.64h-12.92c-2.81,0-5.09-2.29-5.09-5.1v-25.55c0-2.81,2.29-5.09,5.09-5.09h12.92c2.81,0,5.09,2.29,5.09,5.09v25.55c0,2.81-2.29,5.1-5.09,5.1ZM52.2,70.71c-1.81,0-3.28,1.47-3.28,3.28v25.55c0,1.81,1.47,3.28,3.28,3.28h12.92c1.81,0,3.28-1.47,3.28-3.28v-25.55c0-1.81-1.47-3.28-3.28-3.28h-12.92Z"/>
        <path class="cls-9" d="M79.88,77.57h-12.92c-2.81,0-5.09-2.29-5.09-5.1v-25.55c0-2.81,2.29-5.1,5.09-5.1h12.92c2.81,0,5.09,2.29,5.09,5.1v25.55c0,2.81-2.29,5.1-5.09,5.1ZM66.96,43.64c-1.81,0-3.28,1.47-3.28,3.28v25.55c0,1.81,1.47,3.28,3.28,3.28h12.92c1.81,0,3.28-1.47,3.28-3.28v-25.55c0-1.81-1.47-3.28-3.28-3.28h-12.92Z"/>
      </g>
    </g>
  </g>
</svg>