<?xml version="1.0" encoding="UTF-8"?>
<svg id="Layer_2" data-name="Layer 2" xmlns="http://www.w3.org/2000/svg" viewBox="0 0 106.67 160">
  <defs>
    <style>
      .cls-1, .cls-2 {
        fill: none;
      }

      .cls-1, .cls-2, .cls-3 {
        stroke-miterlimit: 10;
      }

      .cls-1, .cls-3 {
        stroke: #ebc968;
      }

      .cls-4 {
        fill: #fff;
      }

      .cls-4, .cls-5 {
        stroke-width: 0px;
      }

      .cls-2 {
        stroke: #fff;
        stroke-width: 2.2px;
      }

      .cls-3 {
        fill: #ebc968;
      }

      .cls-5 {
        fill: #1e1e1e;
      }
    </style>
  </defs>
  <g id="Layer_1-2" data-name="Layer 1">
    <g>
      <g>
        <rect class="cls-4" x="0" y="0" width="106.67" height="160" rx="5" ry="5"/>
        <g>
          <path class="cls-1" d="M103.34,122.29v29.22c0,1.92-1.57,3.5-3.5,3.5h-33.22l36.72-32.72Z"/>
          <path class="cls-1" d="M6.84,5.01h33.21L3.34,37.72V8.51c0-1.93,1.58-3.5,3.5-3.5Z"/>
        </g>
        <path class="cls-3" d="M103.33,8.5v113.78l-36.72,32.72H6.83c-1.92,0-3.5-1.58-3.5-3.5V37.71L40.04,5h59.79c1.93,0,3.5,1.57,3.5,3.5Z"/>
        <ellipse class="cls-2" cx="53.33" cy="80" rx="74.17" ry="42.62" transform="translate(-42.06 92.03) rotate(-63.5)"/>
      </g>
      <path class="cls-5" d="M8.52,11.4l1.01-.31c.33-.1.69.09.79.42s-.09.69-.42.79l-2.42.74c-.33.1-.69-.09-.79-.42,0,0,0,0,0,0l-.74-2.42c-.1-.33.09-.69.42-.79.33-.1.69.09.79.42l.28.91c1.53-2.35,4.55-3.36,7.24-2.26,1.63.67,2.87,2.02,3.41,3.69.11.33-.07.69-.4.8s-.69-.07-.8-.4c0,0,0-.01,0-.02-.78-2.46-3.41-3.82-5.87-3.04-1.02.32-1.89.99-2.48,1.87h0ZM16.33,16.59l-1.12.28c-.34.09-.69-.11-.78-.44-.09-.34.11-.69.44-.78,0,0,.02,0,.03,0l2.31-.58c.12-.06.26-.07.39-.05.26.03.47.22.53.48l.61,2.46c.08.34-.14.68-.48.76-.33.07-.66-.12-.75-.45l-.21-.84c-1.87,2.7-5.58,3.36-8.27,1.49-.94-.65-1.67-1.57-2.11-2.63l-.16-.4c-.13-.32.02-.69.35-.83.32-.13.69.02.83.35l.16.4c.98,2.39,3.71,3.53,6.1,2.55.87-.36,1.62-.97,2.14-1.76h0Z"/>
      <path class="cls-5" d="M90.52,143.35l1.01-.31c.33-.1.69.09.79.42s-.09.69-.42.79l-2.42.74c-.33.1-.69-.09-.79-.42,0,0,0,0,0,0l-.74-2.42c-.1-.33.09-.69.42-.79.33-.1.69.09.79.42l.28.91c1.53-2.35,4.55-3.36,7.24-2.26,1.63.67,2.87,2.02,3.41,3.69.11.33-.07.69-.4.8s-.69-.07-.8-.4c0,0,0-.01,0-.02-.78-2.46-3.41-3.82-5.87-3.04-1.02.32-1.89.99-2.48,1.87h0ZM98.33,148.54l-1.12.28c-.34.09-.69-.11-.78-.44-.09-.34.11-.69.44-.78,0,0,.02,0,.03,0l2.31-.58c.12-.06.26-.07.39-.05.26.03.47.22.53.48l.61,2.46c.08.34-.14.68-.48.76-.33.07-.66-.12-.75-.45l-.21-.84c-1.87,2.7-5.58,3.36-8.27,1.49-.94-.65-1.67-1.57-2.11-2.63l-.16-.4c-.13-.32.02-.69.35-.83.32-.13.69.02.83.35l.16.4c.98,2.39,3.71,3.53,6.1,2.55.87-.36,1.62-.97,2.14-1.76h0Z"/>
      <path class="cls-4" d="M45.3,75.12l2.13-.65c.7-.22,1.45.18,1.67.89s-.18,1.45-.89,1.67l-5.1,1.56c-.7.22-1.45-.18-1.66-.89,0,0,0,0,0,0l-1.56-5.1c-.22-.7.18-1.45.89-1.67.7-.22,1.45.18,1.67.89l.59,1.92c3.21-4.95,9.58-7.07,15.23-4.75,3.42,1.4,6.05,4.25,7.17,7.77.24.7-.14,1.45-.83,1.69s-1.45-.14-1.69-.83c0-.02-.01-.03-.01-.05-1.65-5.18-7.18-8.04-12.36-6.39-2.14.68-3.98,2.07-5.22,3.95h0ZM61.74,86.04l-2.37.59c-.71.19-1.44-.22-1.64-.93-.19-.71.22-1.44.93-1.64.02,0,.04-.01.06-.01l4.86-1.21c.25-.12.54-.16.81-.11.54.07.99.47,1.12,1l1.29,5.17c.16.72-.29,1.43-1.01,1.59-.7.16-1.39-.26-1.58-.95l-.44-1.76c-3.94,5.67-11.74,7.08-17.41,3.13-1.98-1.38-3.52-3.3-4.44-5.53l-.35-.85c-.28-.68.05-1.46.73-1.74.68-.28,1.46.05,1.74.73l.35.84c2.06,5.03,7.81,7.44,12.84,5.37,1.84-.75,3.41-2.05,4.5-3.71h0Z"/>
    </g>
  </g>
</svg>