<?xml version="1.0" encoding="UTF-8"?>
<svg id="Layer_2" data-name="Layer 2" xmlns="http://www.w3.org/2000/svg" viewBox="0 0 106.67 160">
  <defs>
    <style>
      .cls-1 {
        fill: #fff;
      }

      .cls-1, .cls-2, .cls-3 {
        stroke-width: 0px;
      }

      .cls-2 {
        fill: #428bca;
      }

      .cls-3 {
        fill: #1e1e1e;
      }
    </style>
  </defs>
  <g id="Layer_1-2" data-name="Layer 1">
    <g>
      <g>
        <rect class="cls-1" x="0" y="0" width="106.67" height="160" rx="5" ry="5"/>
        <g>
          <path class="cls-2" d="M99.84,155.51h-34.53l38.53-34.34v30.34c0,2.21-1.79,4-4,4ZM67.93,154.51h31.91c1.65,0,3-1.35,3-3v-28.1l-34.91,31.1Z"/>
          <path class="cls-2" d="M2.84,38.83V8.51c0-2.21,1.79-4,4-4h34.52L2.84,38.83ZM6.84,5.51c-1.65,0-3,1.35-3,3v28.09L38.73,5.51H6.84Z"/>
        </g>
        <g>
          <path class="cls-2" d="M103.33,8.5v113.78l-36.72,32.72H6.83c-1.92,0-3.5-1.58-3.5-3.5V37.71L40.04,5h59.79c1.93,0,3.5,1.57,3.5,3.5Z"/>
          <path class="cls-2" d="M66.8,155.5H6.83c-2.21,0-4-1.79-4-4V37.49l.17-.15L39.85,4.5h59.98c2.21,0,4,1.79,4,4v114l-.17.15-36.86,32.85ZM3.83,37.94v113.57c0,1.65,1.35,3,3,3h59.59l36.41-32.44V8.5c0-1.65-1.35-3-3-3h-59.6L3.83,37.94Z"/>
        </g>
        <path class="cls-1" d="M31.93,150.13c-4.31,0-8.42-.9-12.19-2.77C-1.82,136.6-4.31,97.64,14.21,60.49,32.73,23.35,65.34,1.88,86.92,12.64c10.55,5.26,16.91,17.27,17.88,33.81.96,16.32-3.42,35.16-12.34,53.06-15.28,30.65-40.17,50.63-60.52,50.63ZM74.59,12.03c-19.46,0-43.51,19.56-58.41,49.45C-1.8,97.53.24,135.18,20.73,145.39h0c3.5,1.75,7.33,2.58,11.34,2.58,19.46,0,43.51-19.56,58.41-49.45,8.75-17.56,13.06-36.01,12.12-51.95-.93-15.72-6.85-27.07-16.67-31.97-3.5-1.75-7.33-2.58-11.34-2.58Z"/>
      </g>
      <path class="cls-3" d="M8.52,11.4l1.01-.31c.33-.1.69.09.79.42s-.09.69-.42.79l-2.42.74c-.33.1-.69-.09-.79-.42,0,0,0,0,0,0l-.74-2.42c-.1-.33.09-.69.42-.79.33-.1.69.09.79.42l.28.91c1.53-2.35,4.55-3.36,7.24-2.26,1.63.67,2.87,2.02,3.41,3.69.11.33-.07.69-.4.8s-.69-.07-.8-.4c0,0,0-.01,0-.02-.78-2.46-3.41-3.82-5.87-3.04-1.02.32-1.89.99-2.48,1.87h0ZM16.33,16.59l-1.12.28c-.34.09-.69-.11-.78-.44-.09-.34.11-.69.44-.78,0,0,.02,0,.03,0l2.31-.58c.12-.06.26-.07.39-.05.26.03.47.22.53.48l.61,2.46c.08.34-.14.68-.48.76-.33.07-.66-.12-.75-.45l-.21-.84c-1.87,2.7-5.58,3.36-8.27,1.49-.94-.65-1.67-1.57-2.11-2.63l-.16-.4c-.13-.32.02-.69.35-.83.32-.13.69.02.83.35l.16.4c.98,2.39,3.71,3.53,6.1,2.55.87-.36,1.62-.97,2.14-1.76h0Z"/>
      <path class="cls-3" d="M90.52,143.35l1.01-.31c.33-.1.69.09.79.42s-.09.69-.42.79l-2.42.74c-.33.1-.69-.09-.79-.42,0,0,0,0,0,0l-.74-2.42c-.1-.33.09-.69.42-.79.33-.1.69.09.79.42l.28.91c1.53-2.35,4.55-3.36,7.24-2.26,1.63.67,2.87,2.02,3.41,3.69.11.33-.07.69-.4.8s-.69-.07-.8-.4c0,0,0-.01,0-.02-.78-2.46-3.41-3.82-5.87-3.04-1.02.32-1.89.99-2.48,1.87h0ZM98.33,148.54l-1.12.28c-.34.09-.69-.11-.78-.44-.09-.34.11-.69.44-.78,0,0,.02,0,.03,0l2.31-.58c.12-.06.26-.07.39-.05.26.03.47.22.53.48l.61,2.46c.08.34-.14.68-.48.76-.33.07-.66-.12-.75-.45l-.21-.84c-1.87,2.7-5.58,3.36-8.27,1.49-.94-.65-1.67-1.57-2.11-2.63l-.16-.4c-.13-.32.02-.69.35-.83.32-.13.69.02.83.35l.16.4c.98,2.39,3.71,3.53,6.1,2.55.87-.36,1.62-.97,2.14-1.76h0Z"/>
      <path class="cls-1" d="M45.3,75.12l2.13-.65c.7-.22,1.45.18,1.67.89s-.18,1.45-.89,1.67l-5.1,1.56c-.7.22-1.45-.18-1.66-.89,0,0,0,0,0,0l-1.56-5.1c-.22-.7.18-1.45.89-1.67.7-.22,1.45.18,1.67.89l.59,1.92c3.21-4.95,9.58-7.07,15.23-4.75,3.42,1.4,6.05,4.25,7.17,7.77.24.7-.14,1.45-.83,1.69s-1.45-.14-1.69-.83c0-.02-.01-.03-.01-.05-1.65-5.18-7.18-8.04-12.36-6.39-2.14.68-3.98,2.07-5.22,3.95h0ZM61.74,86.04l-2.37.59c-.71.19-1.44-.22-1.64-.93-.19-.71.22-1.44.93-1.64.02,0,.04-.01.06-.01l4.86-1.21c.25-.12.54-.16.81-.11.54.07.99.47,1.12,1l1.29,5.17c.16.72-.29,1.43-1.01,1.59-.7.16-1.39-.26-1.58-.95l-.44-1.76c-3.94,5.67-11.74,7.08-17.41,3.13-1.98-1.38-3.52-3.3-4.44-5.53l-.35-.85c-.28-.68.05-1.46.73-1.74.68-.28,1.46.05,1.74.73l.35.84c2.06,5.03,7.81,7.44,12.84,5.37,1.84-.75,3.41-2.05,4.5-3.71h0Z"/>
    </g>
  </g>
</svg>