<?xml version="1.0" encoding="UTF-8"?>
<svg id="Layer_2" data-name="Layer 2" xmlns="http://www.w3.org/2000/svg" viewBox="0 0 106.67 160">
  <defs>
    <style>
      .cls-1 {
        fill: #428bca;
      }

      .cls-1, .cls-2, .cls-3 {
        stroke-miterlimit: 10;
      }

      .cls-1, .cls-3 {
        stroke: #428bca;
      }

      .cls-4 {
        fill: #fff;
      }

      .cls-4, .cls-5 {
        stroke-width: 0px;
      }

      .cls-2 {
        stroke: #fff;
        stroke-width: 2.2px;
      }

      .cls-2, .cls-3 {
        fill: none;
      }

      .cls-5 {
        fill: #1e1e1e;
      }
    </style>
  </defs>
  <g id="Layer_1-2" data-name="Layer 1">
    <g>
      <g>
        <rect class="cls-4" x="0" y="0" width="106.67" height="160" rx="5" ry="5"/>
        <g>
          <path class="cls-3" d="M103.34,122.29v29.22c0,1.92-1.57,3.5-3.5,3.5h-33.22l36.72-32.72Z"/>
          <path class="cls-3" d="M6.84,5.01h33.21L3.34,37.72V8.51c0-1.93,1.58-3.5,3.5-3.5Z"/>
        </g>
        <path class="cls-1" d="M103.33,8.5v113.78l-36.72,32.72H6.83c-1.92,0-3.5-1.58-3.5-3.5V37.71L40.04,5h59.79c1.93,0,3.5,1.57,3.5,3.5Z"/>
        <ellipse class="cls-2" cx="53.33" cy="80" rx="74.17" ry="42.62" transform="translate(-42.06 92.03) rotate(-63.5)"/>
      </g>
      <path class="cls-5" d="M12.86,8.12c-3.61,0-6.53,2.93-6.53,6.53s2.93,6.53,6.53,6.53,6.53-2.93,6.53-6.53-2.93-6.53-6.53-6.53M7.63,14.66c0-2.89,2.34-5.23,5.23-5.23,1.21,0,2.32.41,3.2,1.1l-7.32,7.32c-.72-.91-1.11-2.04-1.1-3.2M12.86,19.88c-1.21,0-2.32-.41-3.2-1.1l7.32-7.32c.72.91,1.11,2.04,1.1,3.2,0,2.89-2.34,5.23-5.23,5.23"/>
      <path class="cls-5" d="M94.26,140.43c-3.61,0-6.53,2.93-6.53,6.53s2.93,6.53,6.53,6.53,6.53-2.93,6.53-6.53-2.93-6.53-6.53-6.53M89.03,146.96c0-2.89,2.34-5.23,5.23-5.23,1.21,0,2.32.41,3.2,1.1l-7.32,7.32c-.72-.91-1.11-2.04-1.1-3.2M94.26,152.19c-1.21,0-2.32-.41-3.2-1.1l7.32-7.32c.72.91,1.11,2.04,1.1,3.2,0,2.89-2.34,5.23-5.23,5.23"/>
      <path class="cls-4" d="M53.33,66.67c-7.36,0-13.33,5.97-13.33,13.33s5.97,13.33,13.33,13.33,13.33-5.97,13.33-13.33-5.97-13.33-13.33-13.33M42.67,80c0-5.89,4.77-10.67,10.67-10.67,2.47,0,4.73.84,6.53,2.25l-14.94,14.94c-1.46-1.86-2.26-4.16-2.25-6.53M53.33,90.67c-2.47,0-4.73-.84-6.53-2.25l14.94-14.94c1.46,1.86,2.26,4.16,2.25,6.53,0,5.89-4.77,10.67-10.67,10.67"/>
    </g>
  </g>
</svg>