<?xml version="1.0" encoding="UTF-8"?>
<svg id="Layer_2" data-name="Layer 2" xmlns="http://www.w3.org/2000/svg" viewBox="0 0 106.67 160">
  <defs>
    <style>
      .cls-1 {
        fill: #fff;
      }

      .cls-1, .cls-2 {
        stroke-width: 0px;
      }

      .cls-3 {
        fill: #ebc968;
        stroke: #ebc968;
        stroke-miterlimit: 10;
      }

      .cls-2 {
        fill: #1e1e1e;
      }
    </style>
  </defs>
  <g id="Layer_1-2" data-name="Layer 1">
    <g>
      <g>
        <rect class="cls-1" x="0" y="0" width="106.67" height="160" rx="5" ry="5"/>
        <g>
          <path class="cls-3" d="M99.84,155.51h-34.53l38.53-34.34v30.34c0,2.21-1.79,4-4,4ZM67.93,154.51h31.91c1.65,0,3-1.35,3-3v-28.1l-34.91,31.1Z"/>
          <path class="cls-3" d="M2.84,38.83V8.51c0-2.21,1.79-4,4-4h34.52L2.84,38.83ZM6.84,5.51c-1.65,0-3,1.35-3,3v28.09L38.73,5.51H6.84Z"/>
        </g>
        <g>
          <path class="cls-3" d="M103.33,8.5v113.78l-36.72,32.72H6.83c-1.92,0-3.5-1.58-3.5-3.5V37.71L40.04,5h59.79c1.93,0,3.5,1.57,3.5,3.5Z"/>
          <path class="cls-3" d="M66.8,155.5H6.83c-2.21,0-4-1.79-4-4V37.49l.17-.15L39.85,4.5h59.98c2.21,0,4,1.79,4,4v114l-.17.15-36.86,32.85ZM3.83,37.94v113.57c0,1.65,1.35,3,3,3h59.59l36.41-32.44V8.5c0-1.65-1.35-3-3-3h-59.6L3.83,37.94Z"/>
        </g>
        <path class="cls-1" d="M31.93,150.13c-4.31,0-8.42-.9-12.19-2.77-10.55-5.26-16.91-17.27-17.88-33.81-.96-16.32,3.42-35.16,12.34-53.06C32.73,23.35,65.35,1.88,86.92,12.64c10.55,5.26,16.91,17.27,17.88,33.81.96,16.32-3.42,35.16-12.34,53.06-15.28,30.65-40.17,50.63-60.52,50.63ZM74.59,12.03c-19.46,0-43.51,19.56-58.41,49.45-8.75,17.56-13.06,36.01-12.12,51.95.93,15.72,6.85,27.07,16.67,31.97h0c3.5,1.75,7.33,2.58,11.34,2.58,19.46,0,43.51-19.56,58.41-49.45,8.75-17.56,13.06-36.01,12.12-51.95-.93-15.72-6.85-27.07-16.67-31.97-3.5-1.75-7.33-2.58-11.34-2.58Z"/>
      </g>
      <path class="cls-2" d="M12.86,8.12c-3.61,0-6.53,2.93-6.53,6.53s2.93,6.53,6.53,6.53,6.53-2.93,6.53-6.53-2.93-6.53-6.53-6.53M7.63,14.66c0-2.89,2.34-5.23,5.23-5.23,1.21,0,2.32.41,3.2,1.1l-7.32,7.32c-.72-.91-1.11-2.04-1.1-3.2M12.86,19.88c-1.21,0-2.32-.41-3.2-1.1l7.32-7.32c.72.91,1.11,2.04,1.1,3.2,0,2.89-2.34,5.23-5.23,5.23"/>
      <path class="cls-2" d="M94.26,140.43c-3.61,0-6.53,2.93-6.53,6.53s2.93,6.53,6.53,6.53,6.53-2.93,6.53-6.53-2.93-6.53-6.53-6.53M89.03,146.96c0-2.89,2.34-5.23,5.23-5.23,1.21,0,2.32.41,3.2,1.1l-7.32,7.32c-.72-.91-1.11-2.04-1.1-3.2M94.26,152.19c-1.21,0-2.32-.41-3.2-1.1l7.32-7.32c.72.91,1.11,2.04,1.1,3.2,0,2.89-2.34,5.23-5.23,5.23"/>
      <path class="cls-1" d="M53.33,66.67c-7.36,0-13.33,5.97-13.33,13.33s5.97,13.33,13.33,13.33,13.33-5.97,13.33-13.33-5.97-13.33-13.33-13.33M42.67,80c0-5.89,4.77-10.67,10.67-10.67,2.47,0,4.73.84,6.53,2.25l-14.94,14.94c-1.46-1.86-2.26-4.16-2.25-6.53M53.33,90.67c-2.47,0-4.73-.84-6.53-2.25l14.94-14.94c1.46,1.86,2.26,4.16,2.25,6.53,0,5.89-4.77,10.67-10.67,10.67"/>
    </g>
  </g>
</svg>