<?xml version="1.0" encoding="UTF-8"?>
<svg id="Layer_2" xmlns="http://www.w3.org/2000/svg" viewBox="0 0 106.67 160">
  <defs>
    <style>
      .cls-1 {
        fill: #acc77e;
      }

      .cls-2 {
        fill: #fff;
      }

      .cls-3 {
        fill: #ebc968;
      }

      .cls-4 {
        fill: #428bca;
      }

      .cls-5 {
        fill: #1e1e1e;
      }

      .cls-6 {
        fill: #cb666a;
      }
    </style>
  </defs>
  <g id="Layer_1-2" data-name="Layer_1">
    <g>
      <g>
        <g>
          <rect class="cls-2" x="0" y="0" width="106.67" height="160" rx="5" ry="5"/>
          <g>
            <path class="cls-4" d="M103.33,8.5v113.78l-36.72,32.72H6.83c-1.92,0-3.5-1.58-3.5-3.5V37.71L40.04,5h59.79c1.93,0,3.5,1.57,3.5,3.5Z"/>
            <path class="cls-4" d="M66.8,155.5H6.83c-2.21,0-4-1.79-4-4V37.49l.17-.15L39.85,4.5h59.98c2.21,0,4,1.79,4,4v114l-.17.15-36.86,32.85ZM3.83,37.94v113.57c0,1.65,1.35,3,3,3h59.59l36.41-32.44V8.5c0-1.65-1.35-3-3-3h-59.6L3.83,37.94Z"/>
          </g>
          <g>
            <path class="cls-4" d="M99.84,155.51h-34.53l38.53-34.34v30.34c0,2.21-1.79,4-4,4ZM67.93,154.51h31.91c1.65,0,3-1.35,3-3v-28.1l-34.91,31.1Z"/>
            <path class="cls-4" d="M2.84,38.83V8.51c0-2.21,1.79-4,4-4h34.52L2.84,38.83ZM6.84,5.51c-1.65,0-3,1.35-3,3v28.09L38.73,5.51H6.84Z"/>
          </g>
          <path class="cls-2" d="M32.08,150.18c-4.4,0-8.55-.93-12.33-2.82C-1.82,136.6-4.31,97.64,14.21,60.49,32.73,23.35,65.34,1.88,86.92,12.64c10.55,5.26,16.9,17.27,17.88,33.81.96,16.32-3.42,35.16-12.34,53.06s-21.33,32.74-34.95,41.79c-8.85,5.89-17.55,8.88-25.43,8.88ZM74.59,12.03c-19.46,0-43.51,19.56-58.42,49.45C-1.8,97.53.24,135.18,20.73,145.39c9.82,4.9,22.45,2.79,35.56-5.93,13.3-8.84,25.44-23.38,34.2-40.94s13.06-36.01,12.12-51.95c-.93-15.72-6.85-27.07-16.67-31.97-3.5-1.75-7.33-2.58-11.34-2.58Z"/>
        </g>
        <g>
          <g>
            <path class="cls-1" d="M85.33,14.4l-31.99,65.6H8.27c1.91-6.18,4.42-12.48,7.53-18.72C33.62,25.53,64.61,4.73,85.33,14.4Z"/>
            <path class="cls-1" d="M53.65,80.51H7.6l.2-.65c1.96-6.34,4.5-12.66,7.56-18.79C33.16,25.33,64.64,4.2,85.54,13.95l.46.22-32.35,66.34ZM8.95,79.51h44.07L84.66,14.65c-20.41-9-50.97,11.88-68.41,46.86-2.93,5.88-5.38,11.93-7.3,17.99Z"/>
          </g>
          <g>
            <path class="cls-4" d="M53.34,80.01l-31.99,65.59c-.2-.09-.38-.18-.58-.28C3.62,136.78-.86,109.57,8.27,80.01h45.06Z"/>
            <path class="cls-4" d="M21.58,146.25l-.44-.2c-.2-.09-.4-.18-.6-.28C3.65,137.35-1.59,110.25,7.8,79.86l.11-.35h46.23l-32.56,66.75ZM8.64,80.51c-9.09,29.77-4.04,56.21,12.34,64.37.04.02.08.04.12.06l31.43-64.43H8.64Z"/>
          </g>
          <g>
            <path class="cls-3" d="M98.38,80.01h-45.04L85.33,14.4c.2.09.38.18.57.28,17.14,8.54,21.63,35.75,12.48,65.33Z"/>
            <path class="cls-3" d="M98.75,80.51h-46.21L85.09,13.75l.44.2c.21.09.4.19.6.29,16.89,8.42,22.13,35.52,12.72,65.92l-.11.35ZM54.14,79.51h43.88c9.11-29.77,4.06-56.21-12.33-64.38-.04-.02-.08-.04-.12-.06l-31.43,64.44Z"/>
          </g>
          <g>
            <path class="cls-6" d="M98.38,80.01c-1.9,6.18-4.41,12.47-7.52,18.71-17.81,35.74-48.78,56.56-69.52,46.88l31.99-65.59h45.04Z"/>
            <path class="cls-6" d="M32.42,148.48c-4.01,0-7.81-.8-11.29-2.43l-.46-.22.22-.46,32.13-65.87h46.03l-.2.65c-1.93,6.3-4.47,12.62-7.55,18.78-8.65,17.35-20.66,31.79-33.83,40.67-8.72,5.88-17.3,8.88-25.06,8.88ZM22.02,145.35c20.4,8.99,50.96-11.88,68.4-46.86,2.94-5.91,5.39-11.96,7.29-17.99h-44.05l-31.63,64.85Z"/>
          </g>
        </g>
      </g>
      <path class="cls-5" d="M13.62,20.2c-.11,0-.22-.03-.33-.08l-5.87-3.05c-.34-.18-.48-.6-.3-.95.18-.35.6-.48.95-.3l5.54,2.88,5.54-2.88c.35-.18.77-.05.95.3.18.34.04.77-.3.95l-5.87,3.05c-.1.05-.21.08-.33.08ZM13.62,17.38c-.11,0-.22-.03-.33-.08l-5.87-3.05c-.23-.12-.38-.37-.38-.63,0-.26.15-.51.39-.62l2.35-1.17c.35-.17.77-.03.94.31.17.35.03.77-.31.94l-1.11.56,4.32,2.25,4.32-2.25-1.11-.56c-.35-.17-.49-.6-.31-.94.17-.35.6-.49.94-.31l2.35,1.17c.24.12.39.36.39.62,0,.26-.14.51-.38.63l-5.87,3.05c-.1.05-.21.08-.33.08ZM13.62,14.56c-.39,0-.7-.32-.7-.7v-4.53l-.94.84c-.29.26-.74.23-.99-.06-.26-.29-.23-.74.06-.99l2.11-1.88c.12-.11.28-.18.46-.18h.02c.18,0,.34.07.46.18l2.11,1.88c.29.26.32.7.06.99-.26.29-.7.32-.99.06l-.94-.84v4.53c0,.39-.32.7-.7.7Z"/>
      <path class="cls-5" d="M93.49,151.17c-.11,0-.22-.03-.33-.08l-5.87-3.05c-.34-.18-.48-.6-.3-.95.18-.35.6-.48.95-.3l5.54,2.88,5.54-2.88c.35-.18.77-.05.95.3.18.34.04.77-.3.95l-5.87,3.05c-.1.05-.21.08-.33.08ZM93.49,148.35c-.11,0-.22-.03-.33-.08l-5.87-3.05c-.23-.12-.38-.37-.38-.63,0-.26.15-.51.39-.62l2.35-1.17c.35-.17.77-.03.94.31.17.35.03.77-.31.94l-1.11.56,4.32,2.25,4.32-2.25-1.11-.56c-.35-.17-.49-.6-.31-.94.17-.35.6-.49.94-.31l2.35,1.17c.24.12.39.36.39.62,0,.26-.14.51-.38.63l-5.87,3.05c-.1.05-.21.08-.33.08ZM93.49,145.54c-.39,0-.7-.32-.7-.7v-4.53l-.94.84c-.29.26-.74.23-.99-.06-.26-.29-.23-.74.06-.99l2.11-1.88c.12-.11.28-.18.46-.18h.02c.18,0,.34.07.46.18l2.11,1.88c.29.26.32.7.06.99-.26.29-.7.32-.99.06l-.94-.84v4.53c0,.39-.32.7-.7.7Z"/>
      <g>
        <path class="cls-2" d="M53.33,93.86c-.24,0-.48-.06-.69-.17l-14.75-7.67c-.5-.26-.81-.78-.81-1.34,0-.56.33-1.08.83-1.33l5.9-2.95c.74-.37,1.64-.07,2.01.67.37.74.07,1.64-.67,2.01l-3.27,1.63,11.44,5.95,11.44-5.95-3.27-1.63c-.74-.37-1.04-1.27-.67-2.01.37-.74,1.27-1.04,2.01-.67l5.9,2.95c.5.25.82.77.83,1.33,0,.56-.31,1.08-.81,1.34l-14.75,7.67c-.22.11-.46.17-.69.17Z"/>
        <path class="cls-2" d="M53.33,105.53c-.24,0-.48-.06-.69-.17l-14.75-7.67c-.73-.38-1.02-1.29-.64-2.02.38-.74,1.29-1.02,2.02-.64l14.05,7.31,14.05-7.31c.74-.38,1.64-.1,2.02.64.38.73.1,1.64-.64,2.02l-14.75,7.67c-.22.11-.46.17-.69.17Z"/>
        <path class="cls-2" d="M53.33,99.89c-.24,0-.48-.06-.69-.17l-14.75-7.67c-.73-.38-1.02-1.29-.64-2.02.38-.74,1.29-1.02,2.02-.64l14.05,7.31,14.05-7.31c.74-.38,1.64-.1,2.02.64.38.73.1,1.64-.64,2.02l-14.75,7.67c-.22.11-.46.17-.69.17Z"/>
        <path class="cls-2" d="M53.33,79.88c-.24,0-.48-.06-.69-.17l-14.75-7.67c-.5-.26-.81-.78-.81-1.34,0-.56.33-1.08.83-1.33l5.9-2.95c.74-.37,1.64-.07,2.01.67s.07,1.64-.67,2.01l-3.27,1.63,11.44,5.95,11.44-5.95-3.27-1.63c-.74-.37-1.04-1.27-.67-2.01.37-.74,1.27-1.04,2.01-.67l5.9,2.95c.5.25.82.77.83,1.33,0,.56-.31,1.08-.81,1.34l-14.75,7.67c-.22.11-.46.17-.69.17ZM53.33,72.8c-.83,0-1.5-.67-1.5-1.5v-11.99l-2.81,2.5c-.62.55-1.57.49-2.12-.12-.55-.62-.49-1.57.12-2.12l5.3-4.71c.26-.23.59-.37.97-.38.02,0,.05,0,.07,0,.37,0,.71.15.96.38l5.3,4.71c.62.55.67,1.5.12,2.12-.55.62-1.5.68-2.12.12l-2.81-2.5v11.99c0,.83-.67,1.5-1.5,1.5Z"/>
      </g>
    </g>
  </g>
</svg>