<?xml version="1.0" encoding="UTF-8"?>
<svg id="Layer_2" data-name="Layer 2" xmlns="http://www.w3.org/2000/svg" viewBox="0 0 106.67 160">
  <defs>
    <style>
      .cls-1 {
        fill: #428bca;
        stroke: #428bca;
      }

      .cls-1, .cls-2, .cls-3, .cls-4, .cls-5, .cls-6, .cls-7 {
        stroke-miterlimit: 10;
      }

      .cls-2, .cls-3, .cls-8 {
        fill: none;
      }

      .cls-2, .cls-7 {
        stroke: #000;
      }

      .cls-9 {
        fill: #fff;
      }

      .cls-9, .cls-10 {
        stroke-width: 0px;
      }

      .cls-3 {
        stroke-width: 2.2px;
      }

      .cls-3, .cls-8 {
        stroke: #fff;
      }

      .cls-4 {
        fill: #ebc968;
        stroke: #ebc968;
      }

      .cls-10 {
        fill: #1e1e1e;
      }

      .cls-5 {
        fill: #cb666a;
        stroke: #cb666a;
      }

      .cls-6 {
        fill: #acc77e;
        stroke: #acc77e;
      }

      .cls-7 {
        fill: #282828;
      }

      .cls-8 {
        stroke-linecap: round;
        stroke-linejoin: round;
        stroke-width: 3px;
      }
    </style>
  </defs>
  <g id="Layer_1-2" data-name="Layer 1">
    <g>
      <g>
        <g>
          <rect class="cls-9" x="0" y="0" width="106.67" height="160" rx="5" ry="5"/>
          <path class="cls-7" d="M103.33,8.5v113.78l-36.72,32.72H6.83c-1.92,0-3.5-1.58-3.5-3.5V37.71L40.04,5h59.79c1.93,0,3.5,1.57,3.5,3.5Z"/>
          <g>
            <path class="cls-2" d="M103.34,122.29v29.22c0,1.92-1.57,3.5-3.5,3.5h-33.22l36.72-32.72Z"/>
            <path class="cls-2" d="M6.84,5.01h33.21L3.34,37.72V8.51c0-1.93,1.58-3.5,3.5-3.5Z"/>
          </g>
          <ellipse class="cls-3" cx="53.33" cy="80" rx="74.17" ry="42.62" transform="translate(-42.06 92.03) rotate(-63.5)"/>
        </g>
        <g>
          <path class="cls-6" d="M85.33,14.4l-31.99,65.6H8.27c1.91-6.18,4.42-12.48,7.53-18.72C33.62,25.53,64.61,4.73,85.33,14.4Z"/>
          <path class="cls-1" d="M53.34,80.01l-31.99,65.59c-.2-.09-.38-.18-.58-.28C3.62,136.78-.86,109.57,8.27,80.01h45.06Z"/>
          <path class="cls-4" d="M98.38,80.01h-45.04L85.33,14.4c.2.09.38.18.57.28,17.14,8.54,21.63,35.75,12.48,65.33Z"/>
          <path class="cls-5" d="M98.38,80.01c-1.9,6.18-4.41,12.47-7.52,18.71-17.81,35.74-48.78,56.56-69.52,46.88l31.99-65.59h45.04Z"/>
        </g>
      </g>
      <path class="cls-10" d="M13.62,20.2c-.11,0-.22-.03-.33-.08l-5.87-3.05c-.34-.18-.48-.6-.3-.95.18-.35.6-.48.95-.3l5.54,2.88,5.54-2.88c.35-.18.77-.05.95.3.18.34.04.77-.3.95l-5.87,3.05c-.1.05-.21.08-.33.08ZM13.62,17.38c-.11,0-.22-.03-.33-.08l-5.87-3.05c-.23-.12-.38-.37-.38-.63,0-.26.15-.51.39-.62l2.35-1.17c.35-.17.77-.03.94.31.17.35.03.77-.31.94l-1.11.56,4.32,2.25,4.32-2.25-1.11-.56c-.35-.17-.49-.6-.31-.94.17-.35.6-.49.94-.31l2.35,1.17c.24.12.39.36.39.62,0,.26-.14.51-.38.63l-5.87,3.05c-.1.05-.21.08-.33.08ZM13.62,14.56c-.39,0-.7-.32-.7-.7v-4.53l-.94.84c-.29.26-.74.23-.99-.06-.26-.29-.23-.74.06-.99l2.11-1.88c.12-.11.28-.18.46-.18h.02c.18,0,.34.07.46.18l2.11,1.88c.29.26.32.7.06.99-.26.29-.7.32-.99.06l-.94-.84v4.53c0,.39-.32.7-.7.7Z"/>
      <path class="cls-10" d="M93.49,151.17c-.11,0-.22-.03-.33-.08l-5.87-3.05c-.34-.18-.48-.6-.3-.95.18-.35.6-.48.95-.3l5.54,2.88,5.54-2.88c.35-.18.77-.05.95.3.18.34.04.77-.3.95l-5.87,3.05c-.1.05-.21.08-.33.08ZM93.49,148.35c-.11,0-.22-.03-.33-.08l-5.87-3.05c-.23-.12-.38-.37-.38-.63,0-.26.15-.51.39-.62l2.35-1.17c.35-.17.77-.03.94.31.17.35.03.77-.31.94l-1.11.56,4.32,2.25,4.32-2.25-1.11-.56c-.35-.17-.49-.6-.31-.94.17-.35.6-.49.94-.31l2.35,1.17c.24.12.39.36.39.62,0,.26-.14.51-.38.63l-5.87,3.05c-.1.05-.21.08-.33.08ZM93.49,145.54c-.39,0-.7-.32-.7-.7v-4.53l-.94.84c-.29.26-.74.23-.99-.06-.26-.29-.23-.74.06-.99l2.11-1.88c.12-.11.28-.18.46-.18h.02c.18,0,.34.07.46.18l2.11,1.88c.29.26.32.7.06.99-.26.29-.7.32-.99.06l-.94-.84v4.53c0,.39-.32.7-.7.7Z"/>
      <g>
        <path class="cls-8" d="M44.49,81.74l-5.9,2.95,14.74,7.67,14.74-7.67-5.9-2.95"/>
        <path class="cls-8" d="M38.59,96.36l14.74,7.67,14.74-7.67"/>
        <path class="cls-8" d="M38.59,90.72l14.74,7.67,14.74-7.67"/>
        <path class="cls-8" d="M44.49,67.76l-5.9,2.95,14.74,7.67,14.74-7.67-5.9-2.95M53.33,71.3v-15.33M48.03,60.69l5.31-4.72,5.31,4.72"/>
      </g>
    </g>
  </g>
</svg>