<?xml version="1.0" encoding="UTF-8"?>
<svg id="Layer_2" data-name="Layer 2" xmlns="http://www.w3.org/2000/svg" viewBox="0 0 106.67 160">
  <defs>
    <style>
      .cls-1 {
        fill: #428bca;
        stroke: #428bca;
      }

      .cls-1, .cls-2, .cls-3, .cls-4, .cls-5, .cls-6, .cls-7, .cls-8 {
        stroke-miterlimit: 10;
      }

      .cls-2, .cls-3, .cls-7 {
        fill: none;
      }

      .cls-2, .cls-7, .cls-8 {
        stroke: #000;
      }

      .cls-9 {
        fill: #fff;
        stroke-width: 0px;
      }

      .cls-3 {
        stroke: #fff;
      }

      .cls-3, .cls-7 {
        stroke-width: 2.2px;
      }

      .cls-4 {
        fill: #ebc968;
        stroke: #ebc968;
      }

      .cls-5 {
        fill: #cb666a;
        stroke: #cb666a;
      }

      .cls-6 {
        fill: #acc77e;
        stroke: #acc77e;
      }

      .cls-8 {
        fill: #282828;
      }
    </style>
  </defs>
  <g id="Layer_1-2" data-name="Layer 1">
    <g>
      <g>
        <g>
          <rect class="cls-9" x="0" y="0" width="106.67" height="160" rx="5" ry="5"/>
          <path class="cls-8" d="M103.33,8.5v113.78l-36.72,32.72H6.83c-1.92,0-3.5-1.58-3.5-3.5V37.71L40.04,5h59.79c1.93,0,3.5,1.57,3.5,3.5Z"/>
          <g>
            <path class="cls-2" d="M103.34,122.29v29.22c0,1.92-1.57,3.5-3.5,3.5h-33.22l36.72-32.72Z"/>
            <path class="cls-2" d="M6.84,5.01h33.21L3.34,37.72V8.51c0-1.93,1.58-3.5,3.5-3.5Z"/>
          </g>
          <ellipse class="cls-3" cx="53.33" cy="80" rx="74.17" ry="42.62" transform="translate(-42.06 92.03) rotate(-63.5)"/>
        </g>
        <g>
          <path class="cls-6" d="M85.33,14.4l-31.99,65.6H8.27c1.91-6.18,4.42-12.48,7.53-18.72C33.62,25.53,64.61,4.73,85.33,14.4Z"/>
          <path class="cls-1" d="M53.34,80.01l-31.99,65.59c-.2-.09-.38-.18-.58-.28C3.62,136.78-.86,109.57,8.27,80.01h45.06Z"/>
          <path class="cls-4" d="M98.38,80.01h-45.04L85.33,14.4c.2.09.38.18.57.28,17.14,8.54,21.63,35.75,12.48,65.33Z"/>
          <path class="cls-5" d="M98.38,80.01c-1.9,6.18-4.41,12.47-7.52,18.71-17.81,35.74-48.78,56.56-69.52,46.88l31.99-65.59h45.04Z"/>
        </g>
      </g>
      <g>
        <ellipse class="cls-7" cx="13.11" cy="15.76" rx="7.34" ry="4.22" transform="translate(-6.84 20.46) rotate(-63.5)"/>
        <g>
          <path class="cls-6" d="M16.28,9.26l-3.17,6.5h-4.46c.19-.61.44-1.24.75-1.85,1.76-3.54,4.83-5.6,6.88-4.64Z"/>
          <path class="cls-1" d="M13.11,15.76l-3.17,6.49s-.04-.02-.06-.03c-1.7-.85-2.14-3.54-1.24-6.47h4.46Z"/>
          <path class="cls-4" d="M17.57,15.76h-4.46l3.17-6.5s.04.02.06.03c1.7.85,2.14,3.54,1.24,6.47Z"/>
          <path class="cls-5" d="M17.57,15.76c-.19.61-.44,1.23-.74,1.85-1.76,3.54-4.83,5.6-6.88,4.64l3.17-6.49h4.46Z"/>
        </g>
      </g>
      <g>
        <ellipse class="cls-7" cx="93.38" cy="144.6" rx="7.34" ry="4.22" transform="translate(-77.69 163.65) rotate(-63.5)"/>
        <g>
          <path class="cls-6" d="M96.55,138.1l-3.17,6.5h-4.46c.19-.61.44-1.24.75-1.85,1.76-3.54,4.83-5.6,6.88-4.64Z"/>
          <path class="cls-1" d="M93.38,144.6l-3.17,6.49s-.04-.02-.06-.03c-1.7-.85-2.14-3.54-1.24-6.47h4.46Z"/>
          <path class="cls-4" d="M97.84,144.6h-4.46l3.17-6.5s.04.02.06.03c1.7.85,2.14,3.54,1.24,6.47Z"/>
          <path class="cls-5" d="M97.84,144.6c-.19.61-.44,1.23-.74,1.85-1.76,3.54-4.83,5.6-6.88,4.64l3.17-6.49h4.46Z"/>
        </g>
      </g>
    </g>
  </g>
</svg>