<?xml version="1.0" encoding="UTF-8"?>
<svg id="Layer_2" xmlns="http://www.w3.org/2000/svg" viewBox="0 0 106.67 160">
  <defs>
    <style>
      .cls-1 {
        fill: #acc77e;
      }

      .cls-2 {
        fill: #fff;
      }

      .cls-3 {
        fill: #ebc968;
      }

      .cls-4 {
        fill: #428bca;
      }

      .cls-5 {
        fill: none;
        stroke: #231f20;
        stroke-width: .5px;
      }

      .cls-5, .cls-6 {
        stroke-miterlimit: 10;
      }

      .cls-7, .cls-6 {
        fill: #cb666a;
      }

      .cls-6 {
        stroke: #cb666a;
      }
    </style>
  </defs>
  <g id="Layer_1-2" data-name="Layer_1">
    <g>
      <rect class="cls-2" x="0" y="0" width="106.67" height="160" rx="5" ry="5"/>
      <g>
        <path class="cls-7" d="M103.33,8.5v113.78l-36.72,32.72H6.83c-1.92,0-3.5-1.58-3.5-3.5V37.71L40.04,5h59.79c1.93,0,3.5,1.57,3.5,3.5Z"/>
        <path class="cls-6" d="M66.8,155.5H6.83c-2.21,0-4-1.79-4-4V37.49l.17-.15L39.85,4.5h59.98c2.21,0,4,1.79,4,4v114l-.17.15-36.86,32.85ZM3.83,37.94v113.57c0,1.65,1.35,3,3,3h59.59l36.41-32.44V8.5c0-1.65-1.35-3-3-3h-59.6L3.83,37.94Z"/>
      </g>
      <g>
        <path class="cls-6" d="M99.83,155.51h-34.53l38.53-34.34v30.34c0,2.21-1.79,4-4,4ZM67.92,154.51h31.91c1.65,0,3-1.35,3-3v-28.1l-34.91,31.1Z"/>
        <path class="cls-7" d="M2.83,38.83V8.51c0-2.21,1.79-4,4-4h34.52L2.83,38.83ZM6.83,5.51c-1.65,0-3,1.35-3,3v28.09L38.73,5.51H6.83Z"/>
      </g>
      <path class="cls-2" d="M32.07,150.18c-4.4,0-8.55-.93-12.33-2.82C-1.83,136.6-4.31,97.64,14.21,60.49,32.72,23.35,65.34,1.88,86.91,12.64c10.55,5.26,16.9,17.27,17.88,33.81.96,16.32-3.42,35.16-12.34,53.06s-21.33,32.74-34.95,41.79c-8.85,5.89-17.55,8.88-25.43,8.88ZM74.59,12.03c-19.46,0-43.51,19.56-58.42,49.45C-1.8,97.53.24,135.18,20.73,145.39c9.82,4.9,22.45,2.79,35.56-5.93,13.3-8.84,25.44-23.38,34.2-40.94s13.06-36.01,12.12-51.95c-.93-15.72-6.85-27.07-16.67-31.97-3.5-1.75-7.33-2.58-11.34-2.58Z"/>
      <g>
        <g>
          <path class="cls-1" d="M85.33,14.4l-31.99,65.6H8.27c1.91-6.18,4.42-12.48,7.53-18.72C33.61,25.53,64.6,4.73,85.33,14.4Z"/>
          <path class="cls-1" d="M53.65,80.51H7.59l.2-.65c1.96-6.34,4.5-12.66,7.56-18.79C33.15,25.33,64.64,4.2,85.54,13.95l.46.22-32.35,66.34ZM8.95,79.51h44.07L84.65,14.65c-20.41-9-50.97,11.88-68.41,46.86-2.93,5.88-5.38,11.93-7.3,17.99Z"/>
        </g>
        <g>
          <path class="cls-4" d="M53.33,80.01l-31.99,65.59c-.2-.09-.38-.18-.58-.28C3.62,136.78-.86,109.57,8.27,80.01h45.06Z"/>
          <path class="cls-4" d="M21.58,146.25l-.44-.2c-.2-.09-.4-.18-.6-.28C3.64,137.35-1.6,110.25,7.79,79.86l.11-.35h46.23l-32.56,66.75ZM8.64,80.51c-9.09,29.77-4.04,56.21,12.34,64.37.04.02.08.04.12.06l31.43-64.43H8.64Z"/>
        </g>
        <g>
          <path class="cls-3" d="M98.38,80.01h-45.04L85.33,14.4c.2.09.38.18.57.28,17.14,8.54,21.63,35.75,12.48,65.33Z"/>
          <path class="cls-3" d="M98.75,80.51h-46.21L85.09,13.75l.44.2c.21.09.4.19.6.29,16.89,8.42,22.13,35.52,12.72,65.92l-.11.35ZM54.13,79.51h43.88c9.11-29.77,4.06-56.21-12.33-64.38-.04-.02-.08-.04-.12-.06l-31.43,64.44Z"/>
        </g>
        <g>
          <path class="cls-7" d="M98.38,80.01c-1.9,6.18-4.41,12.47-7.52,18.71-17.81,35.74-48.78,56.56-69.52,46.88l31.99-65.59h45.04Z"/>
          <path class="cls-7" d="M32.41,148.48c-4.01,0-7.81-.8-11.29-2.43l-.46-.22.22-.46,32.13-65.87h46.03l-.2.65c-1.93,6.3-4.47,12.62-7.55,18.78-8.65,17.35-20.66,31.79-33.83,40.67-8.72,5.88-17.3,8.88-25.06,8.88ZM22.01,145.35c20.4,8.99,50.96-11.88,68.4-46.86,2.94-5.91,5.39-11.96,7.29-17.99h-44.05l-31.63,64.85Z"/>
        </g>
      </g>
      <g>
        <path class="cls-3" d="M18.78,15.82h-5.77l3.84-8.22c.07.02.14.06.21.09,1.33.67,2.13,2.15,2.25,4.19.07,1.23-.11,2.57-.53,3.94Z"/>
        <path class="cls-1" d="M16.85,7.6l-3.84,8.22h-5.78c.24-.8.56-1.61.96-2.41,1.06-2.13,2.55-3.9,4.18-4.99,1.61-1.07,3.19-1.36,4.48-.82Z"/>
        <path class="cls-4" d="M13.01,15.82l-3.83,8.22c-.08-.03-.15-.06-.22-.1-1.32-.66-2.12-2.15-2.24-4.19-.08-1.23.1-2.57.51-3.93h5.78Z"/>
        <path class="cls-7" d="M18.78,15.82c-.23.8-.55,1.61-.95,2.4-1.06,2.14-2.54,3.91-4.17,4.99-1.09.72-2.16,1.09-3.13,1.09-.48,0-.93-.09-1.35-.26l3.83-8.22h5.77Z"/>
        <path class="cls-5" d="M19.31,11.88c-.12-2.04-.92-3.52-2.24-4.19s-2.99-.4-4.69.73c-1.63,1.08-3.11,2.86-4.18,4.99-1.06,2.13-1.59,4.39-1.47,6.34.12,2.04.92,3.52,2.24,4.19.48.24,1.01.36,1.57.36.98,0,2.05-.37,3.13-1.09,1.63-1.08,3.12-2.86,4.18-4.99,1.06-2.13,1.59-4.39,1.47-6.34Z"/>
      </g>
      <g>
        <path class="cls-3" d="M99.05,144.54h-5.77l3.84-8.22c.07.02.14.06.21.09,1.33.67,2.13,2.15,2.25,4.19.07,1.23-.11,2.57-.53,3.94Z"/>
        <path class="cls-1" d="M97.12,136.32l-3.84,8.22h-5.78c.24-.8.56-1.61.96-2.41,1.06-2.13,2.55-3.9,4.18-4.99,1.61-1.07,3.19-1.36,4.48-.82Z"/>
        <path class="cls-4" d="M93.28,144.54l-3.83,8.22c-.08-.03-.15-.06-.22-.1-1.32-.66-2.12-2.15-2.24-4.19-.08-1.23.1-2.57.51-3.93h5.78Z"/>
        <path class="cls-7" d="M99.05,144.54c-.23.8-.55,1.61-.95,2.4-1.06,2.14-2.54,3.91-4.17,4.99-1.09.72-2.16,1.09-3.13,1.09-.48,0-.93-.09-1.35-.26l3.83-8.22h5.77Z"/>
        <path class="cls-5" d="M99.58,140.6c-.12-2.04-.92-3.52-2.24-4.19s-2.99-.4-4.69.73c-1.63,1.08-3.11,2.86-4.18,4.99-1.06,2.13-1.59,4.39-1.47,6.34.12,2.04.92,3.52,2.24,4.19.48.24,1.01.36,1.57.36.98,0,2.05-.37,3.13-1.09,1.63-1.08,3.12-2.86,4.18-4.99,1.06-2.13,1.59-4.39,1.47-6.34Z"/>
      </g>
    </g>
  </g>
</svg>