<?xml version="1.0" encoding="UTF-8"?>
<svg id="Layer_2" data-name="Layer 2" xmlns="http://www.w3.org/2000/svg" viewBox="0 0 106.67 160">
  <defs>
    <style>
      .cls-1 {
        fill: #cb666a;
      }

      .cls-1, .cls-2, .cls-3, .cls-4, .cls-5, .cls-6, .cls-7, .cls-8 {
        stroke-width: 0px;
      }

      .cls-3 {
        fill: #fff;
      }

      .cls-4 {
        fill: #ebc968;
      }

      .cls-5 {
        fill: #231f20;
      }

      .cls-6 {
        fill: #428bca;
      }

      .cls-7 {
        fill: #acc77e;
      }

      .cls-8 {
        fill: #282828;
      }
    </style>
  </defs>
  <g id="Layer_1-2" data-name="Layer 1">
    <g>
      <rect class="cls-3" x="0" y="0" width="106.67" height="160" rx="5" ry="5"/>
      <g>
        <path class="cls-8" d="M103.33,8.5v113.78l-36.72,32.72H6.83c-1.92,0-3.5-1.58-3.5-3.5V37.71L40.04,5h59.79c1.93,0,3.5,1.57,3.5,3.5Z"/>
        <path class="cls-2" d="M66.8,155.5H6.83c-2.21,0-4-1.79-4-4V37.49l.17-.15L39.85,4.5h59.98c2.21,0,4,1.79,4,4v114l-.17.15-36.86,32.85ZM3.83,37.94v113.57c0,1.65,1.35,3,3,3h59.59l36.41-32.44V8.5c0-1.65-1.35-3-3-3h-59.6L3.83,37.94Z"/>
      </g>
      <g>
        <path class="cls-2" d="M99.83,155.51h-34.53l38.53-34.34v30.34c0,2.21-1.79,4-4,4ZM67.92,154.51h31.91c1.65,0,3-1.35,3-3v-28.1l-34.91,31.1Z"/>
        <path class="cls-2" d="M2.83,38.83V8.51c0-2.21,1.79-4,4-4h34.52L2.83,38.83ZM6.83,5.51c-1.65,0-3,1.35-3,3v28.09L38.73,5.51H6.83Z"/>
      </g>
      <path class="cls-3" d="M32.07,150.18c-4.4,0-8.55-.93-12.33-2.82C-1.83,136.6-4.31,97.64,14.21,60.49,32.72,23.35,65.34,1.88,86.91,12.64c10.55,5.26,16.9,17.27,17.88,33.81.96,16.32-3.42,35.16-12.34,53.06s-21.33,32.74-34.95,41.79c-8.85,5.89-17.55,8.88-25.43,8.88ZM74.59,12.03c-19.46,0-43.51,19.56-58.42,49.45C-1.8,97.53.24,135.18,20.73,145.39c9.82,4.9,22.45,2.79,35.56-5.93,13.3-8.84,25.44-23.38,34.2-40.94s13.06-36.01,12.12-51.95c-.93-15.72-6.85-27.07-16.67-31.97-3.5-1.75-7.33-2.58-11.34-2.58Z"/>
      <g>
        <g>
          <path class="cls-7" d="M85.33,14.4l-31.99,65.6H8.27c1.91-6.18,4.42-12.48,7.53-18.72C33.61,25.53,64.6,4.73,85.33,14.4Z"/>
          <path class="cls-7" d="M53.65,80.51H7.59l.2-.65c1.96-6.34,4.5-12.66,7.56-18.79C33.15,25.33,64.64,4.2,85.54,13.95l.46.22-32.35,66.34ZM8.95,79.51h44.07L84.65,14.65c-20.41-9-50.97,11.88-68.41,46.86-2.93,5.88-5.38,11.93-7.3,17.99Z"/>
        </g>
        <g>
          <path class="cls-6" d="M53.33,80.01l-31.99,65.59c-.2-.09-.38-.18-.58-.28C3.62,136.78-.86,109.57,8.27,80.01h45.06Z"/>
          <path class="cls-6" d="M21.58,146.25l-.44-.2c-.2-.09-.4-.18-.6-.28C3.64,137.35-1.6,110.25,7.79,79.86l.11-.35h46.23l-32.56,66.75ZM8.64,80.51c-9.09,29.77-4.04,56.21,12.34,64.37.04.02.08.04.12.06l31.43-64.43H8.64Z"/>
        </g>
        <g>
          <path class="cls-4" d="M98.38,80.01h-45.04L85.33,14.4c.2.09.38.18.57.28,17.14,8.54,21.63,35.75,12.48,65.33Z"/>
          <path class="cls-4" d="M98.75,80.51h-46.21L85.09,13.75l.44.2c.21.09.4.19.6.29,16.89,8.42,22.13,35.52,12.72,65.92l-.11.35ZM54.13,79.51h43.88c9.11-29.77,4.06-56.21-12.33-64.38-.04-.02-.08-.04-.12-.06l-31.43,64.44Z"/>
        </g>
        <g>
          <path class="cls-1" d="M98.38,80.01c-1.9,6.18-4.41,12.47-7.52,18.71-17.81,35.74-48.78,56.56-69.52,46.88l31.99-65.59h45.04Z"/>
          <path class="cls-1" d="M32.41,148.48c-4.01,0-7.81-.8-11.29-2.43l-.46-.22.22-.46,32.13-65.87h46.03l-.2.65c-1.93,6.3-4.47,12.62-7.55,18.78-8.65,17.35-20.66,31.79-33.83,40.67-8.72,5.88-17.3,8.88-25.06,8.88ZM22.01,145.35c20.4,8.99,50.96-11.88,68.4-46.86,2.94-5.91,5.39-11.96,7.29-17.99h-44.05l-31.63,64.85Z"/>
        </g>
      </g>
      <g>
        <path class="cls-5" d="M90.89,153.08c-.56,0-1.08-.12-1.57-.36-1.33-.66-2.12-2.15-2.24-4.18-.12-1.95.41-4.21,1.47-6.34s2.55-3.91,4.18-4.99c1.7-1.13,3.37-1.39,4.69-.73,1.33.66,2.12,2.15,2.24,4.18.12,1.95-.41,4.21-1.47,6.34-1.06,2.13-2.55,3.91-4.18,4.99-1.08.72-2.15,1.09-3.13,1.09ZM95.86,136.93c-.81,0-1.73.32-2.67.95-1.51,1.01-2.9,2.67-3.9,4.68-1,2.01-1.49,4.11-1.39,5.93.1,1.73.74,2.98,1.79,3.5,1.05.53,2.43.29,3.88-.68,1.51-1.01,2.9-2.67,3.9-4.68,1-2.01,1.49-4.11,1.39-5.93-.1-1.73-.74-2.98-1.79-3.5-.37-.18-.77-.27-1.2-.27Z"/>
        <g>
          <g>
            <path class="cls-7" d="M97.12,136.93l-3.74,7.67h-5.27c.22-.72.52-1.46.88-2.19,2.08-4.18,5.7-6.61,8.12-5.48Z"/>
            <path class="cls-7" d="M93.41,144.66h-5.38l.02-.08c.23-.74.53-1.48.88-2.2,2.08-4.18,5.76-6.65,8.2-5.51l.05.03-3.78,7.75ZM88.19,144.54h5.15l3.7-7.58c-2.39-1.05-5.96,1.39-7.99,5.48-.34.69-.63,1.39-.85,2.1Z"/>
          </g>
          <g>
            <path class="cls-6" d="M93.38,144.6l-3.74,7.66s-.04-.02-.07-.03c-2-1-2.53-4.18-1.46-7.63h5.27Z"/>
            <path class="cls-6" d="M89.67,152.34l-.05-.02s-.05-.02-.07-.03c-1.97-.98-2.59-4.15-1.49-7.7v-.04h5.42l-3.8,7.8ZM88.15,144.66c-1.06,3.48-.47,6.57,1.44,7.52,0,0,0,0,.01,0l3.67-7.53h-5.13Z"/>
          </g>
          <g>
            <path class="cls-4" d="M98.64,144.6h-5.26l3.74-7.67s.04.02.07.03c2,1,2.53,4.18,1.46,7.63Z"/>
            <path class="cls-4" d="M98.68,144.66h-5.4l3.8-7.8.05.02s.05.02.07.03c1.97.98,2.59,4.15,1.49,7.7v.04ZM93.47,144.54h5.13c1.06-3.48.47-6.57-1.44-7.52,0,0,0,0-.01,0l-3.67,7.53Z"/>
          </g>
          <g>
            <path class="cls-1" d="M98.64,144.6c-.22.72-.52,1.46-.88,2.19-2.08,4.18-5.7,6.61-8.12,5.48l3.74-7.66h5.26Z"/>
            <path class="cls-1" d="M90.93,152.6c-.47,0-.91-.09-1.32-.28l-.05-.03.03-.05,3.75-7.7h5.38l-.02.08c-.23.74-.52,1.47-.88,2.2-1.01,2.03-2.41,3.72-3.95,4.75-1.02.69-2.02,1.04-2.93,1.04ZM89.72,152.23c2.38,1.05,5.96-1.39,7.99-5.48.34-.69.63-1.4.85-2.1h-5.15l-3.7,7.58Z"/>
          </g>
        </g>
      </g>
      <g>
        <path class="cls-5" d="M10.63,24.24c-.56,0-1.08-.12-1.57-.36-1.33-.66-2.12-2.15-2.24-4.18-.12-1.95.41-4.21,1.47-6.34,1.06-2.13,2.55-3.91,4.18-4.99,1.7-1.13,3.37-1.39,4.69-.73,1.33.66,2.12,2.15,2.24,4.18.12,1.95-.41,4.21-1.47,6.34-1.06,2.13-2.55,3.91-4.18,4.99-1.08.72-2.15,1.09-3.13,1.09ZM15.59,8.09c-.81,0-1.73.32-2.67.95-1.51,1.01-2.9,2.67-3.9,4.68-1,2.01-1.49,4.11-1.39,5.93.1,1.73.74,2.98,1.79,3.5,1.05.53,2.43.29,3.88-.68,1.51-1.01,2.9-2.67,3.9-4.68,1-2.01,1.49-4.11,1.39-5.93-.1-1.73-.74-2.98-1.79-3.5-.37-.18-.77-.27-1.2-.27Z"/>
        <g>
          <g>
            <path class="cls-7" d="M16.85,8.09l-3.74,7.67h-5.27c.22-.72.52-1.46.88-2.19,2.08-4.18,5.7-6.61,8.12-5.48Z"/>
            <path class="cls-7" d="M13.15,15.82h-5.38l.02-.08c.23-.74.53-1.48.88-2.2,2.08-4.18,5.76-6.65,8.2-5.51l.05.03-3.78,7.75ZM7.92,15.7h5.15l3.7-7.58c-2.39-1.05-5.96,1.39-7.99,5.48-.34.69-.63,1.39-.85,2.1Z"/>
          </g>
          <g>
            <path class="cls-6" d="M13.11,15.76l-3.74,7.66s-.04-.02-.07-.03c-2-1-2.53-4.18-1.46-7.63h5.27Z"/>
            <path class="cls-6" d="M9.4,23.5l-.05-.02s-.05-.02-.07-.03c-1.97-.98-2.59-4.15-1.49-7.7v-.04h5.42l-3.8,7.8ZM7.89,15.82c-1.06,3.48-.47,6.57,1.44,7.52,0,0,0,0,.01,0l3.67-7.53h-5.13Z"/>
          </g>
          <g>
            <path class="cls-4" d="M18.37,15.76h-5.26l3.74-7.67s.04.02.07.03c2,1,2.53,4.18,1.46,7.63Z"/>
            <path class="cls-4" d="M18.42,15.82h-5.4l3.8-7.8.05.02s.05.02.07.03c1.97.98,2.59,4.15,1.49,7.7v.04ZM13.2,15.7h5.13c1.06-3.48.47-6.57-1.44-7.52,0,0,0,0-.01,0l-3.67,7.53Z"/>
          </g>
          <g>
            <path class="cls-1" d="M18.37,15.76c-.22.72-.52,1.46-.88,2.19-2.08,4.18-5.7,6.61-8.12,5.48l3.74-7.66h5.26Z"/>
            <path class="cls-1" d="M10.67,23.76c-.47,0-.91-.09-1.32-.28l-.05-.03.03-.05,3.75-7.7h5.38l-.02.08c-.23.74-.52,1.47-.88,2.2-1.01,2.03-2.41,3.72-3.95,4.75-1.02.69-2.02,1.04-2.93,1.04ZM9.45,23.39c2.38,1.05,5.96-1.39,7.99-5.48.34-.69.63-1.4.85-2.1h-5.15l-3.7,7.58Z"/>
          </g>
        </g>
      </g>
    </g>
  </g>
</svg>