<?xml version="1.0" encoding="UTF-8"?>
<svg id="Layer_2" data-name="Layer 2" xmlns="http://www.w3.org/2000/svg" viewBox="0 0 106.67 160">
  <defs>
    <style>
      .cls-1 {
        fill: #fdfffd;
        stroke: #fff;
        stroke-miterlimit: 10;
      }

      .cls-2 {
        fill: #0078ba;
        stroke-width: 0px;
      }
    </style>
  </defs>
  <g id="Layer_1-2" data-name="Layer 1">
    <g>
      <rect class="cls-2" x="0" y="0" width="106.67" height="160" rx="5" ry="5"/>
      <path class="cls-1" d="M10.69,18.98c0-2.47.15-3.17.25-3.5.38-1.16,1.23-1.75,2.49-1.75s2.11.6,2.49,1.75c.11.33.26,1.02.26,3.5s-.15,3.17-.26,3.5c-.38,1.15-1.23,1.75-2.49,1.75s-2.12-.6-2.49-1.75c-.1-.33-.25-1.02-.25-3.5ZM13.43,23.81c1.06,0,1.74-.5,2.05-1.44.11-.33.24-.99.24-3.39s-.13-3.06-.24-3.39c-.32-.95-.99-1.44-2.05-1.44s-1.74.5-2.05,1.44c-.11.33-.24.99-.24,3.39s.13,3.06.24,3.39c.31.95.99,1.44,2.05,1.44Z"/>
      <path class="cls-1" d="M90.49,140.98c0-2.47.15-3.17.25-3.5.38-1.16,1.23-1.75,2.49-1.75s2.11.6,2.49,1.75c.11.33.26,1.02.26,3.5s-.15,3.17-.26,3.5c-.38,1.15-1.23,1.75-2.49,1.75s-2.12-.6-2.49-1.75c-.1-.33-.25-1.02-.25-3.5ZM93.23,145.81c1.06,0,1.74-.5,2.05-1.44.11-.33.24-.99.24-3.39s-.13-3.06-.24-3.39c-.32-.95-.99-1.44-2.05-1.44s-1.74.5-2.05,1.44c-.11.33-.24.99-.24,3.39s.13,3.06.24,3.39c.31.95.99,1.44,2.05,1.44Z"/>
      <path class="cls-1" d="M44.37,79.8c0-8.08.49-10.34.83-11.42,1.23-3.77,4.02-5.73,8.13-5.73s6.91,1.96,8.13,5.73c.34,1.08.83,3.33.83,11.42s-.49,10.34-.83,11.42c-1.22,3.77-4.02,5.73-8.13,5.73s-6.91-1.96-8.13-5.73c-.34-1.08-.83-3.33-.83-11.42ZM53.33,95.57c3.48,0,5.68-1.62,6.71-4.7.34-1.08.78-3.23.78-11.07s-.44-10-.78-11.07c-1.03-3.09-3.23-4.7-6.71-4.7s-5.68,1.62-6.71,4.7c-.34,1.08-.78,3.23-.78,11.07s.44,10,.78,11.07c1.03,3.09,3.23,4.7,6.71,4.7Z"/>
    </g>
  </g>
</svg>