<?xml version="1.0" encoding="UTF-8"?>
<svg id="Layer_2" data-name="Layer 2" xmlns="http://www.w3.org/2000/svg" viewBox="0 0 106.67 160">
  <defs>
    <style>
      .cls-1 {
        fill: #83c040;
        stroke-width: 0px;
      }

      .cls-2 {
        fill: #fdfffd;
        stroke: #fff;
        stroke-miterlimit: 10;
      }
    </style>
  </defs>
  <g id="Layer_1-2" data-name="Layer 1">
    <g>
      <rect class="cls-1" x="0" y="0" width="106.67" height="160" rx="5" ry="5"/>
      <path class="cls-2" d="M13.6,14.5h-.03l-1.96,1.43c-.08.06-.17.03-.17-.09v-.18c0-.1.03-.17.11-.22l1.99-1.46c.08-.06.12-.09.21-.09h.15c.09,0,.15.06.15.15v9.9c0,.09-.06.15-.15.15h-.15c-.09,0-.15-.06-.15-.15v-9.43Z"/>
      <path class="cls-2" d="M93.4,136.5h-.03l-1.96,1.42c-.08.06-.17.03-.17-.09v-.18c0-.1.03-.17.11-.22l1.99-1.46c.08-.06.12-.09.21-.09h.15c.09,0,.15.06.15.15v9.9c0,.09-.06.15-.15.15h-.15c-.09,0-.15-.06-.15-.15v-9.43Z"/>
      <path class="cls-2" d="M53.87,65.15h-.1l-6.42,4.65c-.25.2-.54.1-.54-.29v-.59c0-.34.1-.54.34-.73l6.52-4.75c.25-.2.39-.29.69-.29h.49c.29,0,.49.2.49.49v32.34c0,.29-.2.49-.49.49h-.49c-.29,0-.49-.2-.49-.49v-30.82Z"/>
    </g>
  </g>
</svg>