<?xml version="1.0" encoding="UTF-8"?>
<svg id="Layer_2" data-name="Layer 2" xmlns="http://www.w3.org/2000/svg" viewBox="0 0 106.67 160">
  <defs>
    <style>
      .cls-1 {
        fill: #fdfffd;
        stroke: #fff;
        stroke-miterlimit: 10;
      }

      .cls-2 {
        fill: #ffd136;
        stroke-width: 0px;
      }
    </style>
  </defs>
  <g id="Layer_1-2" data-name="Layer 1">
    <g>
      <rect class="cls-2" x="0" y="0" width="106.67" height="160" rx="5" ry="5"/>
      <path class="cls-1" d="M11.14,21.86l.13-.03c.11-.03.18.03.2.12.13,1.06.88,1.86,2.21,1.86.93,0,1.66-.45,1.96-1.33.12-.36.18-.9.18-1.65s-.09-1.3-.21-1.68c-.27-.86-.93-1.3-1.89-1.3-1.1,0-1.83.69-2.04,1.48-.03.09-.06.15-.15.15h-.15c-.09,0-.15-.06-.15-.15v-5.29c0-.09.06-.15.15-.15h4.54c.09,0,.15.06.15.15v.12c0,.09-.06.15-.15.15h-4.15c-.06,0-.09.03-.09.09v4.14h.01c.27-.55,1-1.11,2.03-1.11,1.14,0,1.96.53,2.31,1.58.13.42.24,1,.24,1.83s-.08,1.35-.21,1.75c-.35,1.07-1.21,1.65-2.38,1.65-1.58,0-2.49-.96-2.64-2.19-.01-.09.02-.17.11-.18Z"/>
      <path class="cls-1" d="M90.94,143.86l.13-.03c.11-.03.18.03.2.12.13,1.06.88,1.86,2.21,1.86.93,0,1.66-.45,1.96-1.33.12-.36.18-.9.18-1.65s-.09-1.3-.21-1.68c-.27-.86-.93-1.31-1.89-1.31-1.1,0-1.83.69-2.04,1.49-.03.09-.06.15-.15.15h-.15c-.09,0-.15-.06-.15-.15v-5.29c0-.09.06-.15.15-.15h4.54c.09,0,.15.06.15.15v.12c0,.09-.06.15-.15.15h-4.15c-.06,0-.09.03-.09.09v4.14h.01c.27-.55,1-1.11,2.03-1.11,1.14,0,1.96.53,2.31,1.58.13.42.24,1,.24,1.83s-.08,1.35-.21,1.75c-.35,1.07-1.21,1.65-2.38,1.65-1.58,0-2.49-.96-2.64-2.19-.01-.09.02-.17.11-.18Z"/>
      <path class="cls-1" d="M45.84,89.2l.44-.1c.34-.1.59.1.64.39.44,3.48,2.89,6.08,7.2,6.08,3.04,0,5.44-1.47,6.42-4.36.39-1.18.59-2.94.59-5.39s-.29-4.26-.69-5.49c-.88-2.79-3.04-4.26-6.17-4.26-3.58,0-5.98,2.25-6.66,4.85-.1.29-.2.49-.49.49h-.49c-.29,0-.49-.2-.49-.49v-17.3c0-.29.2-.49.49-.49h14.85c.29,0,.49.2.49.49v.39c0,.29-.2.49-.49.49h-13.57c-.2,0-.29.1-.29.29v13.52h.05c.88-1.81,3.28-3.62,6.61-3.62,3.72,0,6.42,1.71,7.55,5.14.44,1.37.78,3.28.78,5.98s-.25,4.41-.69,5.73c-1.13,3.48-3.97,5.39-7.79,5.39-5.14,0-8.13-3.14-8.62-7.15-.05-.29.05-.54.34-.59Z"/>
    </g>
  </g>
</svg>