<?xml version="1.0" encoding="UTF-8"?>
<svg id="Layer_2" data-name="Layer 2" xmlns="http://www.w3.org/2000/svg" viewBox="0 0 106.67 160">
  <defs>
    <style>
      .cls-1 {
        fill: #fdfffd;
        stroke: #fff;
        stroke-miterlimit: 10;
      }

      .cls-2 {
        fill: #ffd136;
        stroke-width: 0px;
      }
    </style>
  </defs>
  <g id="Layer_1-2" data-name="Layer 1">
    <g>
      <rect class="cls-2" x="0" y="0" width="106.67" height="160" rx="5" ry="5"/>
      <path class="cls-1" d="M15.77,14.35v-.04h-4.21c-.06,0-.09.03-.09.09v1.51c0,.09-.06.15-.15.15h-.15c-.09,0-.15-.06-.15-.15v-1.88c0-.09.06-.15.15-.15h4.93c.09,0,.15.06.15.15v.21c0,.06-.01.11-.03.15l-3.78,9.55c-.04.1-.08.13-.2.13h-.18c-.09,0-.12-.06-.08-.17l3.78-9.57Z"/>
      <path class="cls-1" d="M95.57,136.35v-.04h-4.21c-.06,0-.09.03-.09.09v1.51c0,.09-.06.15-.15.15h-.15c-.09,0-.15-.06-.15-.15v-1.88c0-.09.06-.15.15-.15h4.93c.09,0,.15.06.15.15v.21c0,.06-.01.11-.03.15l-3.78,9.55c-.04.1-.08.13-.2.13h-.18c-.09,0-.12-.06-.08-.17l3.78-9.57Z"/>
      <path class="cls-1" d="M60.98,64.66v-.15h-13.77c-.2,0-.29.1-.29.29v4.95c0,.29-.2.49-.49.49h-.49c-.29,0-.49-.2-.49-.49v-6.12c0-.29.2-.49.49-.49h16.12c.29,0,.49.2.49.49v.69c0,.2-.05.34-.1.49l-12.35,31.21c-.15.34-.25.44-.64.44h-.59c-.29,0-.39-.2-.25-.54l12.35-31.26Z"/>
    </g>
  </g>
</svg>