<?xml version="1.0" encoding="UTF-8"?>
<svg id="Layer_2" data-name="Layer 2" xmlns="http://www.w3.org/2000/svg" viewBox="0 0 106.67 160">
  <defs>
    <style>
      .cls-1 {
        fill: #fdfffd;
        stroke: #fff;
        stroke-miterlimit: 10;
      }

      .cls-2 {
        fill: #da3e25;
        stroke-width: 0px;
      }
    </style>
  </defs>
  <g id="Layer_1-2" data-name="Layer 1">
    <g>
      <rect class="cls-2" x="0" y="0" width="106.67" height="160" rx="5" ry="5"/>
      <path class="cls-1" d="M12.32,18.71v-.03c-.92-.41-1.48-1.25-1.48-2.36,0-1.51,1.08-2.59,2.59-2.59s2.59,1.08,2.59,2.59c0,1.11-.57,1.95-1.49,2.36v.03c1.07.41,1.77,1.37,1.77,2.66,0,1.68-1.2,2.87-2.88,2.87s-2.88-1.19-2.88-2.87c0-1.29.71-2.25,1.77-2.66ZM13.43,23.81c1.42,0,2.43-1.05,2.43-2.45s-.97-2.45-2.43-2.45-2.43,1.07-2.43,2.45,1,2.45,2.43,2.45ZM15.58,16.33c0-1.27-.87-2.17-2.14-2.17s-2.15.9-2.15,2.17.84,2.17,2.15,2.17,2.14-.93,2.14-2.17Z"/>
      <path class="cls-1" d="M92.12,140.71v-.03c-.92-.41-1.48-1.25-1.48-2.36,0-1.51,1.08-2.59,2.59-2.59s2.59,1.08,2.59,2.59c0,1.11-.57,1.95-1.49,2.36v.03c1.07.41,1.77,1.37,1.77,2.66,0,1.68-1.2,2.87-2.88,2.87s-2.88-1.19-2.88-2.87c0-1.29.71-2.25,1.77-2.66ZM93.23,145.81c1.42,0,2.43-1.05,2.43-2.45s-.97-2.45-2.43-2.45-2.43,1.07-2.43,2.45,1,2.45,2.43,2.45ZM95.38,138.33c0-1.27-.87-2.17-2.14-2.17s-2.15.9-2.15,2.17.84,2.17,2.15,2.17,2.14-.93,2.14-2.17Z"/>
      <path class="cls-1" d="M49.71,78.91v-.1c-2.99-1.32-4.85-4.07-4.85-7.69,0-4.95,3.53-8.48,8.48-8.48s8.48,3.53,8.48,8.48c0,3.63-1.86,6.37-4.85,7.69v.1c3.48,1.32,5.78,4.46,5.78,8.67,0,5.49-3.92,9.36-9.41,9.36s-9.41-3.87-9.41-9.36c0-4.21,2.3-7.35,5.78-8.67ZM53.33,95.57c4.65,0,7.94-3.43,7.94-7.99s-3.18-7.99-7.94-7.99-7.94,3.48-7.94,7.99,3.28,7.99,7.94,7.99ZM60.34,71.12c0-4.16-2.84-7.1-7.01-7.1s-7.01,2.94-7.01,7.1,2.74,7.1,7.01,7.1,7.01-3.04,7.01-7.1Z"/>
    </g>
  </g>
</svg>