<?xml version="1.0" encoding="UTF-8"?>
<svg id="Layer_2" data-name="Layer 2" xmlns="http://www.w3.org/2000/svg" viewBox="0 0 106.67 160">
  <defs>
    <style>
      .cls-1 {
        fill: #83c040;
        stroke-width: 0px;
      }

      .cls-2 {
        fill: #fdfffd;
        stroke: #fff;
        stroke-miterlimit: 10;
      }
    </style>
  </defs>
  <g id="Layer_1-2" data-name="Layer 1">
    <g>
      <rect class="cls-1" x="0" y="0" width="106.67" height="160" rx="5" ry="5"/>
      <path class="cls-2" d="M15.01,19.36l-.03-.02c-.3.29-.86.48-1.54.48-1.7,0-2.87-1.23-2.87-3.04s1.17-3.04,2.87-3.04,2.86,1.23,2.86,3.04c0,.81-.3,1.58-.66,2.28l-2.48,4.9c-.04.09-.09.12-.19.12h-.18c-.1,0-.12-.08-.09-.13l2.31-4.59ZM15.85,16.78c0-1.54-.99-2.62-2.42-2.62s-2.42,1.08-2.42,2.62.99,2.62,2.42,2.62,2.42-1.08,2.42-2.62Z"/>
      <path class="cls-2" d="M94.81,141.36l-.03-.02c-.3.29-.86.48-1.54.48-1.7,0-2.87-1.23-2.87-3.04s1.17-3.04,2.87-3.04,2.86,1.23,2.86,3.04c0,.81-.3,1.58-.66,2.28l-2.48,4.9c-.04.09-.09.12-.19.12h-.18c-.1,0-.12-.08-.09-.13l2.31-4.59ZM95.65,138.78c0-1.54-.99-2.62-2.42-2.62s-2.42,1.08-2.42,2.62.99,2.62,2.42,2.62,2.42-1.08,2.42-2.62Z"/>
      <path class="cls-2" d="M58.48,81.02l-.1-.05c-.98.93-2.79,1.57-5.05,1.57-5.54,0-9.36-4.02-9.36-9.95s3.82-9.95,9.36-9.95,9.36,4.02,9.36,9.95c0,2.65-.98,5.14-2.16,7.45l-8.08,16.02c-.15.29-.29.39-.64.39h-.59c-.34,0-.39-.25-.29-.44l7.55-14.99ZM61.22,72.59c0-5.05-3.23-8.57-7.89-8.57s-7.89,3.53-7.89,8.57,3.23,8.57,7.89,8.57,7.89-3.53,7.89-8.57Z"/>
    </g>
  </g>
</svg>