<?xml version="1.0" encoding="UTF-8"?>
<svg id="Layer_2" data-name="Layer 2" xmlns="http://www.w3.org/2000/svg" viewBox="0 0 106.67 160">
  <defs>
    <style>
      .cls-1, .cls-2, .cls-3, .cls-4, .cls-5 {
        stroke-width: 0px;
      }

      .cls-2 {
        fill: #83c040;
      }

      .cls-6 {
        fill: #fdfffd;
        stroke: #fff;
        stroke-miterlimit: 10;
      }

      .cls-3 {
        fill: #da3e25;
      }

      .cls-4 {
        fill: #0078ba;
      }

      .cls-5 {
        fill: #ffd136;
      }
    </style>
  </defs>
  <g id="Layer_1-2" data-name="Layer 1">
    <g>
      <rect class="cls-1" x="0" y="0" width="106.67" height="160" rx="5" ry="5"/>
      <g>
        <path class="cls-6" d="M9.25,20.26c0-.06-.03-.09-.09-.09h-2.42c-.09,0-.15-.06-.15-.15v-.12c0-.09.06-.15.15-.15h2.42c.06,0,.09-.03.09-.09v-2.43c0-.09.06-.15.15-.15h.15c.09,0,.15.06.15.15v2.43c0,.06.03.09.09.09h2.42c.09,0,.15.06.15.15v.12c0,.09-.06.15-.15.15h-2.42c-.06,0-.09.03-.09.09v2.43c0,.09-.06.15-.15.15h-.15c-.09,0-.15-.06-.15-.15v-2.43Z"/>
        <path class="cls-6" d="M14.77,23.92c0-.08.02-.12.06-.18l3.84-5.16c.55-.75.88-1.47.88-2.22,0-1.29-.88-2.19-2.17-2.19s-2,.79-2.19,2.01c-.01.08-.09.13-.19.11l-.11-.03c-.09-.03-.13-.08-.12-.17.18-1.26,1.1-2.34,2.61-2.34s2.62,1.07,2.62,2.61c0,.88-.39,1.65-1.05,2.55l-3.54,4.75h0s4.44.01,4.44.01c.09,0,.15.06.15.15v.12c0,.09-.06.15-.15.15h-4.93c-.09,0-.15-.06-.15-.15v-.03Z"/>
      </g>
      <g>
        <path class="cls-6" d="M89.05,142.26c0-.06-.03-.09-.09-.09h-2.42c-.09,0-.15-.06-.15-.15v-.12c0-.09.06-.15.15-.15h2.42c.06,0,.09-.03.09-.09v-2.43c0-.09.06-.15.15-.15h.15c.09,0,.15.06.15.15v2.43c0,.06.03.09.09.09h2.42c.09,0,.15.06.15.15v.12c0,.09-.06.15-.15.15h-2.42c-.06,0-.09.03-.09.09v2.43c0,.09-.06.15-.15.15h-.15c-.09,0-.15-.06-.15-.15v-2.43Z"/>
        <path class="cls-6" d="M94.57,145.92c0-.08.02-.12.06-.18l3.84-5.16c.55-.75.88-1.47.88-2.22,0-1.29-.88-2.19-2.17-2.19s-2,.79-2.19,2.01c-.01.08-.09.13-.19.11l-.11-.03c-.09-.03-.13-.08-.12-.17.18-1.26,1.09-2.34,2.61-2.34s2.62,1.07,2.62,2.61c0,.88-.39,1.65-1.05,2.55l-3.54,4.75h0s4.44.01,4.44.01c.09,0,.15.06.15.15v.12c0,.09-.06.15-.15.15h-4.93c-.09,0-.15-.06-.15-.15v-.03Z"/>
      </g>
      <path class="cls-4" d="M66.42,81.76l-1.13-.98c.15-.17.23-.38.23-.61v-20.52c0-.55-.44-.99-.99-.99h-11.92c-.29,0-.57.13-.74.35l-1.19-.91c.45-.58,1.17-.93,1.92-.93h11.92c1.37,0,2.49,1.12,2.49,2.49v20.52c0,.59-.21,1.14-.59,1.59Z"/>
      <path class="cls-5" d="M55.96,101.95l-1.13-.98c.15-.17.23-.38.23-.61v-20.52c0-.55-.44-.99-.99-.99h-11.92c-.29,0-.57.13-.74.35l-1.19-.91c.45-.58,1.17-.93,1.92-.93h11.92c1.37,0,2.49,1.12,2.49,2.49v20.52c0,.59-.21,1.14-.59,1.59Z"/>
      <path class="cls-2" d="M54.06,102.84h-11.92c-1.37,0-2.49-1.12-2.49-2.49v-20.52c0-.59.21-1.14.59-1.59l1.13.98c-.15.17-.23.38-.23.61v20.52c0,.55.44.99.99.99h11.92c.29,0,.57-.13.74-.35l1.19.91c-.45.58-1.17.93-1.92.93Z"/>
      <path class="cls-3" d="M64.52,82.66h-11.92c-1.37,0-2.49-1.12-2.49-2.49v-20.52c0-.59.21-1.14.59-1.59l1.13.98c-.15.17-.23.38-.23.61v20.52c0,.55.44.99.99.99h11.92c.29,0,.57-.13.74-.35l1.19.91c-.45.58-1.17.93-1.92.93Z"/>
    </g>
  </g>
</svg>