<?xml version="1.0" encoding="UTF-8"?>
<svg id="Layer_2" data-name="Layer 2" xmlns="http://www.w3.org/2000/svg" viewBox="0 0 106.67 160">
  <defs>
    <style>
      .cls-1 {
        fill: #da3e25;
      }

      .cls-1, .cls-2 {
        stroke-width: 0px;
      }

      .cls-2 {
        fill: #fff;
      }
    </style>
  </defs>
  <g id="Layer_1-2" data-name="Layer 1">
    <g>
      <rect class="cls-1" x="0" y="0" width="106.67" height="160" rx="5" ry="5"/>
      <g>
        <g>
          <path class="cls-2" d="M42.35,100.65l-1.06-1.06,19.23-19.23c.74-.74,1.14-1.71,1.14-2.75s-.41-2.02-1.14-2.75l-5.21-5.21,1.06-1.06,5.21,5.21c2.1,2.1,2.1,5.52,0,7.63l-19.23,19.23Z"/>
          <polygon class="cls-2" points="52.51 100.87 41.07 100.87 41.07 89.43 42.57 89.43 42.57 99.37 52.51 99.37 52.51 100.87"/>
        </g>
        <g>
          <path class="cls-2" d="M50.3,87.57l-5.21-5.21c-2.1-2.1-2.1-5.53,0-7.63l19.23-19.23,1.06,1.06-19.23,19.23c-.74.74-1.14,1.71-1.14,2.75s.41,2.02,1.14,2.75l5.21,5.21-1.06,1.06Z"/>
          <polygon class="cls-2" points="65.59 66.72 64.09 66.72 64.09 56.78 54.15 56.78 54.15 55.28 65.59 55.28 65.59 66.72"/>
        </g>
      </g>
      <g>
        <g>
          <path class="cls-2" d="M8.91,28.68l-.71-.71,8.15-8.15c.28-.28.43-.65.43-1.04s-.15-.76-.43-1.04l-2.21-2.21.71-.71,2.21,2.21c.96.96.96,2.53,0,3.49l-8.15,8.15Z"/>
          <polygon class="cls-2" points="13.09 28.82 8.06 28.82 8.06 23.8 9.06 23.8 9.06 27.82 13.09 27.82 13.09 28.82"/>
        </g>
        <g>
          <path class="cls-2" d="M12.02,23.13l-2.21-2.21c-.47-.47-.72-1.08-.72-1.74s.26-1.28.72-1.75l8.15-8.15.71.71-8.15,8.15c-.28.28-.43.65-.43,1.04s.15.76.43,1.04l2.21,2.21-.71.71Z"/>
          <polygon class="cls-2" points="18.81 14.17 17.81 14.17 17.81 10.14 13.78 10.14 13.78 9.14 18.81 9.14 18.81 14.17"/>
        </g>
      </g>
      <g>
        <g>
          <path class="cls-2" d="M88.71,150.67l-.71-.71,8.15-8.15c.28-.28.43-.65.43-1.04s-.15-.76-.43-1.04l-2.21-2.21.71-.71,2.21,2.21c.96.96.96,2.53,0,3.49l-8.15,8.15Z"/>
          <polygon class="cls-2" points="92.89 150.82 87.86 150.82 87.86 145.79 88.86 145.79 88.86 149.82 92.89 149.82 92.89 150.82"/>
        </g>
        <g>
          <path class="cls-2" d="M91.82,145.13l-2.21-2.21c-.96-.96-.96-2.53,0-3.49l8.15-8.15.71.71-8.15,8.15c-.57.57-.57,1.5,0,2.08l2.21,2.21-.71.71Z"/>
          <polygon class="cls-2" points="98.61 136.17 97.61 136.17 97.61 132.14 93.58 132.14 93.58 131.14 98.61 131.14 98.61 136.17"/>
        </g>
      </g>
    </g>
  </g>
</svg>