<?xml version="1.0" encoding="UTF-8"?>
<svg id="Layer_2" data-name="Layer 2" xmlns="http://www.w3.org/2000/svg" viewBox="0 0 106.67 160">
  <defs>
    <style>
      .cls-1, .cls-2, .cls-3, .cls-4, .cls-5 {
        stroke-width: 0px;
      }

      .cls-2 {
        fill: #83c040;
      }

      .cls-3 {
        fill: #da3e25;
      }

      .cls-4 {
        fill: #0078ba;
      }

      .cls-5 {
        fill: #ffd136;
      }
    </style>
  </defs>
  <g id="Layer_1-2" data-name="Layer 1">
    <g>
      <rect class="cls-1" x="0" y="0" width="106.67" height="160" rx="5" ry="5"/>
      <g>
        <path class="cls-5" d="M52.59,58.19v1.5c-10.57.38-19.1,8.85-19.56,19.39h-1.51c.47-11.37,9.67-20.51,21.07-20.89Z"/>
        <path class="cls-2" d="M75.15,79.08h-1.51c-.46-10.54-8.99-19.01-19.55-19.39v-1.5c11.38.38,20.59,9.52,21.06,20.89Z"/>
        <path class="cls-3" d="M75.15,80.58c-.29,11.52-9.57,20.85-21.06,21.23v-1.5c10.67-.38,19.27-9.03,19.56-19.73h1.5Z"/>
        <path class="cls-4" d="M52.59,100.31v1.5c-11.51-.38-20.78-9.71-21.07-21.23h1.5c.29,10.7,8.89,19.35,19.57,19.73Z"/>
      </g>
      <g>
        <path class="cls-5" d="M12.93,10.9v1.01c-3.5.23-6.32,3.01-6.6,6.5h-1.01c.29-4.04,3.56-7.27,7.61-7.51Z"/>
        <path class="cls-2" d="M21.54,18.41h-1.01c-.28-3.49-3.1-6.27-6.6-6.5v-1.01c4.05.24,7.32,3.47,7.61,7.51Z"/>
        <path class="cls-3" d="M21.55,19.41c-.21,4.12-3.51,7.45-7.62,7.7v-1.01c3.56-.24,6.41-3.12,6.61-6.69h1.01Z"/>
        <path class="cls-4" d="M12.93,26.1v1.01c-4.11-.25-7.41-3.58-7.62-7.7h1.01c.2,3.57,3.05,6.45,6.61,6.69Z"/>
      </g>
      <g>
        <path class="cls-5" d="M92.74,132.82v1.01c-3.5.23-6.32,3.01-6.6,6.5h-1.01c.29-4.04,3.56-7.27,7.61-7.51Z"/>
        <path class="cls-2" d="M101.35,140.33h-1.01c-.28-3.49-3.1-6.27-6.6-6.5v-1.01c4.05.24,7.32,3.47,7.61,7.51Z"/>
        <path class="cls-3" d="M101.36,141.33c-.21,4.12-3.51,7.45-7.62,7.7v-1.01c3.56-.24,6.41-3.12,6.61-6.69h1.01Z"/>
        <path class="cls-4" d="M92.74,148.02v1.01c-4.11-.25-7.41-3.58-7.62-7.7h1.01c.2,3.57,3.05,6.45,6.61,6.69Z"/>
      </g>
    </g>
  </g>
</svg>